<svg xmlns="http://www.w3.org/2000/svg" xmlns:xlink="http://www.w3.org/1999/xlink" width="500" zoomAndPan="magnify" viewBox="0 0 375.12 383.03998" height="500" preserveAspectRatio="xMidYMid meet" version="1.0"><defs><clipPath id="3c4dabb021"><path d="M 43.421875 37.40625 L 330.703125 37.40625 L 330.703125 336.65625 L 43.421875 336.65625 Z M 43.421875 37.40625 " clip-rule="nonzero"/></clipPath></defs><g clip-path="url(#3c4dabb021)"><path fill="#7cebff" d="M 111.355469 224.441406 L 111.355469 183.769531 C 111.355469 183.496094 111.328125 183.226562 111.277344 182.960938 C 111.222656 182.695312 111.144531 182.433594 111.042969 182.183594 C 110.9375 181.933594 110.8125 181.695312 110.660156 181.46875 C 110.511719 181.242188 110.339844 181.035156 110.148438 180.839844 C 109.957031 180.648438 109.746094 180.476562 109.519531 180.324219 C 109.296875 180.171875 109.058594 180.046875 108.808594 179.941406 C 108.554688 179.835938 108.296875 179.757812 108.03125 179.703125 C 107.765625 179.648438 107.496094 179.621094 107.226562 179.621094 L 96.851562 179.621094 L 123.976562 132.6875 L 151.074219 179.621094 L 140.699219 179.621094 C 140.425781 179.621094 140.15625 179.648438 139.890625 179.699219 C 139.621094 179.753906 139.363281 179.832031 139.109375 179.9375 C 138.859375 180.039062 138.621094 180.167969 138.394531 180.320312 C 138.167969 180.472656 137.957031 180.644531 137.765625 180.835938 C 137.574219 181.027344 137.402344 181.238281 137.25 181.464844 C 137.097656 181.691406 136.972656 181.929688 136.867188 182.179688 C 136.761719 182.433594 136.683594 182.691406 136.632812 182.957031 C 136.578125 183.226562 136.550781 183.496094 136.550781 183.769531 L 136.550781 224.441406 Z M 162.929688 148.664062 L 173.304688 148.664062 C 173.574219 148.664062 173.84375 148.6875 174.113281 148.742188 C 174.378906 148.796875 174.636719 148.875 174.886719 148.976562 C 175.140625 149.082031 175.378906 149.210938 175.605469 149.363281 C 175.828125 149.511719 176.039062 149.683594 176.230469 149.878906 C 176.421875 150.070312 176.59375 150.28125 176.746094 150.507812 C 176.894531 150.734375 177.023438 150.972656 177.125 151.222656 C 177.226562 151.476562 177.304688 151.734375 177.359375 152 C 177.410156 152.269531 177.4375 152.539062 177.433594 152.808594 L 177.433594 224.441406 L 202.601562 224.441406 L 202.601562 152.808594 C 202.597656 152.539062 202.625 152.269531 202.675781 152 C 202.730469 151.734375 202.808594 151.476562 202.910156 151.222656 C 203.015625 150.972656 203.140625 150.734375 203.292969 150.507812 C 203.441406 150.28125 203.613281 150.070312 203.804688 149.878906 C 203.996094 149.683594 204.207031 149.511719 204.433594 149.363281 C 204.65625 149.210938 204.894531 149.082031 205.148438 148.976562 C 205.398438 148.875 205.65625 148.796875 205.925781 148.742188 C 206.191406 148.6875 206.460938 148.664062 206.730469 148.664062 L 217.121094 148.664062 L 190.011719 101.714844 Z M 240.835938 107 L 240.835938 224.441406 L 266.03125 224.441406 L 266.03125 107 C 266.03125 106.726562 266.054688 106.457031 266.109375 106.191406 C 266.164062 105.925781 266.242188 105.667969 266.34375 105.414062 C 266.449219 105.164062 266.578125 104.925781 266.730469 104.699219 C 266.878906 104.472656 267.050781 104.265625 267.246094 104.074219 C 267.4375 103.882812 267.648438 103.710938 267.875 103.558594 C 268.101562 103.410156 268.339844 103.28125 268.589844 103.179688 C 268.84375 103.074219 269.101562 102.996094 269.367188 102.945312 C 269.636719 102.894531 269.90625 102.867188 270.175781 102.867188 L 280.550781 102.867188 L 253.410156 55.9375 L 226.3125 102.867188 L 236.703125 102.867188 C 236.972656 102.867188 237.242188 102.894531 237.507812 102.949219 C 237.773438 103 238.035156 103.078125 238.285156 103.183594 C 238.535156 103.285156 238.773438 103.414062 239 103.566406 C 239.222656 103.714844 239.433594 103.886719 239.625 104.078125 C 239.816406 104.269531 239.988281 104.480469 240.136719 104.703125 C 240.289062 104.929688 240.417969 105.167969 240.519531 105.417969 C 240.625 105.667969 240.703125 105.929688 240.753906 106.195312 C 240.808594 106.460938 240.835938 106.730469 240.835938 107 Z M 266.164062 232.71875 L 111.355469 232.71875 L 111.355469 251.285156 L 266.164062 251.285156 Z M 319.984375 138.753906 L 314.578125 127.195312 L 293.140625 136.671875 C 339.878906 226.148438 262.226562 330.820312 163.078125 310.550781 C 58.839844 289.128906 32.386719 151.835938 121.042969 93.121094 C 132.285156 85.726562 144.441406 80.339844 157.195312 77.132812 C 157.820312 76.972656 158.445312 76.957031 159.074219 77.089844 C 159.703125 77.226562 160.269531 77.496094 160.773438 77.898438 C 161.277344 78.296875 161.667969 78.789062 161.941406 79.371094 C 162.21875 79.949219 162.351562 80.5625 162.34375 81.207031 L 162.210938 89.15625 L 208.648438 64.035156 L 163.019531 37.449219 L 162.839844 48.183594 C 162.832031 48.65625 162.746094 49.117188 162.582031 49.5625 C 162.414062 50.007812 162.179688 50.414062 161.875 50.777344 C 161.566406 51.140625 161.210938 51.441406 160.800781 51.683594 C 160.390625 51.925781 159.953125 52.089844 159.484375 52.179688 C 60.144531 70.863281 10.679688 188.257812 67.269531 272.257812 C 108.46875 337.542969 202.707031 356.871094 266.195312 312.976562 L 266.210938 312.976562 C 323.367188 275.234375 345.984375 201.957031 319.984375 138.753906 Z M 319.984375 138.753906 " fill-opacity="1" fill-rule="nonzero"/></g></svg>