<svg xmlns="http://www.w3.org/2000/svg" xmlns:xlink="http://www.w3.org/1999/xlink" width="500" zoomAndPan="magnify" viewBox="0 0 375.12 383.03998" height="500" preserveAspectRatio="xMidYMid meet" version="1.0"><defs><clipPath id="52995e9124"><path d="M 37.4375 65.460938 L 173 65.460938 L 173 308.601562 L 37.4375 308.601562 Z M 37.4375 65.460938 " clip-rule="nonzero"/></clipPath></defs><g clip-path="url(#52995e9124)"><path fill="#7cebff" d="M 168.09375 65.460938 L 146.332031 65.460938 C 141.355469 65.460938 137.3125 69.191406 137.003906 73.855469 L 133.894531 104.015625 C 133.894531 104.949219 132.960938 105.878906 132.027344 106.191406 C 128.609375 107.433594 125.1875 108.679688 122.078125 110.542969 C 121.144531 111.167969 119.902344 110.855469 118.96875 110.234375 L 95.339844 91.265625 C 91.609375 88.160156 86.011719 88.46875 82.589844 91.890625 L 64.246094 110.234375 C 60.828125 113.652344 60.515625 119.25 63.625 122.980469 L 82.902344 146.613281 C 83.523438 147.542969 83.835938 148.789062 83.214844 149.71875 C 81.660156 152.828125 80.105469 156.25 78.859375 159.671875 C 78.550781 160.601562 77.617188 161.535156 76.375 161.535156 L 46.214844 164.644531 C 41.238281 165.265625 37.820312 169.308594 37.820312 173.972656 L 37.820312 200.089844 C 37.820312 205.066406 41.550781 209.105469 46.214844 209.417969 L 76.375 212.527344 C 77.617188 212.527344 78.238281 213.460938 78.859375 214.390625 C 80.105469 217.8125 81.347656 221.234375 83.214844 224.34375 C 83.835938 225.273438 83.523438 226.519531 82.902344 227.449219 L 63.625 251.082031 C 60.515625 254.8125 60.828125 260.410156 64.246094 263.828125 L 82.589844 282.171875 C 86.011719 285.59375 91.609375 285.902344 95.339844 282.796875 L 118.96875 263.519531 C 119.902344 262.894531 120.835938 262.585938 122.078125 263.207031 C 125.1875 264.761719 128.609375 266.316406 132.027344 267.25 C 132.960938 267.558594 133.894531 268.492188 133.894531 269.738281 L 137.003906 299.894531 C 137.625 304.871094 141.667969 308.601562 146.332031 308.601562 L 168.09375 308.601562 C 170.273438 308.601562 172.136719 306.734375 172.136719 304.558594 L 172.136719 237.710938 C 172.136719 235.222656 169.960938 233.359375 167.472656 233.667969 C 164.984375 233.980469 162.1875 234.292969 159.390625 234.292969 C 133.582031 234.292969 112.75 213.769531 111.816406 188.273438 C 111.507812 171.175781 120.523438 155.9375 135.136719 146.613281 C 146.019531 139.769531 157.210938 138.527344 167.472656 140.082031 C 169.960938 140.394531 172.136719 138.527344 172.136719 136.039062 L 172.136719 69.503906 C 172.136719 67.328125 170.273438 65.460938 168.09375 65.460938 Z M 168.09375 65.460938 " fill-opacity="1" fill-rule="nonzero"/></g><path fill="#7cebff" d="M 169.339844 153.453125 C 166.230469 152.519531 162.808594 151.898438 159.078125 151.898438 C 137.625 151.898438 120.835938 170.863281 124.566406 192.9375 C 127.054688 206.929688 138.246094 218.746094 152.238281 221.234375 C 158.144531 222.164062 163.742188 221.855469 169.027344 220.300781 C 170.582031 219.679688 171.824219 218.125 171.824219 216.570312 L 171.824219 157.492188 C 172.136719 155.628906 171.203125 154.074219 169.339844 153.453125 Z M 169.339844 153.453125 " fill-opacity="1" fill-rule="nonzero"/><path fill="#7cebff" d="M 290.910156 258.230469 C 281.582031 258.230469 274.121094 264.140625 271.320312 272.535156 L 256.707031 272.535156 L 239.917969 245.171875 C 238.675781 243.308594 236.496094 242.0625 234.011719 242.0625 L 220.640625 242.0625 L 220.640625 209.105469 C 220.640625 207.242188 219.085938 205.996094 217.53125 205.996094 L 210.378906 205.996094 C 208.515625 205.996094 207.269531 207.550781 207.269531 209.105469 L 207.269531 241.753906 L 187.992188 241.753906 C 186.128906 241.753906 184.886719 243.308594 184.886719 244.863281 L 184.886719 252.324219 C 184.886719 254.191406 186.4375 255.433594 187.992188 255.433594 L 230.589844 255.433594 L 247.378906 282.796875 C 248.625 284.660156 250.800781 285.90625 253.289062 285.90625 L 271.632812 285.90625 C 275.050781 295.542969 285 302.070312 296.503906 299.585938 C 303.96875 297.71875 309.875 291.8125 311.742188 284.351562 C 314.539062 270.667969 304.277344 258.230469 290.910156 258.230469 Z M 290.910156 286.527344 C 286.867188 286.527344 283.445312 283.105469 283.445312 279.0625 C 283.445312 275.023438 286.867188 271.601562 290.910156 271.601562 C 294.949219 271.601562 298.371094 275.023438 298.371094 279.0625 C 298.371094 283.417969 294.949219 286.527344 290.910156 286.527344 Z M 290.910156 286.527344 " fill-opacity="1" fill-rule="nonzero"/><path fill="#7cebff" d="M 187.371094 132 L 206.648438 132 L 206.648438 164.957031 C 206.648438 166.820312 208.203125 168.066406 209.757812 168.066406 L 216.910156 168.066406 C 218.773438 168.066406 220.019531 166.511719 220.019531 164.957031 L 220.019531 132 L 233.386719 132 C 235.875 132 238.050781 130.753906 239.296875 128.890625 L 256.085938 101.527344 L 270.699219 101.527344 C 274.121094 111.167969 284.070312 117.695312 295.574219 115.207031 C 303.035156 113.34375 308.941406 107.433594 310.808594 99.972656 C 314.226562 85.980469 303.65625 73.855469 290.289062 73.855469 C 280.960938 73.855469 273.496094 79.761719 270.699219 88.160156 L 252.355469 88.160156 C 249.867188 88.160156 247.691406 89.402344 246.445312 91.265625 L 229.65625 118.628906 L 187.371094 118.628906 C 185.507812 118.628906 184.261719 120.183594 184.261719 121.738281 L 184.261719 128.890625 C 184.261719 130.753906 185.816406 132 187.371094 132 Z M 290.910156 87.535156 C 294.949219 87.535156 298.371094 90.957031 298.371094 95 C 298.371094 99.039062 294.949219 102.460938 290.910156 102.460938 C 286.867188 102.460938 283.445312 99.039062 283.445312 95 C 283.445312 90.644531 286.867188 87.535156 290.910156 87.535156 Z M 290.910156 87.535156 " fill-opacity="1" fill-rule="nonzero"/><path fill="#7cebff" d="M 312.050781 196.359375 C 302.722656 196.359375 295.261719 202.265625 292.464844 210.660156 L 256.707031 210.660156 L 242.09375 187.03125 L 257.019531 162.46875 L 292.773438 162.46875 C 296.195312 172.105469 306.144531 178.636719 317.648438 176.148438 C 325.109375 174.285156 331.019531 168.375 332.882812 160.914062 C 336.304688 146.921875 325.730469 134.484375 312.363281 134.484375 C 303.035156 134.484375 295.574219 140.394531 292.773438 148.789062 L 252.976562 148.789062 C 250.488281 148.789062 248.3125 150.03125 247.070312 152.207031 L 229.96875 180.191406 L 187.371094 180.191406 C 185.507812 180.191406 184.261719 181.746094 184.261719 183.300781 L 184.261719 190.453125 C 184.261719 192.316406 185.816406 193.5625 187.371094 193.5625 L 229.96875 193.5625 L 246.757812 220.921875 C 248 222.789062 250.179688 224.03125 252.664062 224.03125 L 292.464844 224.03125 C 295.882812 233.667969 305.832031 240.199219 317.335938 237.710938 C 324.800781 235.847656 330.707031 229.9375 332.574219 222.476562 C 335.992188 208.796875 325.421875 196.359375 312.050781 196.359375 Z M 312.050781 148.476562 C 316.09375 148.476562 319.515625 151.898438 319.515625 155.9375 C 319.515625 159.980469 316.09375 163.402344 312.050781 163.402344 C 308.007812 163.402344 304.589844 159.980469 304.589844 155.9375 C 304.902344 151.585938 308.007812 148.476562 312.050781 148.476562 Z M 312.050781 224.652344 C 308.007812 224.652344 304.589844 221.234375 304.589844 217.191406 C 304.589844 213.148438 308.007812 209.726562 312.050781 209.726562 C 316.09375 209.726562 319.515625 213.148438 319.515625 217.191406 C 319.515625 221.542969 316.09375 224.652344 312.050781 224.652344 Z M 312.050781 224.652344 " fill-opacity="1" fill-rule="nonzero"/></svg>