<svg xmlns="http://www.w3.org/2000/svg" xmlns:xlink="http://www.w3.org/1999/xlink" width="500" zoomAndPan="magnify" viewBox="0 0 375.12 383.03998" height="500" preserveAspectRatio="xMidYMid meet" version="1.0"><defs><clipPath id="1e9ec52f09"><path d="M 38 37.40625 L 336.6875 37.40625 L 336.6875 331.417969 L 38 331.417969 Z M 38 37.40625 " clip-rule="nonzero"/></clipPath></defs><g clip-path="url(#1e9ec52f09)"><path fill="#7cebff" d="M 308.875 193.804688 C 303.433594 193.804688 298.40625 195.445312 294.097656 198.164062 L 266.902344 163.066406 C 276.035156 155.113281 281.78125 143.464844 281.78125 130.433594 C 281.78125 106.574219 262.335938 87.125 238.476562 87.125 C 228.160156 87.125 218.71875 90.71875 211.28125 96.722656 L 199.121094 83.382812 C 203.636719 78.507812 206.40625 72.042969 206.40625 64.859375 C 206.40625 49.667969 194.039062 37.253906 178.800781 37.253906 C 163.5625 37.253906 151.195312 49.667969 151.195312 64.859375 L 151.195312 64.960938 L 92.957031 70.449219 C 90.542969 57.621094 79.359375 47.925781 65.863281 47.925781 C 50.625 47.925781 38.257812 60.292969 38.257812 75.53125 C 38.257812 90.769531 50.625 103.136719 65.863281 103.136719 C 68.890625 103.136719 71.765625 102.519531 74.535156 101.597656 L 92.136719 141.773438 C 77.769531 148.804688 67.867188 163.582031 67.867188 180.617188 C 67.867188 194.519531 74.484375 206.886719 84.644531 214.839844 C 84.902344 215.097656 85.207031 215.351562 85.566406 215.507812 C 92.03125 220.28125 99.882812 223.308594 108.402344 223.820312 L 108.402344 276.105469 C 94.394531 277.386719 83.308594 289.085938 83.308594 303.453125 C 83.308594 318.644531 95.726562 331.058594 110.964844 331.058594 C 126.207031 331.058594 138.570312 318.644531 138.570312 303.453125 C 138.570312 301.351562 138.265625 299.351562 137.855469 297.398438 L 179.773438 283.800781 C 182.597656 288.675781 186.34375 292.9375 190.808594 296.375 C 191.0625 296.683594 191.320312 296.9375 191.679688 297.09375 C 198.863281 302.378906 207.738281 305.558594 217.335938 305.558594 C 226.929688 305.558594 235.753906 302.378906 242.9375 297.09375 C 243.296875 296.9375 243.605469 296.679688 243.863281 296.375 C 254.074219 288.472656 260.691406 276.105469 260.691406 262.199219 C 260.691406 258.042969 260.078125 254.042969 258.949219 250.246094 L 285.679688 236.289062 C 290.605469 243.933594 299.125 249.011719 308.875 249.011719 C 324.113281 249.011719 336.480469 236.648438 336.480469 221.40625 C 336.480469 206.167969 324.113281 193.800781 308.875 193.800781 Z M 217.078125 239.828125 C 225.238281 239.828125 231.855469 246.449219 231.855469 254.605469 C 231.855469 262.765625 225.238281 269.382812 217.078125 269.382812 C 208.917969 269.382812 202.300781 262.765625 202.300781 254.605469 C 202.300781 246.449219 208.917969 239.828125 217.078125 239.828125 Z M 222.3125 219.152344 C 220.671875 218.996094 219.027344 218.84375 217.335938 218.84375 C 203.222656 218.84375 190.703125 225.667969 182.800781 236.132812 L 146.730469 205.347656 C 151.65625 198.371094 154.53125 189.851562 154.53125 180.617188 C 154.53125 175.332031 153.554688 170.25 151.808594 165.582031 L 198.863281 147.980469 C 201.789062 154.601562 206.304688 160.296875 211.894531 164.65625 C 212.152344 164.914062 212.460938 165.171875 212.820312 165.324219 C 217.695312 168.917969 223.285156 171.535156 229.394531 172.816406 Z M 125.746094 173.023438 C 125.746094 181.179688 119.074219 187.800781 110.964844 187.800781 C 102.808594 187.800781 96.1875 181.179688 96.1875 173.023438 C 96.1875 164.914062 102.808594 158.242188 110.964844 158.242188 C 119.074219 158.242188 125.746094 164.914062 125.746094 173.023438 Z M 238.167969 137.667969 C 230.058594 137.667969 223.390625 130.996094 223.390625 122.890625 C 223.390625 114.730469 230.058594 108.0625 238.167969 108.0625 C 246.324219 108.0625 252.945312 114.730469 252.945312 122.890625 C 252.945312 130.996094 246.324219 137.667969 238.167969 137.667969 Z M 216.359375 161.578125 L 216.359375 160.089844 C 216.359375 154.859375 220.617188 150.597656 225.851562 150.597656 L 251.046875 150.597656 C 256.28125 150.597656 260.539062 154.859375 260.539062 160.089844 L 260.539062 161.578125 C 254.277344 166.042969 246.683594 168.660156 238.476562 168.660156 C 230.214844 168.660156 222.621094 166.042969 216.359375 161.578125 Z M 178.800781 42.382812 C 191.21875 42.382812 201.273438 52.492188 201.273438 64.859375 C 201.273438 77.222656 191.21875 87.332031 178.800781 87.332031 C 166.382812 87.332031 156.324219 77.273438 156.324219 64.859375 C 156.324219 52.441406 166.433594 42.382812 178.800781 42.382812 Z M 65.863281 98.003906 C 53.5 98.003906 43.390625 87.949219 43.390625 75.53125 C 43.390625 63.113281 53.5 53.054688 65.863281 53.054688 C 78.230469 53.054688 88.339844 63.113281 88.339844 75.53125 C 88.339844 87.949219 78.28125 98.003906 65.863281 98.003906 Z M 79.207031 99.542969 C 87.671875 94.824219 93.46875 85.894531 93.46875 75.53125 L 151.707031 70.039062 C 154.171875 82.816406 165.355469 92.464844 178.800781 92.464844 C 185.007812 92.464844 190.703125 90.359375 195.324219 86.871094 L 207.484375 100.210938 C 199.835938 108.011719 195.117188 118.683594 195.117188 130.433594 C 195.117188 134.898438 195.785156 139.15625 197.015625 143.210938 L 149.757812 160.859375 C 142.523438 146.90625 128.003906 137.308594 111.222656 137.308594 C 106.195312 137.308594 101.371094 138.179688 96.855469 139.773438 Z M 89.109375 211.761719 L 89.109375 210.273438 C 89.109375 205.039062 93.367188 200.78125 98.601562 200.78125 L 123.792969 200.78125 C 129.027344 200.78125 133.289062 205.039062 133.289062 210.273438 L 133.289062 211.761719 C 127.027344 216.226562 119.433594 218.84375 111.222656 218.84375 C 102.960938 218.84375 95.367188 216.226562 89.109375 211.761719 Z M 110.964844 325.929688 C 98.550781 325.929688 88.441406 315.820312 88.441406 303.453125 C 88.441406 291.089844 98.550781 280.980469 110.964844 280.980469 C 123.382812 280.980469 133.441406 291.039062 133.441406 303.453125 C 133.441406 315.871094 123.332031 325.929688 110.964844 325.929688 Z M 136.261719 292.527344 C 132.363281 283.496094 123.742188 277.03125 113.53125 276.105469 L 113.53125 223.871094 C 122.203125 223.410156 130.261719 220.382812 136.828125 215.507812 C 137.1875 215.351562 137.496094 215.097656 137.75 214.839844 C 139.855469 213.199219 141.804688 211.351562 143.550781 209.402344 L 179.929688 240.445312 C 176.183594 246.808594 173.976562 254.246094 173.976562 262.199219 C 173.976562 268.203125 175.207031 273.949219 177.464844 279.183594 Z M 239.398438 293.347656 C 233.140625 297.757812 225.542969 300.425781 217.335938 300.425781 C 209.125 300.425781 201.480469 297.757812 195.269531 293.347656 L 195.269531 291.859375 C 195.269531 286.625 199.53125 282.367188 204.761719 282.367188 L 229.90625 282.367188 C 235.140625 282.367188 239.398438 286.625 239.398438 291.859375 Z M 283.320312 231.773438 L 257.253906 245.320312 C 251.917969 232.800781 240.835938 223.308594 227.339844 220.074219 L 234.472656 173.585938 C 235.808594 173.738281 237.089844 173.792969 238.476562 173.792969 C 247.503906 173.792969 255.921875 171.019531 262.898438 166.25 L 290.042969 201.34375 C 284.65625 206.375 281.269531 213.453125 281.269531 221.40625 C 281.269531 225.050781 281.988281 228.539062 283.320312 231.773438 Z M 308.875 243.882812 C 296.457031 243.882812 286.398438 233.824219 286.398438 221.40625 C 286.398438 208.992188 296.457031 198.933594 308.875 198.933594 C 321.292969 198.933594 331.347656 209.042969 331.347656 221.40625 C 331.347656 233.773438 321.238281 243.882812 308.875 243.882812 Z M 308.875 243.882812 " fill-opacity="1" fill-rule="nonzero"/></g></svg>