<svg xmlns="http://www.w3.org/2000/svg" xmlns:xlink="http://www.w3.org/1999/xlink" width="500" zoomAndPan="magnify" viewBox="0 0 375 374.999991" height="500" preserveAspectRatio="xMidYMid meet" version="1.0"><defs><clipPath id="e8cb1ebbd9"><path d="M 246 246 L 337.5 246 L 337.5 337.5 L 246 337.5 Z M 246 246 " clip-rule="nonzero"/></clipPath><clipPath id="719342ed64"><path d="M 192 37.5 L 278 37.5 L 278 265 L 192 265 Z M 192 37.5 " clip-rule="nonzero"/></clipPath><clipPath id="031725ec7f"><path d="M 308 134 L 337.5 134 L 337.5 265 L 308 265 Z M 308 134 " clip-rule="nonzero"/></clipPath><clipPath id="82301c8305"><path d="M 37.5 37.5 L 183 37.5 L 183 183 L 37.5 183 Z M 37.5 37.5 " clip-rule="nonzero"/></clipPath><clipPath id="f6cc625259"><path d="M 37.5 192 L 265 192 L 265 278 L 37.5 278 Z M 37.5 192 " clip-rule="nonzero"/></clipPath><clipPath id="5b978e1602"><path d="M 134 310 L 263 310 L 263 337.5 L 134 337.5 Z M 134 310 " clip-rule="nonzero"/></clipPath><clipPath id="d06ac31532"><path d="M 237 37.5 L 337.5 37.5 L 337.5 138 L 237 138 Z M 237 37.5 " clip-rule="nonzero"/></clipPath><clipPath id="18d4072736"><path d="M 37.5 237 L 138 237 L 138 337.5 L 37.5 337.5 Z M 37.5 237 " clip-rule="nonzero"/></clipPath><clipPath id="90df4fe411"><path d="M 37.5 37.5 L 138 37.5 L 138 138 L 37.5 138 Z M 37.5 37.5 " clip-rule="nonzero"/></clipPath></defs><g clip-path="url(#e8cb1ebbd9)"><path fill="#7cebff" d="M 332.953125 287.5 C 312.910156 287.5 296.589844 271.183594 296.589844 251.136719 C 296.589844 248.636719 294.546875 246.589844 292.046875 246.589844 C 289.546875 246.589844 287.5 248.636719 287.5 251.136719 C 287.5 271.183594 271.183594 287.5 251.136719 287.5 C 248.636719 287.5 246.589844 289.546875 246.589844 292.046875 C 246.589844 294.546875 248.636719 296.589844 251.136719 296.589844 C 271.183594 296.589844 287.5 312.910156 287.5 332.953125 C 287.5 335.453125 289.546875 337.5 292.046875 337.5 C 294.546875 337.5 296.589844 335.453125 296.589844 332.953125 C 296.589844 312.910156 312.910156 296.589844 332.953125 296.589844 C 335.453125 296.589844 337.5 294.546875 337.5 292.046875 C 337.5 289.546875 335.453125 287.5 332.953125 287.5 Z M 332.953125 287.5 " fill-opacity="1" fill-rule="nonzero"/></g><g clip-path="url(#719342ed64)"><path fill="#7cebff" d="M 196.046875 119.863281 C 230.046875 124.089844 255.683594 153.183594 255.683594 187.5 C 255.683594 198.5 253.136719 209.046875 248.089844 218.773438 C 243.410156 227.816406 245 238.589844 252 245.636719 L 269.816406 263.453125 C 270.726562 264.363281 271.863281 264.773438 273.046875 264.773438 C 274.226562 264.773438 275.363281 264.316406 276.273438 263.453125 C 278.046875 261.683594 278.046875 258.816406 276.273438 257.046875 L 258.453125 239.226562 C 254.273438 235.046875 253.363281 228.5 256.183594 222.953125 C 261.816406 212.046875 264.773438 199.816406 264.773438 187.5 C 264.773438 149.953125 237.683594 117.953125 201.136719 111.453125 L 201.136719 47.226562 C 212.546875 48.316406 223.726562 50.816406 234.316406 54.589844 C 236.683594 55.410156 239.273438 54.183594 240.136719 51.816406 C 240.953125 49.453125 239.726562 46.863281 237.363281 46 C 224.453125 41.410156 210.816406 38.636719 196.863281 37.726562 C 195.546875 37.683594 194.363281 38.089844 193.453125 38.953125 C 192.546875 39.816406 192 41 192 42.273438 L 192 115.316406 C 192 117.589844 193.726562 119.546875 196 119.816406 Z M 196.046875 119.863281 " fill-opacity="1" fill-rule="nonzero"/></g><g clip-path="url(#031725ec7f)"><path fill="#7cebff" d="M 323.226562 134.816406 C 320.863281 135.636719 319.589844 138.226562 320.453125 140.589844 C 325.726562 155.636719 328.410156 171.410156 328.410156 187.5 C 328.410156 212.273438 321.910156 236.636719 309.546875 257.953125 C 308.273438 260.136719 309.046875 262.910156 311.183594 264.183594 C 311.910156 264.589844 312.683594 264.773438 313.453125 264.773438 C 315 264.773438 316.546875 263.953125 317.410156 262.5 C 330.546875 239.816406 337.5 213.863281 337.5 187.5 C 337.5 170.410156 334.636719 153.589844 329 137.589844 C 328.183594 135.226562 325.546875 133.953125 323.226562 134.816406 Z M 323.226562 134.816406 " fill-opacity="1" fill-rule="nonzero"/></g><g clip-path="url(#82301c8305)"><path fill="#7cebff" d="M 140.589844 54.546875 C 151.273438 50.773438 162.453125 48.316406 173.863281 47.226562 L 173.863281 100.773438 C 173.863281 106.683594 170.046875 112 164.589844 113.683594 C 136.910156 122.226562 116.410156 145.589844 111.410156 173.863281 L 47.226562 173.863281 C 48.316406 162.453125 50.773438 151.273438 54.546875 140.589844 C 55.363281 138.226562 54.136719 135.636719 51.773438 134.773438 C 49.410156 133.910156 46.816406 135.183594 45.953125 137.546875 C 41.410156 150.589844 38.636719 164.226562 37.773438 178.136719 C 37.683594 179.410156 38.136719 180.636719 39 181.546875 C 39.863281 182.453125 41.046875 183 42.316406 183 L 115.363281 183 C 117.636719 183 119.589844 181.273438 119.863281 179 C 123.136719 152.5 141.726562 130.273438 167.273438 122.410156 C 176.5 119.546875 182.953125 110.683594 182.953125 100.816406 L 182.953125 42.316406 C 182.953125 41.046875 182.453125 39.863281 181.5 39 C 180.589844 38.136719 179.363281 37.726562 178.089844 37.773438 C 164.183594 38.636719 150.546875 41.410156 137.546875 45.953125 C 135.183594 46.773438 133.953125 49.363281 134.773438 51.773438 C 135.589844 54.183594 138.183594 55.410156 140.589844 54.546875 Z M 140.589844 54.546875 " fill-opacity="1" fill-rule="nonzero"/></g><g clip-path="url(#f6cc625259)"><path fill="#7cebff" d="M 113.910156 211 C 124.136719 243.183594 153.726562 264.773438 187.5 264.773438 C 203.5 264.773438 218.683594 260 231.683594 250.910156 L 257 276.226562 C 257.910156 277.136719 259.046875 277.546875 260.226562 277.546875 C 261.410156 277.546875 262.546875 277.089844 263.453125 276.226562 C 265.226562 274.453125 265.226562 271.589844 263.453125 269.816406 L 235.363281 241.726562 C 233.726562 240.089844 231.183594 239.953125 229.363281 241.363281 C 217.273438 250.726562 202.816406 255.683594 187.5 255.683594 C 157.683594 255.683594 131.589844 236.636719 122.546875 208.226562 C 119.453125 198.546875 110.773438 192.046875 100.953125 192.046875 L 42.316406 192.046875 C 41.046875 192.046875 39.863281 192.546875 39 193.5 C 38.136719 194.410156 37.683594 195.636719 37.773438 196.910156 C 38.636719 210.863281 41.453125 224.5 46.046875 237.410156 C 46.863281 239.773438 49.5 241 51.863281 240.183594 C 54.226562 239.316406 55.453125 236.726562 54.636719 234.363281 C 50.863281 223.726562 48.363281 212.589844 47.273438 201.183594 L 101 201.183594 C 106.863281 201.183594 112.046875 205.136719 113.953125 211.046875 Z M 113.910156 211 " fill-opacity="1" fill-rule="nonzero"/></g><g clip-path="url(#5b978e1602)"><path fill="#7cebff" d="M 255.773438 310.816406 C 235.046875 322.316406 211.453125 328.410156 187.5 328.410156 C 171.410156 328.410156 155.636719 325.726562 140.589844 320.453125 C 138.226562 319.589844 135.636719 320.863281 134.816406 323.226562 C 134 325.589844 135.226562 328.183594 137.589844 329 C 153.589844 334.636719 170.410156 337.5 187.5 337.5 C 212.953125 337.5 238.089844 331 260.183594 318.726562 C 262.363281 317.5 263.183594 314.726562 261.953125 312.546875 C 260.726562 310.363281 257.953125 309.546875 255.773438 310.773438 Z M 255.773438 310.816406 " fill-opacity="1" fill-rule="nonzero"/></g><path fill="#7cebff" d="M 132.953125 187.5 C 132.953125 217.589844 157.410156 242.046875 187.5 242.046875 C 217.589844 242.046875 242.046875 217.589844 242.046875 187.5 C 242.046875 157.410156 217.589844 132.953125 187.5 132.953125 C 157.410156 132.953125 132.953125 157.410156 132.953125 187.5 Z M 161.546875 184.273438 C 163.316406 182.5 166.226562 182.5 168 184.273438 L 178.410156 194.726562 L 202.453125 170.636719 C 204.226562 168.863281 207.136719 168.863281 208.910156 170.636719 C 210.683594 172.410156 210.683594 175.316406 208.910156 177.089844 L 181.636719 204.363281 C 180.726562 205.226562 179.589844 205.683594 178.410156 205.683594 C 177.226562 205.683594 176.089844 205.226562 175.183594 204.363281 L 161.546875 190.726562 C 159.773438 188.953125 159.773438 186.046875 161.546875 184.273438 Z M 161.546875 184.273438 " fill-opacity="1" fill-rule="nonzero"/><g clip-path="url(#d06ac31532)"><path fill="#7cebff" d="M 251.863281 122.546875 C 260.910156 131.773438 273.546875 137.5 287.5 137.5 C 301.453125 137.5 314.089844 131.773438 323.136719 122.546875 C 332.046875 113.5 337.5 101.136719 337.5 87.5 C 337.5 59.910156 315.089844 37.5 287.5 37.5 C 259.910156 37.5 237.5 59.910156 237.5 87.5 C 237.5 101.136719 242.953125 113.5 251.863281 122.546875 Z M 287.5 46.589844 C 310.046875 46.589844 328.410156 64.953125 328.410156 87.5 C 328.410156 97.046875 325.089844 105.863281 319.589844 112.816406 C 315.136719 109.046875 310.089844 106.136719 304.683594 104.136719 C 310.816406 99.136719 314.773438 91.5 314.773438 82.953125 C 314.773438 67.910156 302.546875 55.683594 287.5 55.683594 C 272.453125 55.683594 260.226562 67.910156 260.226562 82.953125 C 260.226562 91.5 264.183594 99.136719 270.316406 104.136719 C 264.910156 106.136719 259.863281 109.046875 255.410156 112.816406 C 249.910156 105.863281 246.589844 97.046875 246.589844 87.5 C 246.589844 64.953125 264.953125 46.589844 287.5 46.589844 Z M 287.5 46.589844 " fill-opacity="1" fill-rule="nonzero"/></g><g clip-path="url(#18d4072736)"><path fill="#7cebff" d="M 87.5 237.5 C 59.910156 237.5 37.5 259.910156 37.5 287.5 C 37.5 301.136719 42.953125 313.5 51.863281 322.546875 C 60.910156 331.773438 73.546875 337.5 87.5 337.5 C 101.453125 337.5 114.089844 331.773438 123.136719 322.546875 C 132.046875 313.5 137.5 301.136719 137.5 287.5 C 137.5 259.910156 115.089844 237.5 87.5 237.5 Z M 87.5 246.589844 C 110.046875 246.589844 128.410156 264.953125 128.410156 287.5 C 128.410156 297.046875 125.089844 305.863281 119.589844 312.816406 C 115.136719 309.046875 110.089844 306.136719 104.683594 304.136719 C 110.816406 299.136719 114.773438 291.5 114.773438 282.953125 C 114.773438 267.910156 102.546875 255.683594 87.5 255.683594 C 72.453125 255.683594 60.226562 267.910156 60.226562 282.953125 C 60.226562 291.5 64.183594 299.136719 70.316406 304.136719 C 64.910156 306.136719 59.863281 309.046875 55.410156 312.816406 C 49.910156 305.863281 46.589844 297.046875 46.589844 287.5 C 46.589844 264.953125 64.953125 246.589844 87.5 246.589844 Z M 87.5 246.589844 " fill-opacity="1" fill-rule="nonzero"/></g><g clip-path="url(#90df4fe411)"><path fill="#7cebff" d="M 87.5 137.5 C 101.453125 137.5 114.089844 131.773438 123.136719 122.546875 C 132.046875 113.5 137.5 101.136719 137.5 87.5 C 137.5 59.910156 115.089844 37.5 87.5 37.5 C 59.910156 37.5 37.5 59.910156 37.5 87.5 C 37.5 101.136719 42.953125 113.5 51.863281 122.546875 C 60.910156 131.773438 73.546875 137.5 87.5 137.5 Z M 87.5 46.589844 C 110.046875 46.589844 128.410156 64.953125 128.410156 87.5 C 128.410156 97.046875 125.089844 105.863281 119.589844 112.816406 C 115.136719 109.046875 110.089844 106.136719 104.683594 104.136719 C 110.816406 99.136719 114.773438 91.5 114.773438 82.953125 C 114.773438 67.910156 102.546875 55.683594 87.5 55.683594 C 72.453125 55.683594 60.226562 67.910156 60.226562 82.953125 C 60.226562 91.5 64.183594 99.136719 70.316406 104.136719 C 64.910156 106.136719 59.863281 109.046875 55.410156 112.816406 C 49.910156 105.863281 46.589844 97.046875 46.589844 87.5 C 46.589844 64.953125 64.953125 46.589844 87.5 46.589844 Z M 87.5 46.589844 " fill-opacity="1" fill-rule="nonzero"/></g></svg>