<svg xmlns="http://www.w3.org/2000/svg" xmlns:xlink="http://www.w3.org/1999/xlink" width="500" zoomAndPan="magnify" viewBox="0 0 375.12 383.03998" height="500" preserveAspectRatio="xMidYMid meet" version="1.0"><defs><clipPath id="a1771d0af9"><path d="M 37.4375 37.40625 L 336.6875 37.40625 L 336.6875 336.65625 L 37.4375 336.65625 Z M 37.4375 37.40625 " clip-rule="nonzero"/></clipPath></defs><g clip-path="url(#a1771d0af9)"><path fill="#7cebff" d="M 290.792969 121.503906 C 288.890625 115.910156 286.625 110.457031 284.023438 105.199219 C 282.234375 101.5625 278.429688 99.605469 274.402344 100.25 C 262.152344 102.179688 249.175781 98.429688 239.722656 88.976562 C 230.242188 79.523438 226.496094 66.519531 228.453125 54.269531 C 229.066406 50.242188 227.109375 46.46875 223.476562 44.648438 C 218.21875 42.046875 212.792969 39.8125 207.167969 37.910156 C 203.339844 36.59375 199.253906 37.910156 196.878906 41.183594 C 189.578125 51.25 177.71875 57.765625 164.351562 57.765625 C 150.984375 57.765625 139.125 51.25 131.855469 41.183594 C 129.449219 37.910156 125.367188 36.59375 121.535156 37.910156 C 115.941406 39.8125 110.488281 42.078125 105.230469 44.648438 C 101.59375 46.46875 99.636719 50.242188 100.277344 54.269531 C 102.207031 66.519531 98.460938 79.523438 89.007812 88.976562 C 79.554688 98.429688 66.550781 102.179688 54.300781 100.25 C 50.273438 99.605469 46.496094 101.5625 44.679688 105.226562 C 42.078125 110.457031 39.839844 115.910156 37.941406 121.503906 C 36.625 125.335938 37.941406 129.417969 41.210938 131.824219 C 51.28125 139.125 57.796875 150.953125 57.796875 164.320312 C 57.796875 177.691406 51.253906 189.546875 41.210938 196.847656 C 37.941406 199.226562 36.625 203.308594 37.941406 207.167969 C 39.839844 212.761719 42.078125 218.1875 44.679688 223.445312 C 46.496094 227.082031 50.273438 229.039062 54.300781 228.421875 C 66.550781 226.464844 79.554688 230.210938 89.007812 239.664062 C 98.460938 249.148438 102.207031 262.125 100.277344 274.402344 C 99.636719 278.398438 101.59375 282.203125 105.230469 283.992188 C 110.488281 286.59375 115.941406 288.859375 121.535156 290.761719 C 125.367188 292.046875 129.449219 290.761719 131.855469 287.460938 C 139.125 277.421875 150.984375 270.90625 164.351562 270.90625 C 166.8125 270.90625 169.21875 271.101562 171.566406 271.546875 C 175.929688 272.332031 179.902344 268.949219 179.816406 264.5 C 179.648438 254.992188 181.105469 245.539062 184.125 236.535156 C 185.832031 231.441406 181.441406 226.410156 176.152344 227.386719 C 172.351562 228.113281 168.40625 228.480469 164.351562 228.480469 C 128.917969 228.480469 100.195312 199.757812 100.195312 164.320312 C 100.195312 128.886719 128.917969 100.164062 164.351562 100.164062 C 195.253906 100.164062 221.042969 122.007812 227.136719 151.09375 C 228.035156 155.289062 232.339844 157.722656 236.394531 156.265625 C 241.710938 154.367188 260.054688 155.429688 266.65625 155.429688 C 269.675781 155.429688 272.25 153.609375 273.257812 150.757812 C 275.996094 143.09375 281.03125 136.523438 287.492188 131.824219 C 290.792969 129.417969 292.078125 125.335938 290.792969 121.503906 Z M 267.636719 206.160156 L 267.605469 216.789062 C 267.605469 219.109375 265.707031 220.984375 263.410156 220.984375 L 262.601562 220.984375 C 260.308594 220.984375 258.40625 219.109375 258.40625 216.789062 L 258.40625 206.160156 C 230.605469 208.34375 208.429688 230.492188 206.191406 258.292969 L 216.820312 258.292969 C 219.140625 258.292969 221.011719 260.195312 221.011719 262.515625 L 221.011719 263.296875 C 221.011719 265.621094 219.140625 267.519531 216.820312 267.519531 L 206.191406 267.492188 C 208.371094 295.292969 230.523438 317.5 258.320312 319.734375 L 258.320312 309.109375 C 258.320312 306.789062 260.222656 304.886719 262.546875 304.886719 L 263.328125 304.886719 C 265.648438 304.886719 267.550781 306.789062 267.550781 309.109375 L 267.523438 319.734375 C 295.324219 317.527344 317.527344 295.375 319.765625 267.605469 L 309.136719 267.578125 C 306.816406 267.578125 304.914062 265.675781 304.914062 263.382812 L 304.914062 262.570312 C 304.914062 260.277344 306.816406 258.375 309.136719 258.375 L 319.765625 258.375 C 317.554688 230.578125 295.40625 208.398438 267.636719 206.160156 Z M 294.539062 251.019531 C 295.601562 253.257812 294.652344 255.941406 292.441406 257.003906 L 276.191406 264.78125 C 275.773438 264.976562 275.296875 264.976562 274.878906 264.722656 C 274.460938 264.472656 274.207031 264.082031 274.179688 263.605469 C 274.066406 261.730469 273.480469 259.941406 272.472656 258.347656 C 272.25 258.011719 272.195312 257.621094 272.304688 257.199219 C 272.417969 256.808594 272.695312 256.53125 273.0625 256.335938 L 288.554688 248.921875 C 290.792969 247.859375 293.476562 248.8125 294.539062 251.019531 Z M 262.992188 225.066406 C 265.480469 225.066406 267.496094 227.082031 267.496094 229.542969 L 267.46875 252.082031 C 267.46875 252.53125 267.269531 252.921875 266.9375 253.203125 C 266.570312 253.480469 266.152344 253.566406 265.734375 253.453125 C 263.941406 253.007812 262.042969 253.007812 260.25 253.453125 C 259.804688 253.566406 259.382812 253.480469 259.050781 253.203125 C 258.683594 252.921875 258.488281 252.53125 258.488281 252.082031 L 258.519531 229.542969 C 258.519531 227.082031 260.53125 225.066406 262.992188 225.066406 Z M 262.992188 257.3125 C 266.851562 257.3125 270.011719 260.472656 270.011719 264.359375 C 269.984375 268.21875 266.851562 271.378906 262.964844 271.378906 C 259.078125 271.378906 255.945312 268.21875 255.945312 264.332031 C 255.945312 260.472656 259.105469 257.3125 262.992188 257.3125 Z M 312.296875 191.980469 L 308.832031 196.261719 C 308.578125 196.566406 308.46875 196.933594 308.523438 197.351562 C 308.578125 197.742188 308.773438 198.050781 309.109375 198.300781 C 310.84375 199.5625 312.550781 200.875 314.199219 202.273438 C 314.507812 202.523438 314.84375 202.636719 315.234375 202.582031 C 315.625 202.554688 315.960938 202.386719 316.214844 202.078125 L 319.597656 197.882812 L 325.695312 202.832031 C 327.09375 203.953125 329.136719 203.753906 330.253906 202.355469 L 332.015625 200.203125 C 333.132812 198.804688 332.9375 196.765625 331.539062 195.617188 L 312.074219 179.816406 C 310.675781 178.695312 308.605469 178.921875 307.488281 180.292969 L 305.753906 182.445312 C 304.609375 183.84375 304.832031 185.914062 306.230469 187.03125 Z M 213.742188 191.898438 L 217.238281 196.203125 C 217.488281 196.511719 217.574219 196.875 217.519531 197.265625 C 217.460938 197.660156 217.265625 197.996094 216.957031 198.21875 C 215.195312 199.476562 213.492188 200.792969 211.839844 202.191406 C 211.53125 202.441406 211.195312 202.554688 210.804688 202.496094 C 210.414062 202.46875 210.078125 202.300781 209.855469 201.992188 L 206.441406 197.796875 L 200.34375 202.722656 C 198.949219 203.867188 196.90625 203.644531 195.785156 202.246094 L 194.023438 200.09375 C 192.90625 198.695312 193.128906 196.652344 194.5 195.503906 L 214.023438 179.757812 C 215.421875 178.613281 217.460938 178.835938 218.582031 180.234375 L 220.34375 182.386719 C 221.460938 183.785156 221.238281 185.828125 219.839844 186.949219 Z M 271.132812 189.578125 C 308.074219 193.660156 336.824219 224.984375 336.769531 262.992188 C 336.742188 303.765625 303.683594 336.796875 262.910156 336.738281 C 222.160156 336.710938 189.128906 303.65625 189.160156 262.878906 C 189.1875 224.871094 217.964844 193.574219 254.9375 189.578125 L 254.9375 180.792969 L 241.402344 180.765625 C 238.296875 180.765625 235.78125 178.25 235.78125 175.171875 L 235.78125 170.363281 C 235.808594 167.285156 238.324219 164.742188 241.402344 164.769531 L 284.695312 164.796875 C 287.769531 164.796875 290.316406 167.3125 290.289062 170.417969 L 290.289062 175.199219 C 290.289062 178.277344 287.769531 180.824219 284.695312 180.792969 L 271.132812 180.792969 Z M 119.574219 154.253906 L 120.441406 153.386719 C 123.210938 150.617188 127.742188 150.617188 130.511719 153.386719 L 151.402344 174.25 C 153.25 176.125 156.269531 176.125 158.113281 174.25 L 198.191406 134.171875 C 200.960938 131.402344 205.492188 131.402344 208.261719 134.171875 L 209.15625 135.039062 C 211.925781 137.835938 211.925781 142.339844 209.15625 145.109375 L 159.792969 194.46875 C 157.023438 197.265625 152.492188 197.265625 149.726562 194.46875 L 119.574219 164.351562 C 116.808594 161.554688 116.808594 157.050781 119.574219 154.253906 Z M 119.574219 154.253906 " fill-opacity="1" fill-rule="evenodd"/></g></svg>