<svg xmlns="http://www.w3.org/2000/svg" xmlns:xlink="http://www.w3.org/1999/xlink" width="500" zoomAndPan="magnify" viewBox="0 0 375.12 383.03998" height="500" preserveAspectRatio="xMidYMid meet" version="1.0"><defs><clipPath id="377d927f36"><path d="M 37.4375 89 L 263 89 L 263 327 L 37.4375 327 Z M 37.4375 89 " clip-rule="nonzero"/></clipPath></defs><g clip-path="url(#377d927f36)"><path fill="#7cebff" d="M 248.542969 191.894531 C 246.03125 191.894531 243.523438 191.894531 241.328125 191.578125 L 241.328125 229.535156 L 58.453125 229.535156 L 58.453125 111.589844 C 58.453125 110.964844 59.082031 110.335938 59.707031 110.335938 L 168.554688 110.335938 C 168.554688 103.121094 169.808594 95.90625 171.691406 89.320312 L 54.0625 89.320312 C 44.964844 89.320312 37.4375 96.847656 37.4375 105.945312 L 37.4375 261.84375 C 37.4375 270.941406 44.964844 278.46875 54.0625 278.46875 L 124.011719 278.46875 L 124.011719 303.5625 L 98.605469 303.5625 C 92.332031 303.5625 87.3125 308.582031 87.3125 314.855469 C 87.3125 321.128906 92.332031 326.148438 98.605469 326.148438 L 200.863281 326.148438 C 207.136719 326.148438 212.15625 321.128906 212.15625 314.855469 C 212.15625 308.582031 207.136719 303.5625 200.863281 303.5625 L 175.457031 303.5625 L 175.457031 278.46875 L 245.40625 278.46875 C 254.503906 278.46875 262.03125 270.941406 262.03125 261.84375 L 262.03125 190.636719 C 257.953125 191.578125 253.246094 191.894531 248.542969 191.894531 Z M 65.039062 261.53125 C 60.960938 261.53125 57.824219 258.394531 57.824219 254.316406 C 57.824219 250.238281 60.960938 247.101562 65.039062 247.101562 C 69.117188 247.101562 72.253906 250.238281 72.253906 254.316406 C 72.253906 258.394531 68.804688 261.53125 65.039062 261.53125 Z M 86.683594 261.53125 C 82.605469 261.53125 79.46875 258.394531 79.46875 254.316406 C 79.46875 250.238281 82.605469 247.101562 86.683594 247.101562 C 90.761719 247.101562 93.898438 250.238281 93.898438 254.316406 C 93.898438 258.394531 90.761719 261.53125 86.683594 261.53125 Z M 108.328125 261.53125 C 104.25 261.53125 101.113281 258.394531 101.113281 254.316406 C 101.113281 250.238281 104.25 247.101562 108.328125 247.101562 C 112.40625 247.101562 115.542969 250.238281 115.542969 254.316406 C 115.542969 258.394531 112.40625 261.53125 108.328125 261.53125 Z M 108.328125 261.53125 " fill-opacity="1" fill-rule="nonzero"/></g><path fill="#7cebff" d="M 331.355469 175.894531 L 300.613281 147.664062 C 307.828125 137.3125 312.21875 124.765625 312.21875 111.277344 C 312.21875 76.144531 283.675781 47.914062 248.855469 47.914062 C 214.039062 47.914062 185.492188 76.460938 185.492188 111.277344 C 185.492188 146.410156 214.039062 174.640625 248.855469 174.640625 C 262.34375 174.640625 274.890625 170.25 285.242188 163.035156 L 313.472656 193.773438 C 313.789062 194.089844 314.101562 194.402344 314.101562 194.402344 C 319.433594 199.109375 327.277344 198.792969 332.292969 193.773438 C 336.6875 188.757812 336.371094 180.914062 331.355469 175.894531 Z M 202.429688 111.589844 C 202.429688 85.871094 223.132812 65.167969 248.855469 65.167969 C 274.578125 65.167969 295.28125 85.871094 295.28125 111.589844 C 295.28125 137.3125 274.265625 158.015625 248.542969 158.015625 C 222.820312 158.015625 202.429688 137 202.429688 111.589844 Z M 202.429688 111.589844 " fill-opacity="1" fill-rule="nonzero"/><path fill="#7cebff" d="M 248.542969 79.910156 C 230.976562 79.910156 216.859375 94.023438 216.859375 111.589844 C 216.859375 116.296875 220.625 120.0625 225.332031 120.0625 C 230.035156 120.0625 233.800781 116.296875 233.800781 111.589844 C 233.800781 103.4375 240.386719 96.847656 248.542969 96.847656 C 253.246094 96.847656 257.011719 93.085938 257.011719 88.378906 C 257.324219 83.675781 253.246094 79.910156 248.542969 79.910156 Z M 248.542969 79.910156 " fill-opacity="1" fill-rule="nonzero"/><path fill="#7cebff" d="M 145.65625 209.144531 C 142.519531 209.144531 139.382812 207.261719 138.128906 204.125 L 118.992188 158.957031 L 113.347656 172.757812 C 112.09375 175.894531 109.269531 177.777344 105.816406 177.777344 L 83.546875 177.777344 C 79.15625 177.777344 75.390625 174.011719 75.390625 169.621094 C 75.390625 165.230469 79.15625 161.464844 83.546875 161.464844 L 100.484375 161.464844 L 111.777344 135.117188 C 113.03125 132.292969 115.855469 130.726562 119.304688 130.726562 C 122.757812 130.726562 125.582031 132.609375 126.835938 135.117188 L 145.65625 180.289062 L 151.300781 166.484375 C 152.554688 163.347656 155.378906 161.464844 158.832031 161.464844 L 180.789062 161.464844 C 185.179688 161.464844 188.941406 165.230469 188.941406 169.621094 C 188.941406 174.011719 185.179688 177.777344 180.789062 177.777344 L 164.476562 177.777344 L 153.183594 204.125 C 151.929688 207.261719 149.105469 209.144531 145.65625 209.144531 Z M 145.65625 209.144531 " fill-opacity="1" fill-rule="nonzero"/></svg>