<svg xmlns="http://www.w3.org/2000/svg" xmlns:xlink="http://www.w3.org/1999/xlink" width="500" zoomAndPan="magnify" viewBox="0 0 375.12 383.03998" height="500" preserveAspectRatio="xMidYMid meet" version="1.0"><defs><clipPath id="38ec6fdb13"><path d="M 37.4375 157 L 151 157 L 151 311 L 37.4375 311 Z M 37.4375 157 " clip-rule="nonzero"/></clipPath><clipPath id="d35b92c186"><path d="M 62 37.40625 L 216 37.40625 L 216 151 L 62 151 Z M 62 37.40625 " clip-rule="nonzero"/></clipPath><clipPath id="40a5d7432e"><path d="M 157 222 L 311 222 L 311 336.65625 L 157 336.65625 Z M 157 222 " clip-rule="nonzero"/></clipPath><clipPath id="6d5bd95e8c"><path d="M 222 62 L 336.6875 62 L 336.6875 216 L 222 216 Z M 222 62 " clip-rule="nonzero"/></clipPath></defs><g clip-path="url(#38ec6fdb13)"><path fill="#7cebff" d="M 39.890625 202.59375 L 50.703125 202.59375 C 56.082031 249.125 85.535156 290.382812 128.097656 310.597656 C 128.464844 310.753906 128.832031 310.855469 129.246094 310.855469 C 129.769531 310.855469 130.292969 310.699219 130.761719 310.335938 L 149.667969 296.859375 C 150.453125 296.285156 150.871094 295.347656 150.710938 294.355469 C 150.609375 293.414062 149.929688 292.628906 148.988281 292.265625 C 110.082031 278.371094 81.617188 243.382812 75.875 202.59375 L 85.640625 202.59375 C 86.582031 202.59375 87.46875 202.070312 87.9375 201.289062 C 88.40625 200.453125 88.40625 199.460938 87.9375 198.675781 L 65.0625 159.089844 C 64.59375 158.253906 63.757812 157.785156 62.816406 157.785156 C 61.878906 157.785156 61.042969 158.253906 60.570312 159.089844 L 37.644531 198.675781 C 37.175781 199.460938 37.175781 200.453125 37.644531 201.289062 C 38.113281 202.070312 39.003906 202.59375 39.890625 202.59375 Z M 39.890625 202.59375 " fill-opacity="1" fill-rule="nonzero"/></g><g clip-path="url(#d35b92c186)"><path fill="#7cebff" d="M 76.710938 149.636719 C 77.179688 150.316406 78.015625 150.734375 78.851562 150.734375 C 78.957031 150.734375 79.058594 150.683594 79.214844 150.683594 C 80.15625 150.527344 80.941406 149.898438 81.304688 148.960938 C 95.195312 110.050781 130.242188 81.589844 170.976562 75.84375 L 170.976562 85.609375 C 170.976562 86.550781 171.5 87.4375 172.28125 87.90625 C 173.117188 88.324219 174.109375 88.324219 174.894531 87.90625 L 214.480469 65.035156 C 215.316406 64.5625 215.785156 63.726562 215.785156 62.789062 C 215.785156 61.847656 215.316406 61.011719 214.480469 60.542969 L 174.894531 37.613281 C 174.109375 37.144531 173.117188 37.144531 172.28125 37.613281 C 171.5 38.085938 170.976562 38.921875 170.976562 39.859375 L 170.976562 50.671875 C 124.390625 56.050781 83.183594 85.503906 62.972656 128.070312 C 62.816406 128.433594 62.714844 128.851562 62.714844 129.269531 C 62.714844 129.792969 62.871094 130.316406 63.234375 130.785156 Z M 76.710938 149.636719 " fill-opacity="1" fill-rule="nonzero"/></g><g clip-path="url(#40a5d7432e)"><path fill="#7cebff" d="M 201.320312 285.632812 C 200.484375 285.214844 199.492188 285.214844 198.707031 285.632812 L 159.121094 308.507812 C 158.285156 308.976562 157.816406 309.8125 157.816406 310.753906 C 157.816406 311.691406 158.285156 312.527344 159.121094 313 L 198.707031 335.925781 C 199.074219 336.132812 199.542969 336.289062 200.011719 336.289062 C 200.429688 336.289062 200.902344 336.132812 201.320312 335.925781 C 202.101562 335.453125 202.625 334.621094 202.625 333.679688 L 202.625 322.867188 C 249.210938 317.488281 290.414062 288.035156 310.625 245.472656 C 310.78125 245.105469 310.886719 244.6875 310.886719 244.269531 C 310.886719 243.746094 310.730469 243.226562 310.363281 242.753906 L 296.890625 223.902344 C 296.316406 223.117188 295.375 222.699219 294.382812 222.859375 C 293.445312 223.015625 292.660156 223.640625 292.292969 224.582031 C 278.402344 263.488281 243.414062 291.953125 202.625 297.695312 L 202.625 287.929688 C 202.625 286.988281 202.101562 286.101562 201.320312 285.632812 Z M 201.320312 285.632812 " fill-opacity="1" fill-rule="nonzero"/></g><g clip-path="url(#6d5bd95e8c)"><path fill="#7cebff" d="M 224.609375 81.273438 C 263.519531 95.167969 291.980469 130.15625 297.726562 170.945312 L 287.960938 170.945312 C 287.019531 170.945312 286.132812 171.46875 285.664062 172.25 C 285.191406 173.085938 285.191406 174.078125 285.664062 174.863281 L 308.535156 214.449219 C 309.007812 215.285156 309.84375 215.753906 310.78125 215.753906 C 311.722656 215.753906 312.558594 215.285156 313.027344 214.449219 L 335.957031 174.863281 C 336.425781 174.078125 336.425781 173.085938 335.957031 172.25 C 335.484375 171.46875 334.597656 170.945312 333.710938 170.945312 L 322.898438 170.945312 C 317.519531 124.414062 288.066406 83.15625 245.5 62.945312 C 244.664062 62.527344 243.570312 62.632812 242.785156 63.207031 L 223.933594 76.679688 C 223.148438 77.253906 222.730469 78.195312 222.886719 79.1875 C 222.992188 80.125 223.671875 80.910156 224.609375 81.273438 Z M 224.609375 81.273438 " fill-opacity="1" fill-rule="nonzero"/></g><path fill="#7cebff" d="M 209.570312 99.554688 C 209.414062 98.25 208.265625 97.203125 206.960938 97.203125 L 166.640625 97.203125 C 165.335938 97.203125 164.1875 98.25 164.03125 99.554688 L 162.304688 114.910156 C 159.328125 115.953125 156.300781 117.207031 153.324219 118.667969 L 141.207031 109.007812 C 140.164062 108.171875 138.699219 108.277344 137.761719 109.214844 L 109.246094 137.730469 C 108.304688 138.671875 108.203125 140.132812 109.035156 141.175781 L 118.699219 153.292969 C 117.234375 156.269531 115.984375 159.300781 114.9375 162.277344 L 99.585938 164 C 98.277344 164.15625 97.234375 165.304688 97.234375 166.609375 L 97.234375 206.929688 C 97.234375 208.234375 98.277344 209.382812 99.585938 209.539062 L 114.9375 211.265625 C 115.984375 214.242188 117.234375 217.269531 118.699219 220.246094 L 109.035156 232.363281 C 108.203125 233.40625 108.304688 234.871094 109.246094 235.808594 L 137.761719 264.324219 C 138.648438 265.265625 140.164062 265.367188 141.207031 264.535156 L 153.324219 254.871094 C 156.300781 256.335938 159.328125 257.585938 162.304688 258.632812 L 164.03125 273.984375 C 164.1875 275.292969 165.335938 276.335938 166.640625 276.335938 L 206.960938 276.335938 C 208.265625 276.335938 209.414062 275.292969 209.570312 273.984375 L 211.292969 258.632812 C 214.269531 257.585938 217.300781 256.335938 220.277344 254.871094 L 232.394531 264.535156 C 233.4375 265.367188 234.953125 265.265625 235.839844 264.324219 L 264.355469 235.808594 C 265.292969 234.871094 265.398438 233.40625 264.5625 232.363281 L 254.902344 220.246094 C 256.363281 217.269531 257.617188 214.242188 258.660156 211.265625 L 274.015625 209.539062 C 275.320312 209.382812 276.367188 208.234375 276.367188 206.929688 L 276.367188 166.609375 C 276.367188 165.304688 275.320312 164.15625 274.015625 164 L 258.660156 162.277344 C 257.617188 159.300781 256.363281 156.269531 254.902344 153.292969 L 264.5625 141.175781 C 265.398438 140.132812 265.292969 138.671875 264.355469 137.730469 L 235.839844 109.214844 C 234.898438 108.277344 233.4375 108.171875 232.394531 109.007812 L 220.277344 118.667969 C 217.300781 117.207031 214.269531 115.953125 211.292969 114.910156 Z M 222.207031 123.785156 L 233.804688 114.542969 L 259.027344 139.765625 L 249.785156 151.363281 C 249.105469 152.195312 249 153.292969 249.46875 154.179688 C 251.453125 157.941406 253.023438 161.753906 254.222656 165.460938 C 254.535156 166.453125 255.371094 167.1875 256.417969 167.289062 L 271.144531 168.960938 L 271.144531 204.578125 L 256.417969 206.25 C 255.371094 206.355469 254.535156 207.085938 254.222656 208.078125 C 253.023438 211.785156 251.453125 215.597656 249.46875 219.359375 C 249 220.246094 249.105469 221.34375 249.785156 222.179688 L 259.027344 233.773438 L 233.804688 258.996094 L 222.207031 249.753906 C 221.375 249.074219 220.277344 248.96875 219.386719 249.441406 C 215.628906 251.425781 211.816406 252.992188 208.109375 254.191406 C 207.117188 254.507812 206.382812 255.339844 206.28125 256.386719 L 204.609375 271.113281 L 168.992188 271.113281 L 167.320312 256.386719 C 167.214844 255.339844 166.484375 254.507812 165.492188 254.191406 C 161.785156 252.992188 157.972656 251.425781 154.210938 249.441406 C 153.324219 248.96875 152.175781 249.074219 151.390625 249.753906 L 139.796875 258.996094 L 114.574219 233.773438 L 123.816406 222.179688 C 124.496094 221.34375 124.601562 220.246094 124.128906 219.359375 C 122.144531 215.597656 120.578125 211.785156 119.378906 208.078125 C 119.0625 207.085938 118.230469 206.355469 117.183594 206.25 L 102.457031 204.578125 L 102.457031 168.960938 L 117.183594 167.289062 C 118.230469 167.1875 119.0625 166.453125 119.378906 165.460938 C 120.578125 161.753906 122.144531 157.941406 124.128906 154.179688 C 124.601562 153.292969 124.496094 152.195312 123.816406 151.363281 L 114.574219 139.765625 L 139.796875 114.542969 L 151.390625 123.785156 C 152.175781 124.464844 153.324219 124.570312 154.210938 124.101562 C 157.972656 122.117188 161.785156 120.546875 165.492188 119.347656 C 166.484375 119.035156 167.214844 118.199219 167.320312 117.152344 L 168.992188 102.425781 L 204.609375 102.425781 L 206.28125 117.152344 C 206.382812 118.199219 207.117188 119.035156 208.109375 119.347656 C 211.816406 120.546875 215.628906 122.117188 219.386719 124.101562 C 220.277344 124.570312 221.375 124.464844 222.207031 123.785156 Z M 222.207031 123.785156 " fill-opacity="1" fill-rule="nonzero"/><path fill="#7cebff" d="M 186.800781 137.523438 C 159.644531 137.523438 137.550781 159.613281 137.550781 186.769531 C 137.550781 213.925781 159.644531 236.019531 186.800781 236.019531 C 213.957031 236.019531 236.046875 213.925781 236.046875 186.769531 C 236.046875 159.613281 213.957031 137.523438 186.800781 137.523438 Z M 186.800781 230.796875 C 162.515625 230.796875 142.773438 211.054688 142.773438 186.769531 C 142.773438 162.484375 162.515625 142.746094 186.800781 142.746094 C 211.085938 142.746094 230.824219 162.484375 230.824219 186.769531 C 230.824219 211.054688 211.085938 230.796875 186.800781 230.796875 Z M 186.800781 230.796875 " fill-opacity="1" fill-rule="nonzero"/><path fill="#7cebff" d="M 184.1875 125.785156 C 184.1875 127.226562 185.359375 128.398438 186.800781 128.398438 C 214.269531 128.398438 237.683594 147.078125 243.734375 173.828125 C 244.007812 175.039062 245.089844 175.867188 246.28125 175.867188 C 246.46875 175.867188 246.660156 175.84375 246.855469 175.804688 C 248.265625 175.484375 249.140625 174.085938 248.824219 172.679688 C 242.226562 143.53125 216.726562 123.175781 186.792969 123.175781 C 185.351562 123.175781 184.183594 124.34375 184.183594 125.785156 Z M 184.1875 125.785156 " fill-opacity="1" fill-rule="nonzero"/><path fill="#7cebff" d="M 212.859375 177.472656 L 179.75 158.359375 C 176.40625 156.425781 172.386719 156.425781 168.992188 158.359375 C 165.648438 160.292969 163.664062 163.792969 163.664062 167.65625 L 163.664062 205.882812 C 163.664062 209.75 165.648438 213.25 168.992188 215.179688 C 170.714844 216.171875 172.542969 216.644531 174.371094 216.644531 C 176.199219 216.644531 178.078125 216.121094 179.75 215.179688 L 212.859375 196.066406 C 216.203125 194.132812 218.238281 190.636719 218.238281 186.769531 C 218.238281 182.90625 216.203125 179.40625 212.859375 177.472656 Z M 212.859375 177.472656 " fill-opacity="1" fill-rule="nonzero"/><path fill="#7cebff" d="M 246.332031 184.367188 C 246.019531 184.472656 245.710938 184.679688 245.445312 184.941406 C 244.972656 185.414062 244.710938 186.089844 244.710938 186.769531 C 244.710938 187.136719 244.765625 187.449219 244.921875 187.761719 C 245.027344 188.074219 245.234375 188.390625 245.445312 188.597656 C 245.710938 188.859375 246.019531 189.066406 246.332031 189.171875 C 246.648438 189.328125 246.957031 189.382812 247.324219 189.382812 C 247.636719 189.382812 248.003906 189.328125 248.316406 189.171875 C 248.628906 189.066406 248.9375 188.859375 249.144531 188.597656 C 249.414062 188.390625 249.5625 188.074219 249.722656 187.761719 C 249.824219 187.449219 249.929688 187.136719 249.929688 186.769531 C 249.929688 186.089844 249.617188 185.414062 249.144531 184.941406 C 248.9375 184.679688 248.625 184.472656 248.316406 184.367188 C 247.6875 184.105469 246.953125 184.105469 246.328125 184.367188 Z M 246.332031 184.367188 " fill-opacity="1" fill-rule="nonzero"/></svg>