<svg xmlns="http://www.w3.org/2000/svg" xmlns:xlink="http://www.w3.org/1999/xlink" width="500" zoomAndPan="magnify" viewBox="0 0 375.12 383.03998" height="500" preserveAspectRatio="xMidYMid meet" version="1.0"><path fill="#7cebff" d="M 284.074219 235.296875 C 281.316406 235.292969 278.574219 235.527344 275.855469 236 C 273.132812 236.46875 270.476562 237.167969 267.875 238.097656 C 265.277344 239.027344 262.777344 240.171875 260.375 241.535156 C 257.972656 242.894531 255.703125 244.453125 253.570312 246.207031 L 235.132812 227.816406 C 236.34375 226.414062 237.488281 224.957031 238.570312 223.453125 C 239.652344 221.949219 240.664062 220.398438 241.605469 218.800781 C 242.546875 217.207031 243.417969 215.574219 244.214844 213.902344 C 245.011719 212.226562 245.734375 210.523438 246.378906 208.785156 C 247.023438 207.050781 247.589844 205.285156 248.078125 203.5 C 248.566406 201.710938 248.976562 199.90625 249.304688 198.082031 C 249.632812 196.257812 249.878906 194.425781 250.042969 192.578125 C 250.207031 190.734375 250.289062 188.882812 250.289062 187.03125 C 250.289062 185.179688 250.207031 183.328125 250.042969 181.484375 C 249.878906 179.636719 249.632812 177.804688 249.304688 175.980469 C 248.976562 174.15625 248.566406 172.351562 248.078125 170.5625 C 247.589844 168.777344 247.023438 167.011719 246.378906 165.277344 C 245.734375 163.539062 245.011719 161.835938 244.214844 160.160156 C 243.417969 158.488281 242.546875 156.855469 241.605469 155.261719 C 240.664062 153.664062 239.652344 152.113281 238.570312 150.609375 C 237.488281 149.105469 236.34375 147.648438 235.132812 146.246094 L 250.773438 130.609375 C 253.5 132.738281 256.460938 134.464844 259.65625 135.792969 C 262.851562 137.121094 266.164062 137.996094 269.597656 138.425781 L 269.597656 149.09375 C 268.84375 149.289062 268.109375 149.527344 267.386719 149.808594 C 266.664062 150.089844 265.960938 150.417969 265.277344 150.785156 C 264.59375 151.152344 263.9375 151.558594 263.304688 152.003906 C 262.667969 152.453125 262.0625 152.933594 261.488281 153.453125 C 260.914062 153.972656 260.371094 154.527344 259.859375 155.113281 C 259.351562 155.695312 258.878906 156.308594 258.445312 156.953125 C 258.007812 157.59375 257.613281 158.257812 257.257812 158.949219 C 256.902344 159.636719 256.589844 160.347656 256.320312 161.074219 C 256.050781 161.800781 255.828125 162.542969 255.644531 163.296875 C 255.464844 164.050781 255.332031 164.8125 255.242188 165.582031 C 255.152344 166.355469 255.113281 167.128906 255.117188 167.902344 C 255.121094 168.679688 255.171875 169.449219 255.269531 170.21875 C 255.367188 170.988281 255.511719 171.75 255.699219 172.503906 C 255.890625 173.253906 256.125 173.992188 256.402344 174.714844 C 256.679688 175.441406 257 176.144531 257.363281 176.832031 C 257.726562 177.515625 258.132812 178.175781 258.574219 178.8125 C 259.015625 179.449219 259.496094 180.058594 260.011719 180.636719 C 260.527344 181.214844 261.078125 181.761719 261.660156 182.273438 C 262.242188 182.785156 262.851562 183.261719 263.492188 183.703125 C 264.132812 184.140625 264.792969 184.539062 265.480469 184.898438 C 266.167969 185.257812 266.875 185.574219 267.601562 185.847656 C 268.328125 186.121094 269.066406 186.351562 269.820312 186.539062 C 270.574219 186.722656 271.335938 186.859375 272.105469 186.953125 C 272.875 187.046875 273.648438 187.09375 274.421875 187.09375 C 275.199219 187.09375 275.972656 187.046875 276.742188 186.953125 C 277.511719 186.859375 278.273438 186.722656 279.027344 186.539062 C 279.777344 186.351562 280.519531 186.121094 281.246094 185.847656 C 281.96875 185.574219 282.675781 185.257812 283.363281 184.898438 C 284.050781 184.539062 284.714844 184.140625 285.355469 183.703125 C 285.992188 183.261719 286.605469 182.785156 287.1875 182.273438 C 287.769531 181.761719 288.316406 181.214844 288.832031 180.636719 C 289.347656 180.058594 289.828125 179.449219 290.269531 178.8125 C 290.714844 178.175781 291.117188 177.515625 291.480469 176.832031 C 291.84375 176.144531 292.164062 175.441406 292.441406 174.714844 C 292.722656 173.992188 292.957031 173.253906 293.144531 172.503906 C 293.335938 171.75 293.476562 170.988281 293.574219 170.21875 C 293.671875 169.449219 293.722656 168.679688 293.730469 167.902344 C 293.734375 167.128906 293.691406 166.355469 293.601562 165.582031 C 293.515625 164.8125 293.378906 164.050781 293.199219 163.296875 C 293.019531 162.542969 292.792969 161.800781 292.523438 161.074219 C 292.253906 160.347656 291.941406 159.636719 291.585938 158.949219 C 291.230469 158.257812 290.835938 157.59375 290.402344 156.953125 C 289.964844 156.308594 289.496094 155.695312 288.984375 155.113281 C 288.476562 154.527344 287.933594 153.972656 287.359375 153.453125 C 286.78125 152.933594 286.175781 152.453125 285.542969 152.003906 C 284.910156 151.558594 284.25 151.152344 283.566406 150.785156 C 282.882812 150.417969 282.179688 150.089844 281.460938 149.808594 C 280.738281 149.527344 280 149.289062 279.25 149.09375 L 279.25 138.425781 C 280.4375 138.277344 281.617188 138.074219 282.785156 137.816406 C 283.957031 137.558594 285.113281 137.246094 286.253906 136.882812 C 287.394531 136.515625 288.515625 136.097656 289.617188 135.628906 C 290.71875 135.15625 291.796875 134.636719 292.847656 134.066406 C 293.902344 133.496094 294.925781 132.878906 295.921875 132.214844 C 296.917969 131.546875 297.878906 130.835938 298.808594 130.082031 C 299.738281 129.328125 300.632812 128.53125 301.488281 127.691406 C 302.34375 126.851562 303.160156 125.976562 303.933594 125.0625 C 304.707031 124.148438 305.4375 123.199219 306.121094 122.21875 C 306.808594 121.234375 307.445312 120.222656 308.039062 119.183594 C 308.628906 118.140625 309.171875 117.074219 309.664062 115.980469 C 310.15625 114.890625 310.597656 113.777344 310.984375 112.644531 C 311.375 111.511719 311.710938 110.363281 311.992188 109.199219 C 312.273438 108.035156 312.5 106.859375 312.671875 105.675781 C 312.84375 104.488281 312.960938 103.296875 313.023438 102.101562 C 313.085938 100.90625 313.09375 99.710938 313.042969 98.511719 C 312.992188 97.316406 312.886719 96.125 312.726562 94.9375 C 312.566406 93.75 312.351562 92.574219 312.082031 91.40625 C 311.8125 90.238281 311.488281 89.085938 311.109375 87.949219 C 310.734375 86.8125 310.304688 85.695312 309.824219 84.601562 C 309.339844 83.503906 308.8125 82.429688 308.230469 81.382812 C 307.648438 80.335938 307.019531 79.316406 306.34375 78.328125 C 305.667969 77.339844 304.949219 76.382812 304.183594 75.460938 C 303.417969 74.539062 302.613281 73.65625 301.765625 72.808594 C 300.917969 71.960938 300.035156 71.15625 299.113281 70.390625 C 298.191406 69.625 297.234375 68.90625 296.246094 68.230469 C 295.257812 67.554688 294.238281 66.925781 293.191406 66.34375 C 292.144531 65.765625 291.070312 65.234375 289.976562 64.753906 C 288.878906 64.269531 287.761719 63.839844 286.625 63.464844 C 285.488281 63.085938 284.335938 62.761719 283.167969 62.492188 C 282 62.222656 280.824219 62.007812 279.636719 61.847656 C 278.449219 61.6875 277.257812 61.582031 276.0625 61.53125 C 274.867188 61.484375 273.667969 61.488281 272.472656 61.550781 C 271.277344 61.613281 270.085938 61.730469 268.898438 61.902344 C 267.714844 62.074219 266.539062 62.300781 265.375 62.582031 C 264.210938 62.867188 263.0625 63.199219 261.929688 63.589844 C 260.796875 63.976562 259.683594 64.417969 258.59375 64.910156 C 257.5 65.402344 256.433594 65.945312 255.394531 66.539062 C 254.351562 67.128906 253.339844 67.765625 252.355469 68.453125 C 251.375 69.140625 250.425781 69.867188 249.511719 70.644531 C 248.597656 71.417969 247.722656 72.230469 246.882812 73.085938 C 246.046875 73.941406 245.25 74.835938 244.492188 75.765625 C 243.738281 76.695312 243.027344 77.65625 242.363281 78.652344 C 241.695312 79.648438 241.078125 80.671875 240.507812 81.726562 C 239.9375 82.78125 239.417969 83.859375 238.949219 84.960938 C 238.476562 86.0625 238.058594 87.183594 237.695312 88.324219 C 237.328125 89.464844 237.015625 90.617188 236.757812 91.789062 C 236.5 92.957031 236.296875 94.136719 236.148438 95.324219 L 225.480469 95.324219 C 225.289062 94.574219 225.050781 93.839844 224.765625 93.117188 C 224.484375 92.394531 224.160156 91.691406 223.792969 91.007812 C 223.425781 90.324219 223.015625 89.667969 222.570312 89.03125 C 222.125 88.398438 221.640625 87.792969 221.121094 87.21875 C 220.601562 86.640625 220.046875 86.097656 219.464844 85.589844 C 218.878906 85.082031 218.265625 84.609375 217.625 84.171875 C 216.980469 83.738281 216.316406 83.34375 215.625 82.988281 C 214.9375 82.632812 214.226562 82.320312 213.5 82.050781 C 212.773438 81.78125 212.03125 81.554688 211.277344 81.375 C 210.523438 81.195312 209.761719 81.058594 208.992188 80.972656 C 208.222656 80.882812 207.449219 80.839844 206.671875 80.847656 C 205.898438 80.851562 205.125 80.902344 204.355469 81 C 203.585938 81.097656 202.824219 81.242188 202.074219 81.429688 C 201.320312 81.621094 200.582031 81.855469 199.859375 82.132812 C 199.136719 82.410156 198.429688 82.730469 197.746094 83.09375 C 197.058594 83.457031 196.398438 83.859375 195.761719 84.304688 C 195.125 84.746094 194.519531 85.226562 193.9375 85.742188 C 193.359375 86.257812 192.8125 86.808594 192.300781 87.390625 C 191.789062 87.972656 191.3125 88.582031 190.875 89.222656 C 190.433594 89.859375 190.035156 90.523438 189.675781 91.210938 C 189.316406 91.898438 189 92.605469 188.726562 93.332031 C 188.453125 94.054688 188.222656 94.796875 188.039062 95.550781 C 187.851562 96.300781 187.714844 97.0625 187.621094 97.832031 C 187.527344 98.605469 187.480469 99.375 187.480469 100.152344 C 187.480469 100.929688 187.527344 101.699219 187.621094 102.46875 C 187.714844 103.242188 187.851562 104.003906 188.039062 104.753906 C 188.222656 105.507812 188.453125 106.246094 188.726562 106.972656 C 189 107.699219 189.316406 108.40625 189.675781 109.09375 C 190.035156 109.78125 190.433594 110.445312 190.875 111.082031 C 191.3125 111.722656 191.789062 112.332031 192.300781 112.914062 C 192.8125 113.496094 193.359375 114.046875 193.9375 114.5625 C 194.519531 115.078125 195.125 115.558594 195.761719 116 C 196.398438 116.445312 197.058594 116.847656 197.746094 117.210938 C 198.429688 117.574219 199.136719 117.894531 199.859375 118.171875 C 200.582031 118.449219 201.320312 118.683594 202.074219 118.875 C 202.824219 119.0625 203.585938 119.207031 204.355469 119.304688 C 205.125 119.402344 205.898438 119.453125 206.671875 119.457031 C 207.449219 119.464844 208.222656 119.421875 208.992188 119.332031 C 209.761719 119.242188 210.523438 119.109375 211.277344 118.929688 C 212.03125 118.75 212.773438 118.523438 213.5 118.253906 C 214.226562 117.984375 214.9375 117.671875 215.625 117.316406 C 216.316406 116.960938 216.980469 116.566406 217.625 116.132812 C 218.265625 115.695312 218.878906 115.222656 219.464844 114.714844 C 220.046875 114.207031 220.601562 113.664062 221.121094 113.085938 C 221.640625 112.511719 222.125 111.90625 222.570312 111.273438 C 223.015625 110.636719 223.425781 109.980469 223.792969 109.296875 C 224.160156 108.613281 224.484375 107.910156 224.765625 107.1875 C 225.050781 106.464844 225.289062 105.730469 225.480469 104.980469 L 236.148438 104.980469 C 236.578125 108.410156 237.457031 111.726562 238.78125 114.921875 C 240.109375 118.113281 241.839844 121.074219 243.96875 123.800781 L 228.328125 139.441406 C 226.925781 138.230469 225.472656 137.085938 223.964844 136.003906 C 222.460938 134.925781 220.910156 133.914062 219.316406 132.96875 C 217.71875 132.027344 216.085938 131.15625 214.414062 130.359375 C 212.742188 129.5625 211.035156 128.84375 209.296875 128.195312 C 207.5625 127.550781 205.800781 126.984375 204.011719 126.496094 C 202.226562 126.007812 200.417969 125.597656 198.597656 125.269531 C 196.773438 124.941406 194.9375 124.695312 193.089844 124.53125 C 191.246094 124.367188 189.398438 124.285156 187.542969 124.285156 C 185.691406 124.285156 183.839844 124.367188 181.996094 124.53125 C 180.152344 124.695312 178.316406 124.941406 176.492188 125.269531 C 174.667969 125.597656 172.863281 126.007812 171.074219 126.496094 C 169.289062 126.984375 167.527344 127.550781 165.789062 128.195312 C 164.050781 128.84375 162.347656 129.5625 160.675781 130.359375 C 159.003906 131.15625 157.367188 132.027344 155.773438 132.96875 C 154.175781 133.914062 152.628906 134.925781 151.121094 136.003906 C 149.617188 137.085938 148.164062 138.230469 146.757812 139.441406 L 128.371094 121.003906 C 129.015625 120.214844 129.632812 119.402344 130.226562 118.574219 C 130.820312 117.746094 131.386719 116.898438 131.929688 116.035156 C 132.46875 115.167969 132.980469 114.289062 133.464844 113.390625 C 133.949219 112.492188 134.402344 111.582031 134.828125 110.65625 C 135.257812 109.730469 135.652344 108.789062 136.019531 107.839844 C 136.386719 106.886719 136.722656 105.925781 137.027344 104.953125 C 137.335938 103.980469 137.609375 103 137.851562 102.007812 C 138.097656 101.019531 138.308594 100.023438 138.488281 99.019531 C 138.671875 98.015625 138.820312 97.007812 138.933594 95.992188 C 139.050781 94.980469 139.136719 93.964844 139.1875 92.945312 C 139.242188 91.929688 139.261719 90.910156 139.25 89.890625 C 139.234375 88.871094 139.191406 87.851562 139.113281 86.835938 C 139.039062 85.820312 138.929688 84.804688 138.789062 83.796875 C 138.648438 82.785156 138.472656 81.78125 138.269531 80.78125 C 138.066406 79.785156 137.828125 78.792969 137.5625 77.808594 C 137.292969 76.824219 136.996094 75.851562 136.664062 74.886719 C 136.335938 73.921875 135.976562 72.964844 135.585938 72.023438 C 135.199219 71.082031 134.777344 70.152344 134.328125 69.238281 C 133.882812 68.320312 133.402344 67.421875 132.898438 66.535156 C 132.390625 65.652344 131.859375 64.78125 131.296875 63.929688 C 130.738281 63.078125 130.152344 62.246094 129.539062 61.433594 C 128.921875 60.617188 128.285156 59.824219 127.621094 59.050781 C 126.957031 58.273438 126.269531 57.523438 125.558594 56.792969 C 124.847656 56.0625 124.113281 55.355469 123.355469 54.671875 C 122.601562 53.988281 121.824219 53.328125 121.023438 52.695312 C 120.226562 52.058594 119.410156 51.449219 118.574219 50.867188 C 117.734375 50.285156 116.882812 49.730469 116.011719 49.199219 C 115.136719 48.671875 114.25 48.171875 113.347656 47.699219 C 112.441406 47.226562 111.523438 46.785156 110.59375 46.371094 C 109.660156 45.957031 108.71875 45.570312 107.761719 45.214844 C 106.804688 44.863281 105.839844 44.539062 104.863281 44.246094 C 103.886719 43.953125 102.902344 43.691406 101.910156 43.460938 C 100.914062 43.226562 99.914062 43.03125 98.910156 42.863281 C 97.902344 42.695312 96.894531 42.558594 95.878906 42.457031 C 94.867188 42.351562 93.847656 42.28125 92.828125 42.242188 C 91.8125 42.203125 90.792969 42.195312 89.773438 42.222656 C 88.753906 42.246094 87.734375 42.304688 86.71875 42.394531 C 85.703125 42.484375 84.691406 42.609375 83.683594 42.761719 C 82.675781 42.917969 81.675781 43.101562 80.679688 43.320312 C 79.683594 43.539062 78.695312 43.789062 77.714844 44.066406 C 76.734375 44.347656 75.761719 44.660156 74.800781 45 C 73.84375 45.34375 72.894531 45.714844 71.957031 46.117188 C 71.019531 46.519531 70.097656 46.949219 69.1875 47.410156 C 68.277344 47.871094 67.382812 48.359375 66.503906 48.878906 C 65.625 49.394531 64.761719 49.9375 63.917969 50.511719 C 63.074219 51.082031 62.25 51.679688 61.441406 52.304688 C 60.636719 52.929688 59.851562 53.578125 59.085938 54.25 C 58.320312 54.925781 57.578125 55.621094 56.855469 56.34375 C 56.136719 57.066406 55.4375 57.808594 54.765625 58.574219 C 54.089844 59.339844 53.441406 60.125 52.816406 60.929688 C 52.191406 61.738281 51.59375 62.5625 51.023438 63.40625 C 50.453125 64.25 49.90625 65.113281 49.390625 65.992188 C 48.871094 66.871094 48.382812 67.761719 47.921875 68.671875 C 47.460938 69.582031 47.03125 70.507812 46.628906 71.445312 C 46.226562 72.378906 45.855469 73.328125 45.515625 74.289062 C 45.171875 75.25 44.859375 76.222656 44.582031 77.203125 C 44.300781 78.179688 44.050781 79.167969 43.832031 80.164062 C 43.617188 81.160156 43.429688 82.164062 43.273438 83.171875 C 43.121094 84.179688 43 85.191406 42.910156 86.207031 C 42.820312 87.222656 42.761719 88.242188 42.734375 89.257812 C 42.710938 90.277344 42.714844 91.296875 42.753906 92.316406 C 42.792969 93.335938 42.863281 94.351562 42.96875 95.367188 C 43.070312 96.382812 43.207031 97.390625 43.375 98.398438 C 43.542969 99.402344 43.742188 100.402344 43.972656 101.394531 C 44.203125 102.390625 44.464844 103.375 44.757812 104.351562 C 45.050781 105.328125 45.375 106.292969 45.730469 107.25 C 46.082031 108.207031 46.46875 109.148438 46.882812 110.082031 C 47.296875 111.011719 47.738281 111.929688 48.210938 112.832031 C 48.683594 113.738281 49.183594 114.625 49.714844 115.496094 C 50.242188 116.367188 50.796875 117.222656 51.378906 118.058594 C 51.964844 118.898438 52.570312 119.714844 53.207031 120.511719 C 53.839844 121.308594 54.5 122.085938 55.183594 122.84375 C 55.867188 123.601562 56.574219 124.332031 57.304688 125.046875 C 58.035156 125.757812 58.789062 126.445312 59.5625 127.109375 C 60.335938 127.773438 61.128906 128.410156 61.945312 129.023438 C 62.757812 129.636719 63.589844 130.226562 64.441406 130.785156 C 65.296875 131.347656 66.164062 131.878906 67.050781 132.386719 C 67.933594 132.890625 68.835938 133.367188 69.75 133.816406 C 70.667969 134.265625 71.59375 134.683594 72.539062 135.074219 C 73.480469 135.464844 74.433594 135.824219 75.398438 136.152344 C 76.363281 136.480469 77.335938 136.78125 78.320312 137.046875 C 79.304688 137.316406 80.296875 137.550781 81.296875 137.757812 C 82.292969 137.960938 83.296875 138.132812 84.308594 138.273438 C 85.320312 138.417969 86.332031 138.523438 87.347656 138.601562 C 88.363281 138.679688 89.382812 138.722656 90.402344 138.734375 C 91.421875 138.75 92.441406 138.726562 93.460938 138.675781 C 94.476562 138.625 95.492188 138.539062 96.507812 138.421875 C 97.519531 138.304688 98.527344 138.15625 99.53125 137.976562 C 100.535156 137.796875 101.53125 137.585938 102.523438 137.339844 C 103.511719 137.097656 104.492188 136.820312 105.464844 136.515625 C 106.4375 136.210938 107.402344 135.875 108.351562 135.507812 C 109.304688 135.140625 110.242188 134.742188 111.167969 134.316406 C 112.09375 133.890625 113.007812 133.4375 113.902344 132.953125 C 114.800781 132.46875 115.683594 131.957031 116.546875 131.414062 C 117.410156 130.875 118.257812 130.308594 119.085938 129.714844 C 119.917969 129.121094 120.726562 128.5 121.515625 127.855469 L 139.953125 146.246094 C 138.742188 147.648438 137.597656 149.105469 136.519531 150.609375 C 135.4375 152.113281 134.425781 153.664062 133.484375 155.261719 C 132.539062 156.855469 131.671875 158.488281 130.875 160.160156 C 130.078125 161.835938 129.355469 163.539062 128.710938 165.277344 C 128.0625 167.011719 127.496094 168.777344 127.007812 170.5625 C 126.519531 172.351562 126.113281 174.15625 125.785156 175.980469 C 125.457031 177.804688 125.210938 179.636719 125.046875 181.484375 C 124.878906 183.328125 124.796875 185.179688 124.796875 187.03125 C 124.796875 188.882812 124.878906 190.734375 125.046875 192.578125 C 125.210938 194.425781 125.457031 196.257812 125.785156 198.082031 C 126.113281 199.90625 126.519531 201.710938 127.007812 203.5 C 127.496094 205.285156 128.0625 207.050781 128.710938 208.785156 C 129.355469 210.523438 130.078125 212.226562 130.875 213.902344 C 131.671875 215.574219 132.539062 217.207031 133.484375 218.800781 C 134.425781 220.398438 135.4375 221.949219 136.519531 223.453125 C 137.597656 224.957031 138.742188 226.414062 139.953125 227.816406 L 124.316406 243.453125 C 121.589844 241.324219 118.628906 239.597656 115.433594 238.269531 C 112.238281 236.941406 108.925781 236.066406 105.492188 235.636719 L 105.492188 224.96875 C 106.242188 224.773438 106.980469 224.535156 107.703125 224.253906 C 108.421875 223.972656 109.125 223.644531 109.808594 223.277344 C 110.492188 222.910156 111.152344 222.503906 111.785156 222.058594 C 112.417969 221.609375 113.023438 221.128906 113.597656 220.609375 C 114.175781 220.089844 114.71875 219.535156 115.226562 218.949219 C 115.734375 218.367188 116.207031 217.753906 116.644531 217.109375 C 117.078125 216.46875 117.472656 215.804688 117.828125 215.113281 C 118.183594 214.425781 118.496094 213.714844 118.765625 212.988281 C 119.035156 212.261719 119.261719 211.519531 119.441406 210.765625 C 119.621094 210.011719 119.757812 209.25 119.84375 208.480469 C 119.933594 207.707031 119.976562 206.933594 119.972656 206.160156 C 119.964844 205.382812 119.914062 204.613281 119.816406 203.84375 C 119.71875 203.074219 119.574219 202.3125 119.386719 201.558594 C 119.199219 200.808594 118.964844 200.070312 118.683594 199.347656 C 118.40625 198.621094 118.085938 197.917969 117.722656 197.230469 C 117.359375 196.546875 116.957031 195.886719 116.511719 195.25 C 116.070312 194.613281 115.589844 194.003906 115.074219 193.425781 C 114.558594 192.847656 114.007812 192.300781 113.425781 191.789062 C 112.84375 191.277344 112.234375 190.800781 111.59375 190.359375 C 110.957031 189.921875 110.292969 189.523438 109.605469 189.164062 C 108.917969 188.804688 108.210938 188.488281 107.484375 188.214844 C 106.761719 187.941406 106.019531 187.710938 105.269531 187.523438 C 104.515625 187.339844 103.753906 187.203125 102.984375 187.109375 C 102.214844 187.015625 101.441406 186.96875 100.664062 186.96875 C 99.890625 186.96875 99.117188 187.015625 98.347656 187.109375 C 97.578125 187.203125 96.816406 187.339844 96.0625 187.523438 C 95.308594 187.710938 94.570312 187.941406 93.84375 188.214844 C 93.117188 188.488281 92.410156 188.804688 91.722656 189.164062 C 91.035156 189.523438 90.375 189.921875 89.734375 190.359375 C 89.09375 190.800781 88.484375 191.277344 87.902344 191.789062 C 87.320312 192.300781 86.769531 192.847656 86.253906 193.425781 C 85.738281 194.003906 85.257812 194.613281 84.816406 195.25 C 84.375 195.886719 83.96875 196.546875 83.605469 197.230469 C 83.242188 197.917969 82.921875 198.621094 82.644531 199.347656 C 82.367188 200.070312 82.132812 200.808594 81.941406 201.558594 C 81.753906 202.3125 81.609375 203.074219 81.511719 203.84375 C 81.414062 204.613281 81.363281 205.382812 81.359375 206.160156 C 81.355469 206.933594 81.394531 207.707031 81.484375 208.480469 C 81.574219 209.25 81.707031 210.011719 81.886719 210.765625 C 82.070312 211.519531 82.292969 212.261719 82.5625 212.988281 C 82.832031 213.714844 83.144531 214.425781 83.5 215.113281 C 83.855469 215.804688 84.25 216.46875 84.6875 217.109375 C 85.121094 217.753906 85.59375 218.367188 86.101562 218.949219 C 86.613281 219.535156 87.15625 220.089844 87.730469 220.609375 C 88.304688 221.128906 88.910156 221.609375 89.542969 222.058594 C 90.179688 222.503906 90.835938 222.910156 91.519531 223.277344 C 92.203125 223.644531 92.90625 223.972656 93.628906 224.253906 C 94.351562 224.535156 95.085938 224.773438 95.839844 224.96875 L 95.839844 235.636719 C 94.648438 235.785156 93.46875 235.988281 92.300781 236.246094 C 91.132812 236.503906 89.976562 236.816406 88.835938 237.179688 C 87.695312 237.546875 86.574219 237.964844 85.472656 238.433594 C 84.371094 238.90625 83.292969 239.425781 82.238281 239.996094 C 81.1875 240.566406 80.160156 241.183594 79.164062 241.847656 C 78.171875 242.515625 77.207031 243.226562 76.277344 243.980469 C 75.347656 244.734375 74.457031 245.53125 73.601562 246.371094 C 72.746094 247.210938 71.929688 248.085938 71.15625 249 C 70.382812 249.914062 69.652344 250.863281 68.964844 251.84375 C 68.28125 252.828125 67.640625 253.839844 67.050781 254.878906 C 66.457031 255.921875 65.917969 256.988281 65.425781 258.082031 C 64.933594 259.171875 64.492188 260.285156 64.101562 261.417969 C 63.714844 262.550781 63.378906 263.699219 63.097656 264.863281 C 62.816406 266.027344 62.585938 267.203125 62.414062 268.386719 C 62.242188 269.574219 62.125 270.765625 62.0625 271.960938 C 62 273.15625 61.996094 274.351562 62.046875 275.550781 C 62.09375 276.746094 62.199219 277.9375 62.359375 279.125 C 62.519531 280.3125 62.734375 281.488281 63.007812 282.65625 C 63.277344 283.824219 63.601562 284.976562 63.976562 286.113281 C 64.355469 287.25 64.785156 288.367188 65.265625 289.460938 C 65.746094 290.558594 66.277344 291.632812 66.859375 292.679688 C 67.4375 293.726562 68.066406 294.746094 68.742188 295.734375 C 69.417969 296.722656 70.140625 297.679688 70.902344 298.601562 C 71.667969 299.523438 72.472656 300.40625 73.320312 301.253906 C 74.167969 302.101562 75.054688 302.90625 75.976562 303.671875 C 76.898438 304.4375 77.851562 305.15625 78.839844 305.832031 C 79.832031 306.507812 80.847656 307.136719 81.894531 307.71875 C 82.945312 308.296875 84.015625 308.828125 85.113281 309.308594 C 86.210938 309.792969 87.328125 310.21875 88.464844 310.597656 C 89.601562 310.976562 90.753906 311.300781 91.917969 311.570312 C 93.085938 311.839844 94.261719 312.054688 95.449219 312.214844 C 96.636719 312.375 97.828125 312.480469 99.027344 312.53125 C 100.222656 312.578125 101.417969 312.574219 102.613281 312.511719 C 103.8125 312.449219 105.003906 312.332031 106.1875 312.160156 C 107.371094 311.988281 108.546875 311.761719 109.710938 311.480469 C 110.875 311.195312 112.023438 310.863281 113.15625 310.472656 C 114.289062 310.082031 115.402344 309.644531 116.496094 309.152344 C 117.585938 308.660156 118.652344 308.117188 119.695312 307.523438 C 120.738281 306.933594 121.75 306.296875 122.730469 305.609375 C 123.710938 304.921875 124.660156 304.195312 125.574219 303.417969 C 126.488281 302.644531 127.367188 301.832031 128.203125 300.976562 C 129.042969 300.121094 129.839844 299.226562 130.59375 298.296875 C 131.347656 297.367188 132.058594 296.40625 132.726562 295.410156 C 133.390625 294.414062 134.007812 293.390625 134.578125 292.335938 C 135.148438 291.28125 135.671875 290.203125 136.140625 289.101562 C 136.609375 288 137.027344 286.878906 137.394531 285.738281 C 137.757812 284.597656 138.070312 283.445312 138.328125 282.273438 C 138.589844 281.105469 138.792969 279.925781 138.941406 278.738281 L 149.605469 278.738281 C 149.800781 279.488281 150.039062 280.222656 150.320312 280.945312 C 150.605469 281.667969 150.929688 282.371094 151.296875 283.054688 C 151.664062 283.738281 152.070312 284.394531 152.519531 285.03125 C 152.964844 285.664062 153.449219 286.269531 153.96875 286.84375 C 154.488281 287.421875 155.039062 287.964844 155.625 288.472656 C 156.210938 288.980469 156.824219 289.453125 157.464844 289.890625 C 158.105469 290.324219 158.773438 290.71875 159.460938 291.074219 C 160.152344 291.429688 160.859375 291.742188 161.585938 292.011719 C 162.3125 292.28125 163.054688 292.507812 163.808594 292.6875 C 164.5625 292.867188 165.324219 293.003906 166.097656 293.089844 C 166.867188 293.179688 167.640625 293.222656 168.414062 293.214844 C 169.191406 293.210938 169.964844 293.160156 170.734375 293.0625 C 171.503906 292.964844 172.261719 292.820312 173.015625 292.632812 C 173.765625 292.441406 174.503906 292.207031 175.230469 291.929688 C 175.953125 291.652344 176.65625 291.332031 177.34375 290.96875 C 178.027344 290.605469 178.6875 290.203125 179.324219 289.757812 C 179.960938 289.316406 180.570312 288.835938 181.148438 288.320312 C 181.726562 287.804688 182.273438 287.253906 182.785156 286.671875 C 183.300781 286.089844 183.773438 285.480469 184.214844 284.839844 C 184.652344 284.203125 185.050781 283.539062 185.410156 282.851562 C 185.769531 282.164062 186.085938 281.457031 186.363281 280.730469 C 186.636719 280.007812 186.863281 279.265625 187.050781 278.511719 C 187.234375 277.761719 187.375 277 187.46875 276.230469 C 187.558594 275.457031 187.605469 274.6875 187.605469 273.910156 C 187.605469 273.132812 187.558594 272.363281 187.46875 271.59375 C 187.375 270.820312 187.234375 270.058594 187.050781 269.308594 C 186.863281 268.554688 186.636719 267.816406 186.363281 267.089844 C 186.085938 266.363281 185.769531 265.65625 185.410156 264.96875 C 185.050781 264.28125 184.652344 263.617188 184.214844 262.980469 C 183.773438 262.339844 183.300781 261.730469 182.785156 261.148438 C 182.273438 260.566406 181.726562 260.015625 181.148438 259.5 C 180.570312 258.984375 179.960938 258.503906 179.324219 258.0625 C 178.6875 257.617188 178.027344 257.214844 177.34375 256.851562 C 176.65625 256.488281 175.953125 256.167969 175.230469 255.890625 C 174.503906 255.613281 173.765625 255.378906 173.015625 255.1875 C 172.261719 255 171.503906 254.855469 170.734375 254.757812 C 169.964844 254.660156 169.191406 254.609375 168.414062 254.605469 C 167.640625 254.597656 166.867188 254.640625 166.097656 254.730469 C 165.324219 254.820312 164.5625 254.953125 163.808594 255.132812 C 163.054688 255.3125 162.3125 255.539062 161.585938 255.808594 C 160.859375 256.078125 160.152344 256.390625 159.460938 256.746094 C 158.773438 257.101562 158.105469 257.496094 157.464844 257.929688 C 156.824219 258.367188 156.210938 258.839844 155.625 259.347656 C 155.039062 259.855469 154.488281 260.398438 153.96875 260.976562 C 153.449219 261.550781 152.964844 262.15625 152.519531 262.789062 C 152.070312 263.425781 151.664062 264.082031 151.296875 264.765625 C 150.929688 265.449219 150.605469 266.152344 150.320312 266.875 C 150.039062 267.597656 149.800781 268.332031 149.605469 269.082031 L 138.941406 269.082031 C 138.511719 265.652344 137.632812 262.335938 136.304688 259.140625 C 134.976562 255.949219 133.25 252.988281 131.121094 250.261719 L 146.757812 234.621094 C 148.164062 235.832031 149.617188 236.976562 151.121094 238.058594 C 152.628906 239.136719 154.175781 240.148438 155.773438 241.09375 C 157.367188 242.035156 159.003906 242.90625 160.675781 243.703125 C 162.347656 244.5 164.050781 245.21875 165.789062 245.867188 C 167.527344 246.511719 169.289062 247.078125 171.074219 247.566406 C 172.863281 248.054688 174.667969 248.464844 176.492188 248.792969 C 178.316406 249.121094 180.152344 249.367188 181.996094 249.53125 C 183.839844 249.695312 185.691406 249.777344 187.542969 249.777344 C 189.398438 249.777344 191.246094 249.695312 193.089844 249.53125 C 194.9375 249.367188 196.773438 249.121094 198.597656 248.792969 C 200.417969 248.464844 202.226562 248.054688 204.011719 247.566406 C 205.800781 247.078125 207.5625 246.511719 209.296875 245.867188 C 211.035156 245.21875 212.742188 244.5 214.414062 243.703125 C 216.085938 242.90625 217.71875 242.035156 219.316406 241.09375 C 220.910156 240.148438 222.460938 239.136719 223.964844 238.058594 C 225.472656 236.976562 226.925781 235.832031 228.328125 234.621094 L 246.71875 253.058594 C 246.144531 253.761719 245.59375 254.476562 245.0625 255.210938 C 244.53125 255.941406 244.019531 256.6875 243.53125 257.449219 C 243.042969 258.210938 242.574219 258.984375 242.128906 259.769531 C 241.683594 260.558594 241.257812 261.359375 240.859375 262.167969 C 240.457031 262.980469 240.078125 263.800781 239.722656 264.632812 C 239.367188 265.464844 239.039062 266.308594 238.730469 267.160156 C 238.421875 268.011719 238.140625 268.867188 237.878906 269.734375 C 237.621094 270.601562 237.386719 271.476562 237.175781 272.355469 C 236.964844 273.234375 236.78125 274.121094 236.621094 275.011719 C 236.460938 275.902344 236.324219 276.796875 236.214844 277.695312 C 236.105469 278.59375 236.019531 279.492188 235.960938 280.394531 C 235.902344 281.300781 235.867188 282.203125 235.859375 283.109375 C 235.851562 284.011719 235.867188 284.917969 235.910156 285.820312 C 235.953125 286.722656 236.019531 287.625 236.113281 288.527344 C 236.207031 289.425781 236.324219 290.324219 236.46875 291.214844 C 236.609375 292.109375 236.777344 293 236.972656 293.882812 C 237.167969 294.765625 237.382812 295.644531 237.628906 296.515625 C 237.871094 297.386719 238.136719 298.25 238.429688 299.109375 C 238.71875 299.964844 239.035156 300.8125 239.375 301.652344 C 239.714844 302.488281 240.074219 303.320312 240.460938 304.136719 C 240.847656 304.957031 241.253906 305.761719 241.6875 306.558594 C 242.117188 307.355469 242.570312 308.136719 243.046875 308.90625 C 243.519531 309.675781 244.015625 310.433594 244.535156 311.175781 C 245.050781 311.917969 245.589844 312.644531 246.148438 313.355469 C 246.707031 314.066406 247.285156 314.761719 247.882812 315.441406 C 248.480469 316.121094 249.097656 316.785156 249.730469 317.429688 C 250.367188 318.074219 251.019531 318.699219 251.6875 319.308594 C 252.359375 319.914062 253.046875 320.503906 253.75 321.074219 C 254.453125 321.644531 255.171875 322.191406 255.90625 322.722656 C 256.636719 323.25 257.386719 323.757812 258.148438 324.246094 C 258.914062 324.730469 259.6875 325.195312 260.476562 325.640625 C 261.265625 326.082031 262.066406 326.503906 262.878906 326.902344 C 263.691406 327.300781 264.515625 327.675781 265.347656 328.027344 C 266.179688 328.378906 267.023438 328.707031 267.875 329.011719 C 268.726562 329.316406 269.585938 329.597656 270.457031 329.855469 C 271.324219 330.109375 272.199219 330.34375 273.078125 330.550781 C 273.960938 330.757812 274.84375 330.9375 275.734375 331.09375 C 276.628906 331.253906 277.523438 331.382812 278.421875 331.492188 C 279.320312 331.597656 280.21875 331.679688 281.121094 331.734375 C 282.027344 331.792969 282.929688 331.824219 283.835938 331.828125 C 284.738281 331.835938 285.644531 331.8125 286.546875 331.769531 C 287.449219 331.722656 288.351562 331.652344 289.253906 331.554688 C 290.152344 331.460938 291.046875 331.339844 291.941406 331.191406 C 292.832031 331.046875 293.722656 330.875 294.605469 330.675781 C 295.488281 330.480469 296.367188 330.261719 297.234375 330.015625 C 298.105469 329.769531 298.96875 329.5 299.824219 329.203125 C 300.679688 328.910156 301.527344 328.589844 302.367188 328.25 C 303.203125 327.90625 304.03125 327.542969 304.847656 327.152344 C 305.664062 326.765625 306.46875 326.355469 307.265625 325.921875 C 308.058594 325.484375 308.839844 325.03125 309.609375 324.550781 C 310.375 324.074219 311.132812 323.574219 311.871094 323.054688 C 312.613281 322.535156 313.335938 321.996094 314.046875 321.433594 C 314.757812 320.875 315.449219 320.292969 316.128906 319.691406 C 316.804688 319.09375 317.464844 318.472656 318.105469 317.835938 C 318.75 317.199219 319.375 316.546875 319.980469 315.875 C 320.585938 315.199219 321.171875 314.511719 321.738281 313.808594 C 322.304688 313.101562 322.851562 312.382812 323.378906 311.644531 C 323.90625 310.910156 324.410156 310.160156 324.894531 309.394531 C 325.378906 308.632812 325.839844 307.855469 326.28125 307.0625 C 326.722656 306.273438 327.140625 305.472656 327.535156 304.65625 C 327.929688 303.84375 328.304688 303.019531 328.652344 302.183594 C 329 301.347656 329.328125 300.503906 329.628906 299.652344 C 329.929688 298.800781 330.207031 297.9375 330.460938 297.070312 C 330.714844 296.203125 330.941406 295.328125 331.144531 294.445312 C 331.351562 293.5625 331.53125 292.675781 331.683594 291.785156 C 331.835938 290.894531 331.964844 290 332.070312 289.097656 C 332.175781 288.199219 332.253906 287.300781 332.304688 286.394531 C 332.359375 285.492188 332.386719 284.589844 332.390625 283.683594 C 332.390625 282.78125 332.367188 281.875 332.320312 280.972656 C 332.269531 280.066406 332.195312 279.167969 332.097656 278.265625 C 332 277.367188 331.875 276.472656 331.722656 275.578125 C 331.574219 274.6875 331.398438 273.800781 331.199219 272.917969 C 331 272.035156 330.777344 271.160156 330.527344 270.289062 C 330.277344 269.417969 330.003906 268.558594 329.707031 267.703125 C 329.410156 266.847656 329.089844 266.003906 328.746094 265.164062 C 328.398438 264.328125 328.03125 263.503906 327.640625 262.6875 C 327.25 261.871094 326.835938 261.066406 326.398438 260.273438 C 325.960938 259.480469 325.503906 258.703125 325.023438 257.9375 C 324.542969 257.167969 324.042969 256.417969 323.519531 255.679688 C 322.996094 254.941406 322.453125 254.214844 321.890625 253.507812 C 321.324219 252.800781 320.742188 252.109375 320.140625 251.433594 C 319.539062 250.757812 318.917969 250.101562 318.277344 249.460938 C 317.640625 248.820312 316.980469 248.199219 316.308594 247.59375 C 315.632812 246.992188 314.941406 246.40625 314.234375 245.84375 C 313.527344 245.277344 312.804688 244.734375 312.070312 244.210938 C 311.332031 243.6875 310.578125 243.183594 309.8125 242.703125 C 309.046875 242.222656 308.269531 241.761719 307.476562 241.324219 C 306.683594 240.886719 305.882812 240.46875 305.066406 240.078125 C 304.25 239.683594 303.425781 239.316406 302.589844 238.96875 C 301.753906 238.625 300.90625 238.300781 300.054688 238.003906 C 299.199219 237.703125 298.339844 237.429688 297.46875 237.179688 C 296.597656 236.929688 295.722656 236.703125 294.839844 236.503906 C 293.957031 236.300781 293.070312 236.125 292.179688 235.972656 C 291.289062 235.824219 290.390625 235.699219 289.492188 235.597656 C 288.59375 235.496094 287.691406 235.421875 286.789062 235.371094 C 285.886719 235.320312 284.980469 235.296875 284.074219 235.296875 Z M 115.144531 120.617188 L 115.144531 114.632812 C 115.144531 113.042969 114.988281 111.472656 114.679688 109.917969 C 114.367188 108.359375 113.910156 106.847656 113.300781 105.382812 C 112.691406 103.917969 111.945312 102.523438 111.0625 101.203125 C 110.175781 99.886719 109.171875 98.667969 108.050781 97.546875 C 106.957031 96.457031 105.769531 95.492188 104.476562 94.648438 C 104.933594 94.207031 105.367188 93.742188 105.777344 93.253906 C 106.1875 92.769531 106.570312 92.261719 106.929688 91.738281 C 107.289062 91.214844 107.625 90.675781 107.929688 90.117188 C 108.234375 89.558594 108.515625 88.988281 108.765625 88.402344 C 109.015625 87.820312 109.234375 87.222656 109.425781 86.617188 C 109.617188 86.011719 109.777344 85.394531 109.90625 84.773438 C 110.039062 84.152344 110.136719 83.523438 110.207031 82.890625 C 110.273438 82.257812 110.3125 81.625 110.316406 80.988281 C 110.324219 80.351562 110.296875 79.71875 110.242188 79.085938 C 110.183594 78.453125 110.09375 77.824219 109.976562 77.199219 C 109.855469 76.574219 109.707031 75.957031 109.527344 75.347656 C 109.347656 74.734375 109.136719 74.136719 108.898438 73.546875 C 108.660156 72.957031 108.390625 72.382812 108.09375 71.820312 C 107.796875 71.257812 107.476562 70.710938 107.125 70.179688 C 106.773438 69.648438 106.398438 69.136719 105.996094 68.644531 C 105.597656 68.148438 105.171875 67.675781 104.726562 67.226562 C 104.277344 66.773438 103.808594 66.34375 103.316406 65.9375 C 102.828125 65.535156 102.320312 65.152344 101.792969 64.796875 C 101.265625 64.445312 100.71875 64.117188 100.160156 63.8125 C 99.601562 63.511719 99.027344 63.238281 98.441406 62.996094 C 97.851562 62.75 97.253906 62.535156 96.648438 62.347656 C 96.039062 62.164062 95.421875 62.007812 94.800781 61.882812 C 94.175781 61.757812 93.546875 61.664062 92.914062 61.601562 C 92.28125 61.539062 91.648438 61.507812 91.011719 61.507812 C 90.375 61.507812 89.742188 61.539062 89.109375 61.601562 C 88.476562 61.664062 87.847656 61.757812 87.222656 61.882812 C 86.601562 62.007812 85.984375 62.164062 85.375 62.347656 C 84.769531 62.535156 84.171875 62.75 83.582031 62.996094 C 82.996094 63.238281 82.421875 63.511719 81.863281 63.8125 C 81.304688 64.117188 80.757812 64.445312 80.230469 64.796875 C 79.703125 65.152344 79.195312 65.535156 78.707031 65.9375 C 78.214844 66.34375 77.746094 66.773438 77.296875 67.226562 C 76.851562 67.675781 76.425781 68.148438 76.027344 68.644531 C 75.625 69.136719 75.25 69.648438 74.898438 70.179688 C 74.546875 70.710938 74.226562 71.257812 73.929688 71.820312 C 73.632812 72.382812 73.363281 72.957031 73.125 73.546875 C 72.886719 74.136719 72.675781 74.734375 72.496094 75.347656 C 72.316406 75.957031 72.167969 76.574219 72.046875 77.199219 C 71.929688 77.824219 71.839844 78.453125 71.78125 79.085938 C 71.726562 79.71875 71.699219 80.351562 71.707031 80.988281 C 71.710938 81.625 71.75 82.257812 71.816406 82.890625 C 71.886719 83.523438 71.984375 84.152344 72.117188 84.773438 C 72.246094 85.394531 72.40625 86.011719 72.597656 86.617188 C 72.789062 87.222656 73.007812 87.820312 73.257812 88.402344 C 73.507812 88.988281 73.789062 89.558594 74.09375 90.117188 C 74.398438 90.675781 74.734375 91.214844 75.09375 91.738281 C 75.453125 92.261719 75.835938 92.769531 76.246094 93.253906 C 76.65625 93.742188 77.089844 94.207031 77.546875 94.648438 C 75.90625 95.75 74.425781 97.035156 73.101562 98.5 C 71.777344 99.964844 70.652344 101.570312 69.722656 103.3125 C 68.792969 105.054688 68.085938 106.882812 67.605469 108.796875 C 67.125 110.710938 66.882812 112.65625 66.878906 114.632812 L 66.878906 120.617188 C 65.84375 119.789062 64.855469 118.910156 63.914062 117.980469 C 62.96875 117.054688 62.078125 116.078125 61.234375 115.058594 C 60.390625 114.035156 59.605469 112.976562 58.871094 111.871094 C 58.136719 110.769531 57.460938 109.632812 56.84375 108.460938 C 56.226562 107.289062 55.671875 106.089844 55.179688 104.863281 C 54.6875 103.632812 54.257812 102.382812 53.890625 101.109375 C 53.527344 99.835938 53.230469 98.550781 52.996094 97.246094 C 52.765625 95.941406 52.601562 94.632812 52.503906 93.3125 C 52.40625 91.992188 52.375 90.667969 52.414062 89.34375 C 52.453125 88.023438 52.558594 86.703125 52.734375 85.390625 C 52.910156 84.078125 53.148438 82.78125 53.457031 81.492188 C 53.765625 80.203125 54.140625 78.9375 54.578125 77.6875 C 55.015625 76.4375 55.519531 75.214844 56.082031 74.015625 C 56.644531 72.820312 57.269531 71.652344 57.953125 70.519531 C 58.640625 69.386719 59.378906 68.292969 60.175781 67.234375 C 60.972656 66.175781 61.820312 65.164062 62.722656 64.191406 C 63.625 63.222656 64.574219 62.300781 65.570312 61.429688 C 66.566406 60.558594 67.601562 59.738281 68.683594 58.972656 C 69.761719 58.207031 70.878906 57.5 72.03125 56.847656 C 73.183594 56.199219 74.367188 55.609375 75.582031 55.078125 C 76.796875 54.550781 78.035156 54.085938 79.292969 53.683594 C 80.554688 53.28125 81.835938 52.945312 83.132812 52.675781 C 84.425781 52.40625 85.734375 52.203125 87.050781 52.066406 C 88.367188 51.929688 89.6875 51.863281 91.011719 51.863281 C 92.335938 51.863281 93.65625 51.929688 94.972656 52.066406 C 96.289062 52.203125 97.597656 52.40625 98.890625 52.675781 C 100.1875 52.945312 101.46875 53.28125 102.730469 53.683594 C 103.988281 54.085938 105.226562 54.550781 106.441406 55.078125 C 107.65625 55.609375 108.839844 56.199219 109.992188 56.847656 C 111.144531 57.5 112.261719 58.207031 113.339844 58.972656 C 114.421875 59.738281 115.457031 60.558594 116.453125 61.429688 C 117.449219 62.300781 118.398438 63.222656 119.300781 64.191406 C 120.199219 65.164062 121.050781 66.175781 121.847656 67.234375 C 122.644531 68.292969 123.382812 69.386719 124.070312 70.519531 C 124.753906 71.652344 125.375 72.820312 125.941406 74.015625 C 126.503906 75.214844 127.007812 76.4375 127.445312 77.6875 C 127.882812 78.9375 128.257812 80.203125 128.566406 81.492188 C 128.875 82.78125 129.113281 84.078125 129.289062 85.390625 C 129.460938 86.703125 129.570312 88.023438 129.609375 89.34375 C 129.648438 90.667969 129.617188 91.992188 129.519531 93.3125 C 129.421875 94.632812 129.257812 95.941406 129.027344 97.246094 C 128.792969 98.550781 128.496094 99.835938 128.132812 101.109375 C 127.765625 102.382812 127.335938 103.632812 126.84375 104.863281 C 126.351562 106.089844 125.796875 107.289062 125.179688 108.460938 C 124.5625 109.632812 123.886719 110.769531 123.152344 111.871094 C 122.417969 112.976562 121.632812 114.035156 120.789062 115.058594 C 119.945312 116.078125 119.054688 117.054688 118.109375 117.980469 C 117.167969 118.910156 116.179688 119.789062 115.144531 120.617188 Z M 221.332031 227.960938 L 221.332031 215.992188 C 221.359375 213.78125 221.167969 211.59375 220.757812 209.421875 C 220.351562 207.253906 219.730469 205.144531 218.902344 203.097656 C 218.074219 201.050781 217.050781 199.105469 215.835938 197.261719 C 214.617188 195.417969 213.234375 193.714844 211.675781 192.148438 C 209.246094 189.652344 206.476562 187.605469 203.375 186.019531 C 204 185.488281 204.597656 184.929688 205.167969 184.34375 C 205.734375 183.753906 206.273438 183.136719 206.78125 182.492188 C 207.285156 181.851562 207.757812 181.183594 208.195312 180.492188 C 208.632812 179.800781 209.035156 179.085938 209.402344 178.355469 C 209.765625 177.621094 210.09375 176.871094 210.382812 176.105469 C 210.671875 175.339844 210.921875 174.5625 211.132812 173.769531 C 211.34375 172.980469 211.511719 172.179688 211.640625 171.371094 C 211.769531 170.5625 211.859375 169.75 211.902344 168.933594 C 211.949219 168.113281 211.953125 167.296875 211.917969 166.480469 C 211.878906 165.660156 211.800781 164.847656 211.683594 164.039062 C 211.5625 163.226562 211.402344 162.425781 211.199219 161.632812 C 210.996094 160.839844 210.757812 160.058594 210.476562 159.289062 C 210.195312 158.519531 209.875 157.765625 209.515625 157.03125 C 209.160156 156.292969 208.765625 155.578125 208.335938 154.882812 C 207.902344 154.183594 207.4375 153.511719 206.941406 152.863281 C 206.441406 152.214844 205.910156 151.59375 205.347656 150.996094 C 204.785156 150.402344 204.195312 149.835938 203.574219 149.304688 C 202.953125 148.769531 202.308594 148.265625 201.636719 147.796875 C 200.964844 147.328125 200.273438 146.894531 199.558594 146.496094 C 198.84375 146.097656 198.109375 145.734375 197.355469 145.410156 C 196.605469 145.085938 195.839844 144.804688 195.058594 144.558594 C 194.277344 144.3125 193.484375 144.105469 192.683594 143.941406 C 191.882812 143.773438 191.074219 143.648438 190.257812 143.566406 C 189.445312 143.484375 188.628906 143.441406 187.808594 143.441406 C 186.992188 143.441406 186.175781 143.484375 185.359375 143.566406 C 184.546875 143.648438 183.738281 143.773438 182.933594 143.941406 C 182.132812 144.105469 181.339844 144.3125 180.5625 144.558594 C 179.78125 144.804688 179.011719 145.085938 178.261719 145.410156 C 177.507812 145.734375 176.777344 146.097656 176.0625 146.496094 C 175.34375 146.894531 174.652344 147.328125 173.980469 147.796875 C 173.308594 148.265625 172.664062 148.769531 172.046875 149.304688 C 171.425781 149.835938 170.835938 150.402344 170.273438 150.996094 C 169.710938 151.59375 169.179688 152.214844 168.679688 152.863281 C 168.179688 153.511719 167.714844 154.183594 167.285156 154.882812 C 166.855469 155.578125 166.460938 156.292969 166.101562 157.03125 C 165.746094 157.765625 165.425781 158.519531 165.144531 159.289062 C 164.863281 160.058594 164.621094 160.839844 164.417969 161.632812 C 164.21875 162.425781 164.058594 163.226562 163.9375 164.039062 C 163.816406 164.847656 163.738281 165.660156 163.703125 166.480469 C 163.664062 167.296875 163.667969 168.113281 163.714844 168.933594 C 163.761719 169.75 163.847656 170.5625 163.976562 171.371094 C 164.105469 172.179688 164.273438 172.980469 164.484375 173.769531 C 164.695312 174.5625 164.945312 175.339844 165.234375 176.105469 C 165.523438 176.871094 165.851562 177.621094 166.21875 178.355469 C 166.582031 179.085938 166.984375 179.800781 167.421875 180.492188 C 167.859375 181.183594 168.332031 181.851562 168.839844 182.492188 C 169.34375 183.136719 169.882812 183.753906 170.453125 184.34375 C 171.019531 184.929688 171.617188 185.488281 172.242188 186.019531 C 170.867188 186.71875 169.542969 187.507812 168.273438 188.390625 C 167 189.273438 165.796875 190.238281 164.660156 191.285156 C 163.523438 192.332031 162.464844 193.449219 161.480469 194.644531 C 160.496094 195.835938 159.597656 197.089844 158.785156 198.40625 C 157.976562 199.722656 157.257812 201.085938 156.632812 202.5 C 156.007812 203.914062 155.484375 205.363281 155.058594 206.851562 C 154.632812 208.335938 154.3125 209.847656 154.09375 211.375 C 153.875 212.90625 153.765625 214.445312 153.757812 215.992188 L 153.757812 227.960938 C 153.058594 227.386719 152.378906 226.792969 151.710938 226.183594 C 151.042969 225.570312 150.390625 224.945312 149.757812 224.300781 C 149.121094 223.660156 148.503906 223 147.902344 222.324219 C 147.300781 221.648438 146.71875 220.957031 146.152344 220.253906 C 145.585938 219.550781 145.035156 218.828125 144.507812 218.097656 C 143.976562 217.363281 143.46875 216.617188 142.976562 215.859375 C 142.484375 215.101562 142.011719 214.328125 141.5625 213.546875 C 141.109375 212.761719 140.675781 211.96875 140.265625 211.164062 C 139.855469 210.359375 139.464844 209.542969 139.09375 208.71875 C 138.722656 207.894531 138.375 207.058594 138.046875 206.214844 C 137.722656 205.375 137.414062 204.523438 137.132812 203.664062 C 136.847656 202.804688 136.585938 201.941406 136.347656 201.066406 C 136.109375 200.195312 135.890625 199.320312 135.695312 198.4375 C 135.5 197.554688 135.328125 196.664062 135.179688 195.773438 C 135.03125 194.882812 134.90625 193.988281 134.800781 193.089844 C 134.695312 192.191406 134.617188 191.289062 134.558594 190.386719 C 134.5 189.484375 134.46875 188.582031 134.457031 187.679688 C 134.445312 186.773438 134.457031 185.871094 134.492188 184.96875 C 134.523438 184.0625 134.582031 183.160156 134.664062 182.261719 C 134.746094 181.359375 134.847656 180.460938 134.976562 179.566406 C 135.101562 178.671875 135.25 177.78125 135.421875 176.894531 C 135.59375 176.003906 135.789062 175.121094 136.007812 174.246094 C 136.226562 173.367188 136.464844 172.496094 136.726562 171.628906 C 136.988281 170.765625 137.273438 169.90625 137.578125 169.054688 C 137.882812 168.203125 138.210938 167.363281 138.558594 166.527344 C 138.90625 165.695312 139.277344 164.867188 139.667969 164.054688 C 140.058594 163.238281 140.472656 162.433594 140.902344 161.640625 C 141.335938 160.84375 141.785156 160.0625 142.257812 159.289062 C 142.730469 158.519531 143.222656 157.761719 143.734375 157.015625 C 144.242188 156.269531 144.773438 155.535156 145.320312 154.816406 C 145.871094 154.097656 146.4375 153.394531 147.019531 152.703125 C 147.605469 152.011719 148.207031 151.339844 148.824219 150.679688 C 149.441406 150.019531 150.078125 149.375 150.730469 148.75 C 151.382812 148.121094 152.046875 147.511719 152.730469 146.917969 C 153.414062 146.328125 154.109375 145.75 154.824219 145.195312 C 155.535156 144.636719 156.261719 144.097656 157 143.578125 C 157.738281 143.058594 158.492188 142.558594 159.257812 142.074219 C 160.023438 141.59375 160.800781 141.132812 161.589844 140.691406 C 162.378906 140.246094 163.175781 139.828125 163.988281 139.425781 C 164.796875 139.023438 165.617188 138.644531 166.445312 138.285156 C 167.277344 137.925781 168.113281 137.585938 168.960938 137.269531 C 169.808594 136.953125 170.664062 136.660156 171.527344 136.386719 C 172.386719 136.113281 173.257812 135.863281 174.132812 135.636719 C 175.007812 135.40625 175.886719 135.199219 176.769531 135.015625 C 177.65625 134.832031 178.546875 134.671875 179.441406 134.535156 C 180.332031 134.398438 181.230469 134.28125 182.128906 134.191406 C 183.027344 134.097656 183.929688 134.027344 184.832031 133.980469 C 185.734375 133.9375 186.640625 133.914062 187.542969 133.914062 C 188.449219 133.914062 189.351562 133.9375 190.253906 133.980469 C 191.15625 134.027344 192.058594 134.097656 192.957031 134.191406 C 193.859375 134.28125 194.753906 134.398438 195.648438 134.535156 C 196.542969 134.671875 197.429688 134.832031 198.316406 135.015625 C 199.203125 135.199219 200.082031 135.40625 200.957031 135.636719 C 201.832031 135.863281 202.699219 136.113281 203.5625 136.386719 C 204.425781 136.660156 205.277344 136.953125 206.125 137.269531 C 206.972656 137.585938 207.8125 137.925781 208.640625 138.285156 C 209.46875 138.644531 210.289062 139.023438 211.101562 139.425781 C 211.910156 139.828125 212.710938 140.246094 213.5 140.691406 C 214.289062 141.132812 215.066406 141.59375 215.832031 142.074219 C 216.59375 142.558594 217.347656 143.058594 218.085938 143.578125 C 218.828125 144.097656 219.554688 144.636719 220.265625 145.195312 C 220.976562 145.75 221.675781 146.328125 222.355469 146.917969 C 223.039062 147.511719 223.707031 148.121094 224.359375 148.75 C 225.011719 149.375 225.644531 150.019531 226.261719 150.679688 C 226.882812 151.339844 227.484375 152.011719 228.066406 152.703125 C 228.652344 153.394531 229.21875 154.097656 229.765625 154.816406 C 230.316406 155.535156 230.84375 156.269531 231.355469 157.015625 C 231.867188 157.761719 232.355469 158.519531 232.828125 159.289062 C 233.300781 160.0625 233.753906 160.84375 234.183594 161.640625 C 234.617188 162.433594 235.027344 163.238281 235.417969 164.054688 C 235.808594 164.867188 236.179688 165.695312 236.527344 166.527344 C 236.878906 167.363281 237.203125 168.203125 237.511719 169.054688 C 237.816406 169.90625 238.101562 170.765625 238.363281 171.628906 C 238.625 172.496094 238.863281 173.367188 239.082031 174.246094 C 239.296875 175.121094 239.492188 176.003906 239.664062 176.894531 C 239.835938 177.78125 239.984375 178.671875 240.113281 179.566406 C 240.238281 180.460938 240.34375 181.359375 240.425781 182.261719 C 240.503906 183.160156 240.5625 184.0625 240.597656 184.96875 C 240.632812 185.871094 240.644531 186.773438 240.632812 187.679688 C 240.621094 188.582031 240.585938 189.484375 240.527344 190.386719 C 240.472656 191.289062 240.390625 192.191406 240.285156 193.089844 C 240.183594 193.988281 240.058594 194.882812 239.90625 195.773438 C 239.757812 196.664062 239.585938 197.554688 239.390625 198.4375 C 239.195312 199.320312 238.980469 200.195312 238.742188 201.066406 C 238.5 201.941406 238.238281 202.804688 237.957031 203.664062 C 237.671875 204.523438 237.367188 205.375 237.039062 206.214844 C 236.710938 207.058594 236.363281 207.894531 235.992188 208.71875 C 235.625 209.542969 235.234375 210.359375 234.820312 211.164062 C 234.410156 211.96875 233.980469 212.761719 233.527344 213.546875 C 233.074219 214.328125 232.601562 215.101562 232.113281 215.859375 C 231.621094 216.617188 231.109375 217.363281 230.582031 218.097656 C 230.050781 218.828125 229.503906 219.550781 228.9375 220.253906 C 228.371094 220.957031 227.789062 221.648438 227.1875 222.324219 C 226.585938 223 225.964844 223.660156 225.332031 224.300781 C 224.695312 224.945312 224.042969 225.570312 223.378906 226.183594 C 222.710938 226.792969 222.027344 227.386719 221.332031 227.960938 Z M 308.210938 313.679688 L 308.210938 307.695312 C 308.207031 306.109375 308.054688 304.539062 307.742188 302.980469 C 307.433594 301.425781 306.972656 299.914062 306.363281 298.445312 C 305.753906 296.980469 305.007812 295.589844 304.125 294.269531 C 303.242188 292.949219 302.238281 291.730469 301.113281 290.609375 C 300.023438 289.523438 298.832031 288.554688 297.542969 287.714844 C 298 287.269531 298.429688 286.804688 298.839844 286.320312 C 299.25 285.832031 299.636719 285.328125 299.996094 284.804688 C 300.355469 284.277344 300.6875 283.738281 300.996094 283.179688 C 301.300781 282.625 301.578125 282.054688 301.828125 281.46875 C 302.078125 280.882812 302.300781 280.289062 302.492188 279.679688 C 302.679688 279.074219 302.84375 278.460938 302.972656 277.835938 C 303.101562 277.214844 303.203125 276.585938 303.269531 275.957031 C 303.339844 275.324219 303.375 274.6875 303.382812 274.054688 C 303.386719 273.417969 303.363281 272.78125 303.304688 272.148438 C 303.246094 271.515625 303.160156 270.886719 303.039062 270.261719 C 302.921875 269.636719 302.773438 269.019531 302.589844 268.410156 C 302.410156 267.800781 302.203125 267.199219 301.960938 266.613281 C 301.722656 266.023438 301.457031 265.445312 301.160156 264.882812 C 300.863281 264.320312 300.539062 263.773438 300.1875 263.242188 C 299.839844 262.714844 299.464844 262.199219 299.0625 261.707031 C 298.660156 261.214844 298.238281 260.742188 297.789062 260.289062 C 297.339844 259.835938 296.871094 259.410156 296.382812 259.003906 C 295.894531 258.597656 295.382812 258.21875 294.855469 257.863281 C 294.328125 257.507812 293.785156 257.179688 293.226562 256.878906 C 292.664062 256.578125 292.089844 256.304688 291.503906 256.058594 C 290.917969 255.816406 290.320312 255.601562 289.710938 255.414062 C 289.101562 255.226562 288.488281 255.074219 287.863281 254.949219 C 287.242188 254.824219 286.613281 254.730469 285.980469 254.667969 C 285.347656 254.605469 284.710938 254.574219 284.074219 254.574219 C 283.441406 254.574219 282.804688 254.605469 282.171875 254.667969 C 281.539062 254.730469 280.910156 254.824219 280.289062 254.949219 C 279.664062 255.074219 279.050781 255.226562 278.441406 255.414062 C 277.832031 255.601562 277.234375 255.816406 276.648438 256.058594 C 276.0625 256.304688 275.488281 256.578125 274.925781 256.878906 C 274.367188 257.179688 273.824219 257.507812 273.296875 257.863281 C 272.769531 258.21875 272.257812 258.597656 271.769531 259.003906 C 271.28125 259.410156 270.8125 259.835938 270.363281 260.289062 C 269.914062 260.742188 269.492188 261.214844 269.089844 261.707031 C 268.6875 262.199219 268.3125 262.714844 267.964844 263.242188 C 267.613281 263.773438 267.289062 264.320312 266.992188 264.882812 C 266.695312 265.445312 266.429688 266.023438 266.191406 266.613281 C 265.949219 267.199219 265.742188 267.800781 265.558594 268.410156 C 265.378906 269.019531 265.230469 269.636719 265.113281 270.261719 C 264.992188 270.886719 264.90625 271.515625 264.847656 272.148438 C 264.789062 272.78125 264.765625 273.417969 264.769531 274.054688 C 264.777344 274.6875 264.8125 275.324219 264.882812 275.957031 C 264.949219 276.585938 265.050781 277.214844 265.179688 277.835938 C 265.308594 278.460938 265.472656 279.074219 265.660156 279.679688 C 265.851562 280.289062 266.074219 280.882812 266.324219 281.46875 C 266.574219 282.054688 266.851562 282.625 267.15625 283.179688 C 267.464844 283.738281 267.796875 284.277344 268.15625 284.804688 C 268.515625 285.328125 268.902344 285.832031 269.3125 286.320312 C 269.722656 286.804688 270.152344 287.269531 270.609375 287.714844 C 268.972656 288.816406 267.488281 290.101562 266.167969 291.566406 C 264.84375 293.03125 263.714844 294.632812 262.785156 296.375 C 261.855469 298.117188 261.152344 299.945312 260.671875 301.863281 C 260.1875 303.777344 259.945312 305.722656 259.941406 307.695312 L 259.941406 313.679688 C 258.910156 312.855469 257.921875 311.976562 256.976562 311.046875 C 256.035156 310.117188 255.140625 309.144531 254.300781 308.121094 C 253.457031 307.101562 252.667969 306.039062 251.933594 304.9375 C 251.199219 303.835938 250.527344 302.699219 249.910156 301.527344 C 249.292969 300.355469 248.738281 299.15625 248.242188 297.925781 C 247.75 296.699219 247.320312 295.449219 246.957031 294.175781 C 246.59375 292.902344 246.292969 291.613281 246.0625 290.3125 C 245.828125 289.007812 245.664062 287.695312 245.566406 286.375 C 245.46875 285.054688 245.441406 283.734375 245.480469 282.410156 C 245.519531 281.085938 245.625 279.769531 245.800781 278.457031 C 245.972656 277.144531 246.214844 275.84375 246.523438 274.554688 C 246.832031 273.269531 247.203125 272 247.640625 270.75 C 248.082031 269.503906 248.582031 268.277344 249.148438 267.082031 C 249.710938 265.882812 250.335938 264.71875 251.019531 263.585938 C 251.703125 262.449219 252.445312 261.355469 253.242188 260.296875 C 254.039062 259.242188 254.886719 258.226562 255.789062 257.257812 C 256.6875 256.289062 257.636719 255.367188 258.632812 254.496094 C 259.628906 253.621094 260.667969 252.804688 261.746094 252.039062 C 262.828125 251.273438 263.945312 250.5625 265.097656 249.914062 C 266.25 249.261719 267.433594 248.671875 268.648438 248.144531 C 269.859375 247.613281 271.097656 247.148438 272.359375 246.746094 C 273.621094 246.34375 274.898438 246.007812 276.195312 245.738281 C 277.492188 245.46875 278.796875 245.265625 280.113281 245.128906 C 281.433594 244.996094 282.753906 244.925781 284.078125 244.925781 C 285.398438 244.925781 286.71875 244.996094 288.039062 245.128906 C 289.355469 245.265625 290.660156 245.46875 291.957031 245.738281 C 293.253906 246.007812 294.53125 246.34375 295.792969 246.746094 C 297.054688 247.148438 298.292969 247.613281 299.503906 248.144531 C 300.71875 248.671875 301.902344 249.261719 303.054688 249.914062 C 304.207031 250.5625 305.324219 251.273438 306.40625 252.039062 C 307.484375 252.804688 308.523438 253.621094 309.519531 254.496094 C 310.515625 255.367188 311.464844 256.289062 312.363281 257.257812 C 313.265625 258.226562 314.113281 259.242188 314.910156 260.296875 C 315.707031 261.355469 316.449219 262.449219 317.132812 263.585938 C 317.816406 264.71875 318.441406 265.882812 319.003906 267.082031 C 319.570312 268.277344 320.070312 269.503906 320.511719 270.75 C 320.949219 272 321.320312 273.269531 321.628906 274.554688 C 321.9375 275.84375 322.179688 277.144531 322.351562 278.457031 C 322.527344 279.769531 322.632812 281.085938 322.671875 282.410156 C 322.710938 283.734375 322.683594 285.054688 322.585938 286.375 C 322.488281 287.695312 322.324219 289.007812 322.089844 290.3125 C 321.859375 291.613281 321.558594 292.902344 321.195312 294.175781 C 320.832031 295.449219 320.402344 296.699219 319.910156 297.925781 C 319.414062 299.15625 318.859375 300.355469 318.242188 301.527344 C 317.625 302.699219 316.953125 303.835938 316.21875 304.9375 C 315.484375 306.039062 314.695312 307.101562 313.851562 308.121094 C 313.011719 309.144531 312.117188 310.117188 311.175781 311.046875 C 310.230469 311.976562 309.242188 312.855469 308.210938 313.679688 Z M 308.210938 313.679688 " fill-opacity="1" fill-rule="nonzero"/></svg>