<svg xmlns="http://www.w3.org/2000/svg" xmlns:xlink="http://www.w3.org/1999/xlink" width="500" zoomAndPan="magnify" viewBox="0 0 375.12 383.03998" height="500" preserveAspectRatio="xMidYMid meet" version="1.0"><path fill="#7cebff" d="M 187.0625 40.332031 C 184.125 40.328125 181.191406 40.4375 178.261719 40.652344 C 175.332031 40.867188 172.414062 41.191406 169.511719 41.625 C 166.605469 42.054688 163.71875 42.59375 160.855469 43.238281 C 157.988281 43.886719 155.152344 44.636719 152.34375 45.492188 C 149.53125 46.347656 146.757812 47.308594 144.019531 48.371094 C 141.28125 49.429688 138.585938 50.59375 135.933594 51.855469 C 133.28125 53.117188 130.679688 54.472656 128.125 55.929688 C 125.574219 57.382812 123.082031 58.929688 120.644531 60.570312 C 118.207031 62.207031 115.832031 63.933594 113.523438 65.75 C 111.214844 67.566406 108.976562 69.464844 106.808594 71.445312 C 104.640625 73.425781 102.546875 75.484375 100.53125 77.621094 C 98.515625 79.757812 96.582031 81.964844 94.730469 84.246094 C 92.878906 86.523438 91.113281 88.871094 89.433594 91.28125 C 87.757812 93.691406 86.167969 96.160156 84.675781 98.6875 C 83.179688 101.214844 81.78125 103.796875 80.476562 106.429688 C 79.171875 109.058594 77.96875 111.738281 76.863281 114.457031 C 75.757812 117.179688 74.753906 119.9375 73.851562 122.734375 C 72.949219 125.527344 72.152344 128.351562 71.460938 131.207031 C 70.769531 134.0625 70.1875 136.9375 69.707031 139.835938 C 69.230469 142.734375 68.859375 145.644531 68.59375 148.570312 C 68.332031 151.496094 68.179688 154.429688 68.132812 157.363281 C 68.089844 160.300781 68.152344 163.234375 68.324219 166.167969 C 68.496094 169.101562 68.777344 172.023438 69.164062 174.933594 C 69.554688 177.84375 70.050781 180.738281 70.652344 183.613281 C 71.257812 186.488281 71.964844 189.335938 72.777344 192.15625 C 73.59375 194.980469 74.511719 197.765625 75.53125 200.519531 C 76.554688 203.273438 77.675781 205.988281 78.898438 208.65625 C 80.117188 211.328125 81.4375 213.949219 82.855469 216.523438 C 84.269531 219.097656 85.78125 221.613281 87.382812 224.074219 C 88.984375 226.535156 90.679688 228.933594 92.457031 231.269531 C 94.238281 233.605469 96.105469 235.871094 98.054688 238.070312 C 100.003906 240.269531 102.03125 242.390625 104.136719 244.4375 L 97.4375 262.269531 C 97.019531 263.398438 96.683594 264.554688 96.433594 265.734375 C 96.179688 266.910156 96.015625 268.101562 95.933594 269.304688 C 95.855469 270.507812 95.863281 271.710938 95.953125 272.914062 C 96.046875 274.113281 96.226562 275.304688 96.492188 276.480469 C 96.753906 277.65625 97.101562 278.808594 97.53125 279.933594 C 97.960938 281.058594 98.472656 282.148438 99.058594 283.203125 C 99.644531 284.253906 100.304688 285.261719 101.039062 286.21875 C 101.769531 287.175781 102.566406 288.078125 103.429688 288.917969 C 104.800781 290.28125 106.207031 291.609375 107.644531 292.898438 C 109.082031 294.191406 110.550781 295.449219 112.050781 296.671875 C 113.546875 297.890625 115.078125 299.074219 116.632812 300.222656 C 118.191406 301.367188 119.773438 302.476562 121.386719 303.546875 C 122.996094 304.613281 124.632812 305.644531 126.292969 306.632812 C 127.953125 307.621094 129.640625 308.570312 131.347656 309.476562 C 133.054688 310.382812 134.78125 311.246094 136.53125 312.070312 C 138.28125 312.894531 140.050781 313.671875 141.839844 314.40625 C 143.625 315.144531 145.429688 315.835938 147.253906 316.484375 C 149.074219 317.132812 150.910156 317.734375 152.761719 318.292969 C 154.613281 318.851562 156.476562 319.363281 158.351562 319.832031 C 160.230469 320.300781 162.117188 320.71875 164.011719 321.097656 C 165.910156 321.472656 167.8125 321.800781 169.726562 322.082031 C 171.640625 322.363281 173.558594 322.597656 175.480469 322.789062 C 177.40625 322.976562 179.332031 323.117188 181.265625 323.210938 C 183.195312 323.304688 185.128906 323.355469 187.0625 323.355469 C 188.996094 323.355469 190.925781 323.304688 192.859375 323.210938 C 194.789062 323.117188 196.71875 322.976562 198.640625 322.789062 C 200.566406 322.597656 202.484375 322.363281 204.394531 322.082031 C 206.308594 321.800781 208.214844 321.472656 210.109375 321.097656 C 212.007812 320.71875 213.894531 320.300781 215.769531 319.832031 C 217.644531 319.363281 219.507812 318.851562 221.359375 318.292969 C 223.210938 317.734375 225.046875 317.132812 226.871094 316.484375 C 228.691406 315.835938 230.496094 315.144531 232.285156 314.40625 C 234.070312 313.671875 235.839844 312.894531 237.589844 312.070312 C 239.339844 311.246094 241.066406 310.382812 242.777344 309.476562 C 244.484375 308.570312 246.167969 307.621094 247.828125 306.632812 C 249.488281 305.644531 251.125 304.613281 252.738281 303.546875 C 254.347656 302.476562 255.933594 301.367188 257.488281 300.222656 C 259.046875 299.074219 260.574219 297.890625 262.074219 296.671875 C 263.570312 295.449219 265.039062 294.191406 266.476562 292.898438 C 267.917969 291.609375 269.320312 290.28125 270.695312 288.917969 C 271.554688 288.078125 272.351562 287.175781 273.085938 286.21875 C 273.816406 285.261719 274.476562 284.253906 275.0625 283.203125 C 275.652344 282.148438 276.160156 281.058594 276.589844 279.933594 C 277.019531 278.808594 277.367188 277.65625 277.632812 276.480469 C 277.894531 275.304688 278.074219 274.113281 278.167969 272.914062 C 278.261719 271.710938 278.269531 270.507812 278.1875 269.304688 C 278.105469 268.101562 277.941406 266.910156 277.691406 265.734375 C 277.4375 264.554688 277.101562 263.398438 276.683594 262.269531 L 269.988281 244.4375 C 272.09375 242.390625 274.121094 240.269531 276.070312 238.070312 C 278.019531 235.871094 279.882812 233.605469 281.664062 231.269531 C 283.445312 228.933594 285.136719 226.535156 286.738281 224.074219 C 288.34375 221.613281 289.851562 219.097656 291.269531 216.523438 C 292.683594 213.949219 294.003906 211.328125 295.226562 208.65625 C 296.449219 205.988281 297.570312 203.273438 298.589844 200.519531 C 299.613281 197.765625 300.527344 194.980469 301.34375 192.15625 C 302.15625 189.335938 302.867188 186.488281 303.46875 183.613281 C 304.074219 180.738281 304.570312 177.84375 304.957031 174.933594 C 305.347656 172.023438 305.625 169.101562 305.800781 166.167969 C 305.972656 163.234375 306.035156 160.300781 305.988281 157.363281 C 305.945312 154.429688 305.789062 151.496094 305.527344 148.570312 C 305.265625 145.644531 304.894531 142.734375 304.414062 139.835938 C 303.9375 136.9375 303.351562 134.0625 302.660156 131.207031 C 301.96875 128.351562 301.171875 125.527344 300.269531 122.734375 C 299.371094 119.9375 298.367188 117.179688 297.261719 114.457031 C 296.15625 111.738281 294.949219 109.058594 293.648438 106.429688 C 292.34375 103.796875 290.941406 101.214844 289.449219 98.6875 C 287.953125 96.160156 286.367188 93.691406 284.6875 91.28125 C 283.007812 88.871094 281.246094 86.523438 279.390625 84.246094 C 277.539062 81.964844 275.605469 79.757812 273.589844 77.621094 C 271.574219 75.484375 269.484375 73.425781 267.3125 71.445312 C 265.144531 69.464844 262.90625 67.566406 260.597656 65.75 C 258.289062 63.933594 255.917969 62.207031 253.480469 60.570312 C 251.042969 58.929688 248.546875 57.382812 245.996094 55.929688 C 243.445312 54.472656 240.839844 53.117188 238.1875 51.855469 C 235.535156 50.59375 232.839844 49.429688 230.101562 48.371094 C 227.363281 47.308594 224.589844 46.347656 221.78125 45.492188 C 218.972656 44.636719 216.132812 43.886719 213.269531 43.238281 C 210.402344 42.59375 207.519531 42.054688 204.613281 41.625 C 201.707031 41.191406 198.789062 40.867188 195.859375 40.652344 C 192.929688 40.4375 190 40.328125 187.0625 40.332031 Z M 264.089844 282.222656 C 262.824219 283.472656 261.53125 284.695312 260.207031 285.886719 C 258.882812 287.078125 257.53125 288.234375 256.148438 289.359375 C 254.769531 290.480469 253.359375 291.570312 251.925781 292.625 C 250.492188 293.683594 249.03125 294.703125 247.550781 295.6875 C 246.066406 296.671875 244.558594 297.617188 243.027344 298.527344 C 241.496094 299.4375 239.945312 300.3125 238.375 301.148438 C 236.800781 301.980469 235.207031 302.777344 233.597656 303.535156 C 231.984375 304.292969 230.355469 305.007812 228.710938 305.6875 C 227.0625 306.363281 225.402344 307 223.722656 307.597656 C 222.046875 308.195312 220.355469 308.75 218.648438 309.265625 C 216.945312 309.777344 215.230469 310.25 213.5 310.679688 C 211.773438 311.109375 210.035156 311.5 208.289062 311.84375 C 206.542969 312.1875 204.789062 312.492188 203.027344 312.75 C 201.265625 313.011719 199.496094 313.226562 197.726562 313.402344 C 195.953125 313.574219 194.179688 313.707031 192.398438 313.792969 C 190.621094 313.878906 188.84375 313.921875 187.0625 313.921875 C 185.28125 313.921875 183.5 313.878906 181.722656 313.792969 C 179.945312 313.707031 178.167969 313.574219 176.398438 313.402344 C 174.625 313.226562 172.859375 313.011719 171.097656 312.75 C 169.335938 312.492188 167.582031 312.1875 165.832031 311.84375 C 164.085938 311.5 162.347656 311.109375 160.621094 310.679688 C 158.894531 310.25 157.175781 309.777344 155.472656 309.265625 C 153.769531 308.75 152.078125 308.195312 150.398438 307.597656 C 148.722656 307 147.058594 306.363281 145.414062 305.6875 C 143.765625 305.007812 142.136719 304.292969 140.523438 303.535156 C 138.914062 302.777344 137.320312 301.980469 135.75 301.148438 C 134.175781 300.3125 132.625 299.4375 131.09375 298.527344 C 129.5625 297.617188 128.058594 296.671875 126.574219 295.6875 C 125.089844 294.703125 123.628906 293.683594 122.195312 292.625 C 120.761719 291.570312 119.355469 290.480469 117.972656 289.359375 C 116.59375 288.234375 115.242188 287.078125 113.914062 285.886719 C 112.589844 284.695312 111.296875 283.472656 110.03125 282.222656 C 109.492188 281.695312 108.996094 281.136719 108.535156 280.542969 C 108.078125 279.945312 107.667969 279.320312 107.296875 278.664062 C 106.929688 278.007812 106.613281 277.332031 106.339844 276.628906 C 106.070312 275.925781 105.855469 275.210938 105.6875 274.476562 C 105.519531 273.746094 105.40625 273.003906 105.347656 272.253906 C 105.289062 271.503906 105.28125 270.757812 105.332031 270.007812 C 105.378906 269.257812 105.480469 268.511719 105.636719 267.777344 C 105.792969 267.042969 106 266.324219 106.257812 265.617188 L 111.683594 251.183594 C 118.246094 256.601562 125.324219 261.238281 132.910156 265.097656 C 132.9375 265.125 132.96875 265.140625 133.003906 265.144531 C 138.84375 268.160156 144.898438 270.660156 151.164062 272.644531 C 151.210938 272.691406 151.304688 272.691406 151.351562 272.738281 C 157.132812 274.554688 163.011719 275.917969 169 276.835938 C 174.984375 277.753906 181.003906 278.210938 187.0625 278.210938 C 193.117188 278.210938 199.136719 277.753906 205.125 276.835938 C 211.109375 275.917969 216.992188 274.554688 222.769531 272.738281 C 222.816406 272.691406 222.910156 272.691406 222.957031 272.644531 C 229.222656 270.660156 235.277344 268.160156 241.117188 265.144531 C 241.15625 265.140625 241.1875 265.125 241.210938 265.097656 C 248.800781 261.238281 255.875 256.601562 262.441406 251.183594 L 267.863281 265.617188 C 268.125 266.324219 268.332031 267.042969 268.484375 267.777344 C 268.640625 268.511719 268.742188 269.257812 268.792969 270.007812 C 268.839844 270.757812 268.835938 271.503906 268.773438 272.253906 C 268.714844 273.003906 268.601562 273.746094 268.433594 274.476562 C 268.269531 275.210938 268.050781 275.925781 267.78125 276.628906 C 267.511719 277.332031 267.191406 278.007812 266.824219 278.664062 C 266.457031 279.320312 266.042969 279.945312 265.585938 280.542969 C 265.128906 281.136719 264.628906 281.695312 264.089844 282.222656 Z M 268.902344 231.9375 L 268.902344 169.34375 C 268.902344 169.03125 268.871094 168.726562 268.8125 168.421875 C 268.75 168.117188 268.660156 167.824219 268.542969 167.539062 C 268.425781 167.25 268.277344 166.980469 268.105469 166.722656 C 267.933594 166.464844 267.738281 166.226562 267.519531 166.007812 C 267.300781 165.789062 267.0625 165.59375 266.804688 165.421875 C 266.546875 165.25 266.277344 165.101562 265.988281 164.984375 C 265.703125 164.867188 265.410156 164.777344 265.105469 164.714844 C 264.800781 164.65625 264.496094 164.625 264.183594 164.625 L 239.324219 164.625 C 239.015625 164.625 238.710938 164.65625 238.40625 164.714844 C 238.101562 164.777344 237.808594 164.867188 237.519531 164.984375 C 237.234375 165.101562 236.960938 165.25 236.707031 165.421875 C 236.449219 165.59375 236.210938 165.789062 235.992188 166.007812 C 235.773438 166.226562 235.574219 166.464844 235.402344 166.722656 C 235.230469 166.980469 235.085938 167.25 234.96875 167.539062 C 234.847656 167.824219 234.761719 168.117188 234.699219 168.421875 C 234.640625 168.726562 234.609375 169.03125 234.609375 169.34375 L 234.609375 257.882812 C 231.730469 259.296875 228.808594 260.523438 225.789062 261.703125 L 225.789062 200.851562 C 225.789062 200.542969 225.757812 200.234375 225.699219 199.933594 C 225.636719 199.628906 225.546875 199.332031 225.429688 199.046875 C 225.308594 198.761719 225.164062 198.488281 224.992188 198.230469 C 224.820312 197.972656 224.625 197.734375 224.40625 197.515625 C 224.1875 197.296875 223.949219 197.101562 223.691406 196.929688 C 223.433594 196.757812 223.164062 196.613281 222.875 196.496094 C 222.589844 196.375 222.296875 196.285156 221.992188 196.226562 C 221.6875 196.164062 221.378906 196.136719 221.070312 196.136719 L 196.210938 196.136719 C 195.902344 196.136719 195.597656 196.164062 195.292969 196.226562 C 194.988281 196.285156 194.691406 196.375 194.40625 196.496094 C 194.121094 196.613281 193.847656 196.757812 193.589844 196.929688 C 193.335938 197.101562 193.097656 197.296875 192.875 197.515625 C 192.65625 197.734375 192.460938 197.972656 192.289062 198.230469 C 192.117188 198.488281 191.972656 198.761719 191.855469 199.046875 C 191.734375 199.332031 191.644531 199.628906 191.585938 199.933594 C 191.527344 200.234375 191.496094 200.542969 191.496094 200.851562 L 191.496094 268.683594 C 190.03125 268.730469 188.570312 268.777344 187.0625 268.777344 C 185.550781 268.777344 184.089844 268.730469 182.628906 268.683594 L 182.628906 171.183594 C 182.628906 170.871094 182.597656 170.566406 182.535156 170.261719 C 182.476562 169.957031 182.386719 169.664062 182.269531 169.375 C 182.148438 169.089844 182.003906 168.820312 181.832031 168.5625 C 181.660156 168.304688 181.464844 168.066406 181.246094 167.847656 C 181.027344 167.628906 180.789062 167.433594 180.53125 167.261719 C 180.273438 167.085938 180 166.941406 179.714844 166.824219 C 179.429688 166.707031 179.132812 166.617188 178.832031 166.554688 C 178.527344 166.496094 178.21875 166.464844 177.910156 166.464844 L 153.050781 166.464844 C 152.742188 166.464844 152.433594 166.496094 152.132812 166.554688 C 151.828125 166.617188 151.53125 166.707031 151.246094 166.824219 C 150.960938 166.941406 150.6875 167.085938 150.429688 167.261719 C 150.171875 167.433594 149.933594 167.628906 149.714844 167.847656 C 149.496094 168.066406 149.300781 168.304688 149.128906 168.5625 C 148.957031 168.820312 148.8125 169.089844 148.695312 169.375 C 148.574219 169.664062 148.484375 169.957031 148.425781 170.261719 C 148.363281 170.566406 148.335938 170.871094 148.335938 171.183594 L 148.335938 261.703125 C 145.316406 260.523438 142.390625 259.296875 139.511719 257.882812 L 139.511719 207.265625 C 139.511719 206.957031 139.484375 206.652344 139.421875 206.347656 C 139.363281 206.042969 139.273438 205.75 139.15625 205.460938 C 139.035156 205.175781 138.890625 204.902344 138.71875 204.648438 C 138.546875 204.390625 138.351562 204.152344 138.132812 203.933594 C 137.914062 203.710938 137.675781 203.515625 137.417969 203.34375 C 137.160156 203.171875 136.886719 203.027344 136.601562 202.910156 C 136.316406 202.789062 136.019531 202.703125 135.714844 202.640625 C 135.414062 202.582031 135.105469 202.550781 134.796875 202.550781 L 109.9375 202.550781 C 109.628906 202.550781 109.320312 202.582031 109.015625 202.640625 C 108.714844 202.703125 108.417969 202.789062 108.132812 202.910156 C 107.847656 203.027344 107.574219 203.171875 107.316406 203.34375 C 107.058594 203.515625 106.820312 203.710938 106.601562 203.933594 C 106.382812 204.152344 106.1875 204.390625 106.015625 204.648438 C 105.84375 204.902344 105.699219 205.175781 105.578125 205.460938 C 105.460938 205.75 105.371094 206.042969 105.3125 206.347656 C 105.25 206.652344 105.21875 206.957031 105.21875 207.265625 L 105.21875 231.9375 C 104.058594 230.632812 102.933594 229.296875 101.835938 227.9375 C 100.738281 226.578125 99.675781 225.195312 98.644531 223.78125 C 97.613281 222.371094 96.617188 220.9375 95.65625 219.480469 C 94.695312 218.019531 93.769531 216.539062 92.878906 215.035156 C 91.988281 213.535156 91.132812 212.011719 90.316406 210.46875 C 89.5 208.921875 88.71875 207.359375 87.976562 205.78125 C 87.230469 204.199219 86.527344 202.601562 85.859375 200.984375 C 85.195312 199.371094 84.566406 197.742188 83.976562 196.097656 C 83.390625 194.453125 82.839844 192.792969 82.332031 191.121094 C 81.824219 189.453125 81.355469 187.769531 80.925781 186.074219 C 80.496094 184.382812 80.109375 182.679688 79.761719 180.96875 C 79.414062 179.253906 79.109375 177.535156 78.84375 175.808594 C 78.578125 174.082031 78.355469 172.351562 78.171875 170.613281 C 77.992188 168.875 77.851562 167.132812 77.753906 165.390625 C 77.65625 163.644531 77.597656 161.902344 77.582031 160.152344 C 77.566406 158.40625 77.59375 156.660156 77.664062 154.914062 C 77.730469 153.167969 77.84375 151.425781 77.996094 149.6875 C 78.144531 147.945312 78.339844 146.210938 78.574219 144.480469 C 78.808594 142.75 79.085938 141.023438 79.402344 139.304688 C 79.722656 137.589844 80.082031 135.878906 80.480469 134.179688 C 80.878906 132.476562 81.320312 130.789062 81.800781 129.109375 C 82.28125 127.429688 82.800781 125.761719 83.359375 124.105469 C 83.921875 122.453125 84.519531 120.8125 85.160156 119.1875 C 85.796875 117.558594 86.476562 115.949219 87.191406 114.355469 C 87.90625 112.761719 88.660156 111.1875 89.453125 109.628906 C 90.242188 108.074219 91.070312 106.535156 91.933594 105.015625 C 92.800781 103.5 93.699219 102.003906 94.636719 100.527344 C 95.574219 99.054688 96.542969 97.601562 97.550781 96.171875 C 98.554688 94.746094 99.597656 93.34375 100.667969 91.964844 C 101.742188 90.585938 102.847656 89.234375 103.984375 87.90625 C 105.125 86.582031 106.292969 85.285156 107.492188 84.015625 C 108.691406 82.746094 109.921875 81.503906 111.179688 80.292969 C 112.441406 79.082031 113.726562 77.902344 115.042969 76.753906 C 116.359375 75.605469 117.703125 74.488281 119.070312 73.402344 C 120.441406 72.316406 121.835938 71.265625 123.253906 70.25 C 124.675781 69.230469 126.117188 68.246094 127.582031 67.296875 C 129.050781 66.347656 130.539062 65.433594 132.050781 64.558594 C 133.558594 63.679688 135.089844 62.839844 136.640625 62.035156 C 138.191406 61.230469 139.761719 60.460938 141.347656 59.734375 C 142.933594 59.003906 144.539062 58.3125 146.160156 57.660156 C 147.78125 57.007812 149.414062 56.394531 151.066406 55.820312 C 152.714844 55.246094 154.378906 54.710938 156.050781 54.214844 C 157.726562 53.722656 159.414062 53.265625 161.113281 52.851562 C 162.808594 52.4375 164.515625 52.066406 166.230469 51.734375 C 167.945312 51.402344 169.667969 51.109375 171.394531 50.859375 C 173.125 50.609375 174.859375 50.402344 176.597656 50.234375 C 178.335938 50.066406 180.078125 49.941406 181.824219 49.859375 C 183.570312 49.773438 185.3125 49.734375 187.0625 49.734375 C 188.808594 49.734375 190.554688 49.773438 192.300781 49.859375 C 194.042969 49.941406 195.785156 50.066406 197.523438 50.234375 C 199.265625 50.402344 200.996094 50.609375 202.726562 50.859375 C 204.457031 51.109375 206.175781 51.402344 207.894531 51.734375 C 209.609375 52.066406 211.3125 52.4375 213.011719 52.851562 C 214.707031 53.265625 216.394531 53.722656 218.070312 54.214844 C 219.746094 54.710938 221.40625 55.246094 223.058594 55.820312 C 224.707031 56.394531 226.34375 57.007812 227.964844 57.660156 C 229.582031 58.3125 231.1875 59.003906 232.773438 59.734375 C 234.363281 60.460938 235.929688 61.230469 237.480469 62.035156 C 239.03125 62.839844 240.5625 63.679688 242.074219 64.558594 C 243.582031 65.433594 245.070312 66.347656 246.539062 67.296875 C 248.003906 68.246094 249.449219 69.230469 250.867188 70.25 C 252.289062 71.265625 253.683594 72.316406 255.050781 73.402344 C 256.421875 74.488281 257.761719 75.605469 259.078125 76.753906 C 260.394531 77.902344 261.683594 79.082031 262.941406 80.292969 C 264.199219 81.503906 265.429688 82.746094 266.628906 84.015625 C 267.832031 85.285156 269 86.582031 270.136719 87.90625 C 271.273438 89.234375 272.378906 90.585938 273.453125 91.964844 C 274.527344 93.34375 275.566406 94.746094 276.570312 96.171875 C 277.578125 97.601562 278.550781 99.054688 279.484375 100.527344 C 280.421875 102.003906 281.324219 103.5 282.1875 105.015625 C 283.050781 106.535156 283.878906 108.074219 284.671875 109.628906 C 285.460938 111.1875 286.214844 112.761719 286.933594 114.355469 C 287.648438 115.949219 288.324219 117.558594 288.964844 119.1875 C 289.601562 120.8125 290.203125 122.453125 290.761719 124.105469 C 291.320312 125.761719 291.84375 127.429688 292.324219 129.109375 C 292.804688 130.789062 293.242188 132.476562 293.640625 134.179688 C 294.042969 135.878906 294.402344 137.589844 294.71875 139.304688 C 295.035156 141.023438 295.3125 142.75 295.546875 144.480469 C 295.78125 146.210938 295.976562 147.945312 296.128906 149.6875 C 296.28125 151.425781 296.390625 153.167969 296.460938 154.914062 C 296.527344 156.660156 296.554688 158.40625 296.539062 160.152344 C 296.523438 161.902344 296.46875 163.644531 296.371094 165.390625 C 296.269531 167.132812 296.128906 168.875 295.949219 170.613281 C 295.765625 172.351562 295.542969 174.082031 295.277344 175.808594 C 295.015625 177.535156 294.707031 179.253906 294.359375 180.96875 C 294.015625 182.679688 293.625 184.382812 293.199219 186.074219 C 292.769531 187.769531 292.300781 189.453125 291.789062 191.121094 C 291.28125 192.792969 290.734375 194.453125 290.144531 196.097656 C 289.554688 197.742188 288.929688 199.371094 288.261719 200.984375 C 287.59375 202.601562 286.890625 204.199219 286.148438 205.78125 C 285.40625 207.359375 284.625 208.921875 283.804688 210.46875 C 282.988281 212.011719 282.132812 213.535156 281.242188 215.035156 C 280.351562 216.539062 279.425781 218.019531 278.464844 219.480469 C 277.503906 220.9375 276.507812 222.371094 275.476562 223.78125 C 274.445312 225.195312 273.382812 226.578125 272.289062 227.9375 C 271.191406 229.296875 270.0625 230.632812 268.902344 231.9375 Z M 268.902344 231.9375 " fill-opacity="1" fill-rule="nonzero"/><path fill="#7cebff" d="M 242.390625 77.5 C 241.496094 77.476562 240.605469 77.539062 239.722656 77.6875 C 238.835938 77.839844 237.976562 78.074219 237.136719 78.390625 C 236.300781 78.710938 235.5 79.109375 234.742188 79.585938 C 233.980469 80.0625 233.277344 80.609375 232.625 81.222656 C 231.972656 81.839844 231.386719 82.511719 230.863281 83.242188 C 230.34375 83.972656 229.902344 84.746094 229.53125 85.5625 C 229.164062 86.382812 228.878906 87.226562 228.679688 88.101562 C 228.476562 88.976562 228.363281 89.859375 228.335938 90.757812 C 228.339844 92.148438 228.566406 93.503906 229.019531 94.820312 C 229.472656 96.136719 230.125 97.34375 230.976562 98.445312 L 203.808594 132.691406 C 202.714844 132.257812 201.585938 131.957031 200.421875 131.792969 C 199.253906 131.632812 198.085938 131.609375 196.917969 131.730469 C 195.746094 131.847656 194.609375 132.105469 193.5 132.5 C 192.390625 132.890625 191.347656 133.414062 190.363281 134.058594 L 169.515625 120.519531 C 169.8125 119.472656 169.972656 118.402344 169.984375 117.3125 C 169.933594 116.421875 169.800781 115.546875 169.582031 114.679688 C 169.363281 113.816406 169.066406 112.980469 168.6875 112.171875 C 168.3125 111.363281 167.863281 110.597656 167.339844 109.875 C 166.820312 109.152344 166.234375 108.484375 165.585938 107.871094 C 164.9375 107.257812 164.238281 106.714844 163.484375 106.234375 C 162.734375 105.753906 161.941406 105.351562 161.113281 105.023438 C 160.285156 104.691406 159.433594 104.445312 158.558594 104.277344 C 157.679688 104.109375 156.796875 104.023438 155.90625 104.023438 C 155.011719 104.023438 154.128906 104.109375 153.253906 104.277344 C 152.378906 104.445312 151.527344 104.691406 150.695312 105.023438 C 149.867188 105.351562 149.078125 105.753906 148.324219 106.234375 C 147.574219 106.714844 146.875 107.257812 146.226562 107.871094 C 145.578125 108.484375 144.992188 109.152344 144.46875 109.875 C 143.945312 110.597656 143.496094 111.363281 143.121094 112.171875 C 142.746094 112.980469 142.445312 113.816406 142.230469 114.679688 C 142.011719 115.546875 141.875 116.421875 141.824219 117.3125 C 141.847656 119.605469 142.460938 121.730469 143.664062 123.679688 L 115.597656 153.398438 C 113.921875 152.785156 112.191406 152.472656 110.410156 152.457031 C 109.546875 152.507812 108.699219 152.640625 107.867188 152.859375 C 107.03125 153.074219 106.226562 153.371094 105.449219 153.746094 C 104.671875 154.117188 103.9375 154.5625 103.246094 155.078125 C 102.554688 155.597656 101.921875 156.175781 101.34375 156.816406 C 100.765625 157.453125 100.253906 158.144531 99.808594 158.882812 C 99.363281 159.621094 98.996094 160.398438 98.703125 161.210938 C 98.410156 162.019531 98.195312 162.851562 98.066406 163.703125 C 97.933594 164.558594 97.886719 165.414062 97.921875 166.277344 C 97.957031 167.136719 98.074219 167.988281 98.273438 168.828125 C 98.472656 169.664062 98.753906 170.476562 99.113281 171.261719 C 99.472656 172.046875 99.902344 172.789062 100.40625 173.488281 C 100.90625 174.191406 101.472656 174.835938 102.101562 175.425781 C 102.730469 176.015625 103.410156 176.542969 104.140625 177 C 104.871094 177.457031 105.636719 177.84375 106.445312 178.152344 C 107.25 178.460938 108.078125 178.6875 108.925781 178.835938 C 109.777344 178.984375 110.632812 179.050781 111.492188 179.03125 C 112.355469 179.015625 113.207031 178.914062 114.050781 178.730469 C 114.894531 178.542969 115.710938 178.28125 116.503906 177.9375 C 117.292969 177.59375 118.042969 177.179688 118.753906 176.6875 C 119.464844 176.199219 120.121094 175.648438 120.726562 175.03125 C 121.328125 174.414062 121.867188 173.746094 122.339844 173.023438 C 122.8125 172.300781 123.210938 171.542969 123.535156 170.742188 C 123.859375 169.941406 124.105469 169.121094 124.269531 168.273438 C 124.433594 167.425781 124.515625 166.574219 124.511719 165.710938 C 124.488281 163.503906 123.921875 161.441406 122.816406 159.53125 L 150.976562 129.671875 C 152.039062 130.066406 153.136719 130.332031 154.261719 130.464844 C 155.390625 130.601562 156.515625 130.601562 157.644531 130.472656 C 158.769531 130.339844 159.867188 130.078125 160.929688 129.691406 C 161.996094 129.300781 163.003906 128.789062 163.949219 128.164062 L 184.796875 141.652344 C 184.496094 142.71875 184.339844 143.800781 184.324219 144.90625 C 184.375 145.796875 184.511719 146.671875 184.730469 147.535156 C 184.945312 148.398438 185.242188 149.234375 185.621094 150.042969 C 185.996094 150.847656 186.445312 151.613281 186.964844 152.335938 C 187.488281 153.054688 188.070312 153.722656 188.71875 154.332031 C 189.367188 154.945312 190.066406 155.488281 190.816406 155.96875 C 191.566406 156.445312 192.355469 156.851562 193.183594 157.179688 C 194.011719 157.507812 194.859375 157.753906 195.734375 157.921875 C 196.609375 158.089844 197.492188 158.171875 198.382812 158.171875 C 199.273438 158.171875 200.15625 158.089844 201.027344 157.921875 C 201.902344 157.753906 202.753906 157.507812 203.582031 157.179688 C 204.410156 156.851562 205.199219 156.445312 205.949219 155.96875 C 206.699219 155.488281 207.398438 154.945312 208.046875 154.332031 C 208.695312 153.722656 209.277344 153.054688 209.800781 152.335938 C 210.320312 151.613281 210.769531 150.847656 211.144531 150.042969 C 211.519531 149.234375 211.816406 148.398438 212.035156 147.535156 C 212.253906 146.671875 212.386719 145.796875 212.4375 144.90625 C 212.433594 142.792969 211.914062 140.8125 210.882812 138.964844 L 238.949219 103.585938 C 240.082031 103.847656 241.230469 103.988281 242.390625 104.011719 C 243.289062 104.035156 244.179688 103.972656 245.0625 103.824219 C 245.945312 103.675781 246.808594 103.441406 247.644531 103.121094 C 248.484375 102.800781 249.28125 102.402344 250.042969 101.925781 C 250.800781 101.449219 251.507812 100.90625 252.160156 100.289062 C 252.8125 99.675781 253.398438 99 253.917969 98.269531 C 254.441406 97.539062 254.882812 96.765625 255.25 95.949219 C 255.617188 95.132812 255.902344 94.285156 256.105469 93.410156 C 256.308594 92.539062 256.421875 91.652344 256.449219 90.757812 C 256.421875 89.859375 256.308594 88.976562 256.105469 88.101562 C 255.902344 87.226562 255.617188 86.382812 255.25 85.5625 C 254.882812 84.746094 254.4375 83.972656 253.917969 83.242188 C 253.398438 82.511719 252.8125 81.839844 252.160156 81.222656 C 251.507812 80.609375 250.800781 80.0625 250.042969 79.585938 C 249.28125 79.109375 248.484375 78.710938 247.644531 78.390625 C 246.808594 78.074219 245.945312 77.839844 245.0625 77.6875 C 244.179688 77.539062 243.289062 77.476562 242.390625 77.5 Z M 242.390625 77.5 " fill-opacity="1" fill-rule="nonzero"/></svg>