<svg xmlns="http://www.w3.org/2000/svg" xmlns:xlink="http://www.w3.org/1999/xlink" width="500" zoomAndPan="magnify" viewBox="0 0 375.12 383.03998" height="500" preserveAspectRatio="xMidYMid meet" version="1.0"><defs><clipPath id="ab574aabc3"><path d="M 37.4375 37.40625 L 336.6875 37.40625 L 336.6875 336.65625 L 37.4375 336.65625 Z M 37.4375 37.40625 " clip-rule="nonzero"/></clipPath></defs><g clip-path="url(#ab574aabc3)"><path fill="#7cebff" d="M 75.941406 311.175781 L 46.070312 311.175781 C 41.324219 311.175781 37.4375 307.289062 37.4375 302.542969 L 37.4375 243.152344 C 37.4375 238.402344 41.324219 234.515625 46.070312 234.515625 L 141.101562 234.515625 C 145.847656 234.515625 149.734375 238.402344 149.734375 243.152344 L 149.734375 302.542969 C 149.734375 307.289062 145.847656 311.175781 141.101562 311.175781 L 111.238281 311.175781 L 111.238281 324.894531 L 124.378906 324.894531 C 128.425781 324.894531 131.742188 327.539062 131.742188 330.773438 L 131.742188 336.65625 L 55.4375 336.65625 L 55.4375 330.773438 C 55.4375 327.539062 58.753906 324.894531 62.800781 324.894531 L 75.941406 324.894531 Z M 99.480469 263.496094 L 87.691406 263.496094 C 87.359375 263.496094 87.042969 263.625 86.808594 263.859375 C 86.574219 264.09375 86.445312 264.410156 86.445312 264.742188 L 86.445312 293.769531 C 86.445312 294.097656 86.574219 294.417969 86.808594 294.648438 C 87.042969 294.882812 87.359375 295.015625 87.691406 295.015625 L 99.480469 295.015625 C 99.8125 295.015625 100.128906 294.882812 100.363281 294.648438 C 100.597656 294.417969 100.726562 294.097656 100.726562 293.769531 L 100.726562 264.742188 C 100.726562 264.410156 100.597656 264.09375 100.363281 263.859375 C 100.128906 263.625 99.8125 263.496094 99.480469 263.496094 Z M 130.488281 251.027344 L 118.695312 251.027344 C 118.007812 251.027344 117.449219 251.585938 117.449219 252.273438 L 117.449219 293.769531 C 117.449219 294.457031 118.007812 295.015625 118.695312 295.015625 L 130.488281 295.015625 C 131.175781 295.015625 131.734375 294.457031 131.734375 293.769531 L 131.734375 252.273438 C 131.734375 251.585938 131.175781 251.027344 130.488281 251.027344 Z M 68.476562 275.964844 L 56.6875 275.964844 C 56.355469 275.964844 56.039062 276.09375 55.804688 276.328125 C 55.570312 276.5625 55.4375 276.878906 55.4375 277.210938 L 55.4375 293.769531 C 55.4375 294.097656 55.570312 294.417969 55.804688 294.648438 C 56.039062 294.882812 56.355469 295.015625 56.6875 295.015625 L 68.476562 295.015625 C 68.804688 295.015625 69.125 294.882812 69.359375 294.648438 C 69.589844 294.417969 69.722656 294.097656 69.722656 293.769531 L 69.722656 277.210938 C 69.722656 276.878906 69.589844 276.5625 69.359375 276.328125 C 69.125 276.09375 68.804688 275.964844 68.476562 275.964844 Z M 224.390625 277.109375 L 203.871094 277.109375 C 201.304688 277.109375 199.222656 275.03125 199.222656 272.464844 L 199.222656 239.164062 C 199.222656 236.597656 201.304688 234.515625 203.871094 234.515625 L 332.039062 234.515625 C 334.605469 234.515625 336.6875 236.597656 336.6875 239.164062 L 336.6875 272.464844 C 336.6875 275.03125 334.605469 277.109375 332.039062 277.109375 L 311.519531 277.109375 L 311.519531 294.0625 L 332.039062 294.0625 C 334.605469 294.0625 336.6875 296.140625 336.6875 298.707031 L 336.6875 332.007812 C 336.6875 334.574219 334.605469 336.65625 332.039062 336.65625 L 203.871094 336.65625 C 201.304688 336.65625 199.222656 334.574219 199.222656 332.007812 L 199.222656 298.707031 C 199.222656 296.140625 201.304688 294.0625 203.871094 294.0625 L 224.390625 294.0625 Z M 301.542969 294.0625 L 301.542969 277.109375 L 234.367188 277.109375 L 234.367188 294.0625 Z M 317.652344 250.828125 L 267.75 250.828125 C 264.996094 250.828125 262.761719 253.0625 262.761719 255.8125 C 262.761719 258.566406 264.996094 260.800781 267.75 260.800781 L 317.652344 260.800781 C 320.40625 260.800781 322.640625 258.566406 322.640625 255.8125 C 322.640625 253.0625 320.40625 250.828125 317.652344 250.828125 Z M 229.378906 305.414062 C 223.890625 305.414062 219.433594 309.871094 219.433594 315.359375 C 219.433594 320.847656 223.890625 325.304688 229.378906 325.304688 C 234.867188 325.304688 239.324219 320.847656 239.324219 315.359375 C 239.324219 309.871094 234.867188 305.414062 229.378906 305.414062 Z M 317.652344 310.371094 L 267.75 310.371094 C 264.996094 310.371094 262.761719 312.605469 262.761719 315.359375 C 262.761719 318.113281 264.996094 320.347656 267.75 320.347656 L 317.652344 320.347656 C 320.40625 320.347656 322.640625 318.113281 322.640625 315.359375 C 322.640625 312.605469 320.40625 310.371094 317.652344 310.371094 Z M 229.378906 245.871094 C 223.890625 245.871094 219.433594 250.324219 219.433594 255.8125 C 219.433594 261.300781 223.890625 265.757812 229.378906 265.757812 C 234.867188 265.757812 239.324219 261.300781 239.324219 255.8125 C 239.324219 250.324219 234.867188 245.871094 229.378906 245.871094 Z M 254.742188 151.921875 L 128.6875 151.921875 C 109.125 151.921875 93.242188 136.039062 93.242188 116.476562 C 93.242188 97.429688 108.300781 81.871094 127.15625 81.066406 C 128.773438 56.699219 149.078125 37.40625 173.851562 37.40625 C 192.773438 37.40625 209.089844 48.660156 216.460938 64.832031 C 219.339844 64.03125 222.375 63.601562 225.507812 63.601562 C 244.113281 63.601562 259.214844 78.703125 259.214844 97.304688 C 259.214844 98.214844 259.179688 99.117188 259.105469 100.007812 C 271.457031 102.089844 280.878906 112.84375 280.878906 125.785156 C 280.878906 140.210938 269.167969 151.921875 254.742188 151.921875 Z M 214.121094 111.835938 C 205.589844 102.503906 193.785156 96.769531 180.777344 96.769531 C 167.753906 96.769531 155.964844 102.503906 147.433594 111.835938 C 145.578125 113.867188 145.71875 117.027344 147.75 118.882812 C 149.785156 120.742188 152.941406 120.597656 154.796875 118.566406 C 161.449219 111.285156 170.617188 106.746094 180.777344 106.746094 C 190.925781 106.746094 200.101562 111.285156 206.757812 118.566406 C 208.613281 120.597656 211.769531 120.742188 213.800781 118.882812 C 215.835938 117.027344 215.976562 113.867188 214.121094 111.835938 Z M 166.441406 131.320312 C 170.113281 127.300781 175.167969 124.777344 180.777344 124.777344 C 186.375 124.777344 191.4375 127.300781 195.113281 131.320312 C 196.972656 133.351562 200.128906 133.496094 202.160156 131.636719 C 204.191406 129.78125 204.335938 126.621094 202.476562 124.589844 C 196.925781 118.515625 189.234375 114.800781 180.777344 114.800781 C 172.304688 114.800781 164.628906 118.515625 159.078125 124.589844 C 157.21875 126.621094 157.359375 129.78125 159.394531 131.636719 C 161.425781 133.496094 164.582031 133.351562 166.441406 131.320312 Z M 143.140625 105.824219 C 152.785156 95.273438 166.078125 88.714844 180.777344 88.714844 C 195.472656 88.714844 208.765625 95.273438 218.394531 105.824219 C 220.253906 107.855469 223.410156 108 225.441406 106.144531 C 227.476562 104.289062 227.621094 101.132812 225.761719 99.097656 C 214.257812 86.492188 198.335938 78.738281 180.777344 78.738281 C 163.21875 78.738281 147.300781 86.492188 135.78125 99.097656 C 133.921875 101.128906 134.066406 104.285156 136.097656 106.140625 C 138.128906 108 141.285156 107.855469 143.140625 105.824219 Z M 88.597656 224.539062 L 88.597656 193.222656 C 88.597656 190.46875 90.832031 188.234375 93.585938 188.234375 L 175.785156 188.234375 L 175.785156 161.898438 L 185.757812 161.898438 L 185.757812 188.234375 L 267.953125 188.234375 C 270.710938 188.234375 272.941406 190.46875 272.941406 193.222656 L 272.941406 224.539062 L 262.96875 224.539062 L 262.96875 198.210938 L 98.574219 198.210938 L 98.574219 224.539062 Z M 88.597656 224.539062 " fill-opacity="1" fill-rule="evenodd"/></g></svg>