<svg xmlns="http://www.w3.org/2000/svg" xmlns:xlink="http://www.w3.org/1999/xlink" width="500" zoomAndPan="magnify" viewBox="0 0 375.12 383.03998" height="500" preserveAspectRatio="xMidYMid meet" version="1.0"><defs><clipPath id="5cc63de7d4"><path d="M 37.4375 37.40625 L 336.6875 37.40625 L 336.6875 336.65625 L 37.4375 336.65625 Z M 37.4375 37.40625 " clip-rule="nonzero"/></clipPath></defs><g clip-path="url(#5cc63de7d4)"><path fill="#7cebff" d="M 327.550781 135.6875 C 333.457031 151.671875 336.609375 168.996094 336.609375 187.03125 C 336.609375 269.640625 269.671875 336.578125 187.0625 336.578125 C 152.332031 336.578125 120.359375 324.765625 95.003906 304.921875 L 79.644531 318.230469 C 78.308594 319.410156 76.574219 319.726562 74.921875 319.09375 C 73.1875 318.464844 72.164062 317.046875 71.929688 315.234375 L 65.863281 260.664062 C 65.628906 259.085938 66.257812 257.589844 67.519531 256.566406 C 68.777344 255.542969 70.355469 255.230469 71.851562 255.703125 L 122.40625 271.609375 C 124.0625 272.160156 125.164062 273.421875 125.558594 275.152344 C 125.871094 276.804688 125.320312 278.460938 124.0625 279.640625 L 110.671875 291.296875 C 132.015625 306.96875 158.476562 316.261719 187.0625 316.261719 C 258.410156 316.261719 316.289062 258.378906 316.289062 187.03125 C 316.289062 172.542969 313.925781 158.601562 309.515625 145.609375 C 308.886719 143.640625 309.515625 141.59375 311.171875 140.332031 L 320.386719 133.558594 C 321.644531 132.613281 323.0625 132.378906 324.558594 132.851562 C 325.976562 133.246094 327.078125 134.269531 327.550781 135.6875 Z M 187.0625 143.5625 C 211 143.5625 230.453125 163.011719 230.453125 187.03125 C 230.453125 210.972656 211 230.421875 187.0625 230.421875 C 163.042969 230.421875 143.589844 210.972656 143.589844 187.03125 C 143.589844 163.011719 163.042969 143.5625 187.0625 143.5625 Z M 211.945312 107.730469 C 216.59375 109.226562 221.160156 111.117188 225.492188 113.320312 C 226.828125 114.03125 227.539062 115.527344 227.222656 117.023438 C 225.414062 125.054688 227.695312 133.796875 233.917969 140.097656 C 240.21875 146.394531 248.957031 148.601562 256.992188 146.867188 C 258.488281 146.476562 259.984375 147.183594 260.691406 148.523438 C 262.898438 152.855469 264.789062 157.421875 266.285156 162.144531 C 266.757812 163.5625 266.203125 165.058594 264.945312 165.925781 C 257.9375 170.335938 253.367188 178.132812 253.367188 187.03125 C 253.367188 195.851562 257.9375 203.648438 264.945312 208.058594 C 266.203125 208.921875 266.757812 210.421875 266.285156 211.917969 C 264.789062 216.5625 262.898438 221.128906 260.691406 225.460938 C 259.984375 226.800781 258.488281 227.507812 256.992188 227.195312 C 248.957031 225.382812 240.21875 227.667969 233.917969 233.886719 C 227.695312 240.1875 225.414062 248.929688 227.222656 256.960938 C 227.539062 258.457031 226.828125 259.953125 225.492188 260.664062 C 221.160156 262.867188 216.59375 264.757812 211.945312 266.253906 C 210.449219 266.726562 208.953125 266.175781 208.085938 264.914062 C 203.675781 257.90625 195.882812 253.339844 187.0625 253.339844 C 178.164062 253.339844 170.367188 257.90625 165.957031 264.914062 C 165.089844 266.175781 163.59375 266.726562 162.175781 266.253906 C 157.453125 264.757812 152.882812 262.867188 148.550781 260.664062 C 147.214844 259.953125 146.503906 258.457031 146.898438 256.960938 C 148.632812 248.929688 146.425781 240.1875 140.125 233.886719 C 133.828125 227.667969 125.085938 225.382812 117.050781 227.195312 C 115.554688 227.507812 114.058594 226.800781 113.351562 225.460938 C 111.144531 221.128906 109.257812 216.5625 107.761719 211.917969 C 107.289062 210.421875 107.839844 208.921875 109.175781 208.058594 C 116.109375 203.648438 120.675781 195.851562 120.675781 187.03125 C 120.675781 178.132812 116.109375 170.335938 109.175781 165.925781 C 107.839844 165.058594 107.289062 163.5625 107.761719 162.144531 C 109.257812 157.421875 111.144531 152.855469 113.351562 148.523438 C 114.058594 147.183594 115.554688 146.476562 117.050781 146.867188 C 125.085938 148.601562 133.828125 146.394531 140.125 140.097656 C 146.425781 133.796875 148.632812 125.054688 146.898438 117.023438 C 146.503906 115.527344 147.214844 114.03125 148.550781 113.320312 C 152.882812 111.117188 157.453125 109.226562 162.175781 107.730469 C 163.59375 107.257812 165.089844 107.808594 165.957031 109.148438 C 170.367188 116.078125 178.164062 120.644531 187.0625 120.644531 C 195.882812 120.644531 203.675781 116.078125 208.085938 109.148438 C 208.953125 107.808594 210.449219 107.257812 211.945312 107.730469 Z M 187.0625 37.40625 C 221.710938 37.40625 253.683594 49.21875 279.042969 69.0625 L 294.398438 55.753906 C 295.734375 54.574219 297.46875 54.257812 299.203125 54.890625 C 300.855469 55.519531 301.878906 56.9375 302.113281 58.746094 L 308.179688 113.320312 C 308.414062 114.894531 307.785156 116.390625 306.523438 117.417969 C 305.265625 118.441406 303.691406 118.753906 302.195312 118.28125 L 251.636719 102.375 C 249.984375 101.824219 248.878906 100.5625 248.484375 98.832031 C 248.171875 97.175781 248.722656 95.523438 249.984375 94.34375 L 263.371094 82.6875 C 242.027344 67.015625 215.570312 57.722656 187.0625 57.722656 C 115.636719 57.722656 57.753906 115.605469 57.753906 187.03125 C 57.753906 201.441406 60.117188 215.382812 64.527344 228.375 C 65.234375 230.34375 64.527344 232.390625 62.871094 233.652344 L 53.660156 240.421875 C 52.398438 241.367188 50.980469 241.605469 49.484375 241.132812 C 48.066406 240.738281 46.964844 239.714844 46.492188 238.296875 C 40.664062 222.3125 37.4375 204.984375 37.4375 187.03125 C 37.4375 104.34375 104.375 37.40625 187.0625 37.40625 Z M 187.0625 37.40625 " fill-opacity="1" fill-rule="evenodd"/></g></svg>