<svg xmlns="http://www.w3.org/2000/svg" xmlns:xlink="http://www.w3.org/1999/xlink" width="500" zoomAndPan="magnify" viewBox="0 0 375.12 383.03998" height="500" preserveAspectRatio="xMidYMid meet" version="1.0"><defs><clipPath id="b64fe5c414"><path d="M 37.4375 71.445312 L 336.6875 71.445312 L 336.6875 302 L 37.4375 302 Z M 37.4375 71.445312 " clip-rule="nonzero"/></clipPath></defs><g clip-path="url(#b64fe5c414)"><path fill="#7cebff" d="M 186.925781 71.417969 C 185.476562 71.445312 183.679688 72.058594 181.4375 74.105469 C 179.097656 76.234375 176.5 79.878906 174.261719 84.796875 C 172.390625 88.917969 170.902344 94 169.691406 99.445312 C 169.570312 100.003906 169.914062 100.546875 170.464844 100.671875 C 170.554688 100.691406 170.648438 100.699219 170.738281 100.691406 C 176.144531 100.460938 181.585938 100.289062 187.046875 100.289062 C 192.523438 100.289062 197.957031 100.460938 203.371094 100.691406 C 203.941406 100.71875 204.417969 100.277344 204.445312 99.710938 C 204.445312 99.617188 204.4375 99.527344 204.417969 99.4375 C 203.199219 93.976562 201.699219 88.90625 199.820312 84.777344 C 197.589844 79.859375 195.011719 76.214844 192.671875 74.085938 C 190.433594 72.042969 188.632812 71.445312 187.183594 71.410156 L 186.925781 71.410156 Z M 202.40625 73.765625 C 201.839844 73.8125 201.417969 74.308594 201.460938 74.875 C 201.472656 75.050781 201.539062 75.214844 201.628906 75.363281 C 205.710938 81.523438 208.972656 90.167969 210.996094 100.296875 C 211.089844 100.757812 211.484375 101.097656 211.953125 101.121094 C 219.496094 101.609375 226.792969 102.363281 233.804688 103.269531 C 234.363281 103.34375 234.878906 102.949219 234.960938 102.390625 C 234.988281 102.195312 234.953125 101.988281 234.867188 101.8125 C 228.574219 88.394531 216.933594 78.242188 202.785156 73.828125 C 202.667969 73.777344 202.535156 73.765625 202.40625 73.765625 Z M 171.546875 73.777344 C 171.472656 73.785156 171.40625 73.804688 171.335938 73.832031 C 157.191406 78.246094 145.546875 88.394531 139.257812 101.804688 C 139.011719 102.316406 139.230469 102.929688 139.738281 103.171875 C 139.914062 103.261719 140.121094 103.296875 140.316406 103.269531 C 147.335938 102.355469 154.621094 101.609375 162.167969 101.121094 C 162.636719 101.097656 163.03125 100.757812 163.128906 100.296875 C 165.15625 90.175781 168.414062 81.53125 172.492188 75.378906 C 172.804688 74.90625 172.683594 74.269531 172.207031 73.957031 C 172.015625 73.820312 171.777344 73.765625 171.546875 73.777344 Z M 187.0625 106.390625 C 181.050781 106.390625 175.070312 106.601562 169.167969 106.878906 C 168.683594 106.90625 168.289062 107.265625 168.207031 107.742188 C 167.460938 113.054688 166.945312 118.585938 166.945312 124.214844 C 166.945312 129.855469 167.46875 135.375 168.222656 140.6875 C 168.289062 141.171875 168.691406 141.539062 169.179688 141.566406 C 175.085938 141.851562 181.050781 142.042969 187.0625 142.042969 C 193.082031 142.042969 199.042969 141.84375 204.953125 141.566406 C 205.4375 141.539062 205.847656 141.171875 205.914062 140.6875 C 206.667969 135.371094 207.191406 129.847656 207.191406 124.214844 C 207.191406 118.585938 206.675781 113.070312 205.914062 107.757812 C 205.847656 107.273438 205.445312 106.90625 204.953125 106.878906 C 199.050781 106.601562 193.082031 106.390625 187.0625 106.390625 Z M 160.707031 107.320312 C 152.410156 107.90625 144.40625 108.777344 136.875 109.859375 C 136.46875 109.921875 136.140625 110.21875 136.039062 110.613281 C 134.855469 115.054688 134.242188 119.617188 134.242188 124.214844 C 134.242188 128.8125 134.863281 133.402344 136.054688 137.84375 C 136.167969 138.234375 136.488281 138.519531 136.890625 138.574219 C 144.410156 139.65625 152.417969 140.539062 160.707031 141.125 C 161.269531 141.171875 161.769531 140.75 161.816406 140.183594 C 161.816406 140.109375 161.816406 140.042969 161.808594 139.96875 C 161.167969 134.839844 160.824219 129.535156 160.824219 124.214844 C 160.824219 118.898438 161.164062 113.585938 161.808594 108.464844 C 161.875 107.898438 161.46875 107.390625 160.910156 107.328125 C 160.84375 107.320312 160.773438 107.316406 160.707031 107.320312 Z M 213.320312 107.347656 C 212.75 107.355469 212.300781 107.820312 212.308594 108.382812 C 212.308594 108.417969 212.3125 108.457031 212.3125 108.492188 C 212.953125 113.613281 213.300781 118.902344 213.300781 124.222656 C 213.300781 129.546875 212.953125 134.851562 212.3125 139.972656 C 212.238281 140.539062 212.632812 141.046875 213.203125 141.125 C 213.273438 141.128906 213.347656 141.136719 213.414062 141.128906 C 221.714844 140.546875 229.710938 139.660156 237.246094 138.578125 C 237.648438 138.519531 237.972656 138.226562 238.082031 137.839844 C 239.265625 133.398438 239.878906 128.820312 239.878906 124.222656 C 239.871094 119.632812 239.261719 115.054688 238.070312 110.621094 C 237.960938 110.226562 237.632812 109.933594 237.234375 109.878906 C 229.710938 108.796875 221.707031 107.941406 213.414062 107.355469 C 213.386719 107.347656 213.347656 107.347656 213.320312 107.347656 Z M 140.261719 145.171875 C 140.195312 145.171875 140.121094 145.171875 140.050781 145.183594 C 139.488281 145.257812 139.09375 145.777344 139.167969 146.332031 C 139.179688 146.433594 139.207031 146.539062 139.257812 146.625 C 145.546875 160.042969 157.175781 170.207031 171.324219 174.625 C 171.867188 174.789062 172.4375 174.484375 172.601562 173.933594 C 172.683594 173.648438 172.644531 173.332031 172.480469 173.082031 C 168.398438 166.914062 165.148438 158.253906 163.128906 148.136719 C 163.03125 147.671875 162.636719 147.332031 162.167969 147.3125 C 154.621094 146.824219 147.335938 146.082031 140.316406 145.175781 C 140.304688 145.175781 140.28125 145.171875 140.261719 145.171875 Z M 234.042969 145.171875 C 233.960938 145.171875 233.894531 145.171875 233.820312 145.183594 C 226.808594 146.09375 219.507812 146.828125 211.953125 147.320312 C 211.492188 147.339844 211.089844 147.679688 210.996094 148.140625 C 208.972656 158.269531 205.710938 166.925781 201.628906 173.089844 C 201.324219 173.566406 201.460938 174.203125 201.933594 174.503906 C 202.1875 174.667969 202.492188 174.714844 202.785156 174.625 C 216.9375 170.210938 228.582031 160.042969 234.878906 146.625 C 235.117188 146.117188 234.90625 145.496094 234.390625 145.257812 C 234.28125 145.210938 234.164062 145.175781 234.042969 145.171875 Z M 170.574219 147.769531 C 170.011719 147.835938 169.609375 148.351562 169.683594 148.910156 C 169.691406 148.9375 169.691406 148.972656 169.699219 149 C 170.910156 154.445312 172.390625 159.527344 174.269531 163.648438 C 176.507812 168.574219 179.105469 172.199219 181.445312 174.328125 C 183.6875 176.375 185.476562 176.992188 186.933594 177.019531 C 186.9375 177.019531 186.945312 177.019531 186.960938 177.019531 C 186.992188 177.019531 187.027344 177.019531 187.066406 177.019531 C 187.109375 177.019531 187.136719 177.019531 187.175781 177.019531 C 187.183594 177.019531 187.191406 177.019531 187.203125 177.019531 C 188.652344 176.992188 190.460938 176.378906 192.707031 174.332031 C 195.046875 172.203125 197.625 168.566406 199.855469 163.65625 C 201.722656 159.535156 203.234375 154.445312 204.453125 148.992188 C 204.574219 148.433594 204.214844 147.890625 203.65625 147.773438 C 203.574219 147.761719 203.492188 147.753906 203.40625 147.753906 C 197.992188 147.984375 192.550781 148.128906 187.082031 148.128906 C 181.613281 148.128906 176.171875 147.984375 170.773438 147.753906 C 170.691406 147.761719 170.628906 147.761719 170.574219 147.769531 Z M 93.769531 153.972656 C 93.769531 153.972656 93.742188 153.976562 93.714844 153.984375 L 93.703125 153.984375 C 93.683594 153.984375 93.648438 153.984375 93.632812 153.984375 L 92.421875 153.984375 C 83.839844 153.984375 76.921875 160.921875 76.921875 169.496094 L 76.921875 219.894531 L 44.980469 219.894531 C 40.796875 219.902344 37.4375 223.273438 37.4375 227.457031 L 37.4375 279.535156 C 37.4375 283.714844 40.796875 287.089844 44.980469 287.089844 L 71.054688 287.089844 C 71.019531 287.410156 70.972656 287.742188 70.933594 288.0625 C 70.707031 290.082031 70.488281 292.027344 69.742188 293.671875 C 69.449219 294.3125 69.046875 294.835938 68.613281 295.25 L 63.734375 295.25 C 62.675781 295.242188 61.8125 296.101562 61.804688 297.160156 C 61.804688 297.386719 61.839844 297.597656 61.914062 297.816406 L 62.921875 300.683594 C 63.199219 301.453125 63.917969 301.964844 64.742188 301.964844 L 98.246094 301.964844 C 99.0625 301.964844 99.789062 301.460938 100.066406 300.683594 L 101.074219 297.816406 C 101.429688 296.820312 100.90625 295.714844 99.90625 295.359375 C 99.695312 295.292969 99.476562 295.25 99.25 295.25 L 94.257812 295.25 C 93.824219 294.828125 93.445312 294.304688 93.15625 293.671875 C 92.410156 292.027344 92.179688 290.082031 91.949219 288.054688 C 91.914062 287.730469 91.867188 287.410156 91.824219 287.082031 L 117.886719 287.082031 C 122.070312 287.082031 125.441406 283.710938 125.441406 279.527344 L 125.441406 227.457031 C 125.441406 223.273438 122.070312 219.902344 117.886719 219.902344 L 84.023438 219.902344 L 84.023438 169.503906 C 84.023438 164.714844 87.664062 161.085938 92.429688 161.085938 L 129.355469 161.085938 C 131.320312 161.085938 132.898438 159.5 132.898438 157.542969 C 132.898438 155.582031 131.3125 153.984375 129.355469 153.984375 L 93.769531 153.984375 Z M 244.761719 153.972656 C 242.804688 153.972656 241.21875 155.570312 241.21875 157.527344 C 241.21875 159.488281 242.804688 161.070312 244.761719 161.070312 L 281.683594 161.070312 C 286.453125 161.070312 290.089844 164.710938 290.089844 169.492188 L 290.089844 219.886719 L 256.222656 219.886719 C 252.039062 219.886719 248.664062 223.261719 248.664062 227.445312 L 248.664062 279.511719 C 248.664062 283.695312 252.039062 287.070312 256.222656 287.070312 L 282.285156 287.070312 C 282.242188 287.390625 282.203125 287.722656 282.160156 288.042969 C 281.929688 290.070312 281.710938 292.011719 280.964844 293.660156 C 280.671875 294.296875 280.269531 294.824219 279.835938 295.238281 L 274.960938 295.238281 C 273.898438 295.230469 273.035156 296.085938 273.035156 297.148438 C 273.027344 297.371094 273.070312 297.582031 273.144531 297.800781 L 274.148438 300.671875 C 274.429688 301.441406 275.148438 301.949219 275.972656 301.949219 L 309.480469 301.949219 C 310.296875 301.949219 311.027344 301.445312 311.304688 300.671875 L 312.3125 297.800781 C 312.671875 296.808594 312.140625 295.699219 311.140625 295.347656 C 310.9375 295.277344 310.710938 295.238281 310.5 295.238281 L 305.511719 295.238281 C 305.074219 294.816406 304.6875 294.292969 304.394531 293.660156 C 303.652344 292.011719 303.414062 290.070312 303.183594 288.042969 C 303.144531 287.714844 303.101562 287.394531 303.0625 287.070312 L 329.136719 287.070312 C 333.320312 287.070312 336.679688 283.695312 336.679688 279.511719 L 336.679688 227.457031 C 336.679688 223.273438 333.320312 219.902344 329.136719 219.902344 L 297.191406 219.902344 L 297.191406 169.503906 C 297.191406 160.921875 290.269531 153.992188 281.691406 153.992188 L 280.480469 153.992188 C 280.46875 153.992188 280.441406 153.992188 280.414062 153.992188 L 280.398438 153.992188 C 280.371094 153.992188 280.34375 153.976562 280.34375 153.976562 L 244.761719 153.976562 Z M 187.0625 185.8125 C 185.109375 185.8125 183.519531 187.390625 183.519531 189.351562 L 183.519531 219.902344 L 150.613281 219.902344 C 146.429688 219.902344 143.058594 223.273438 143.058594 227.457031 L 143.058594 279.535156 C 143.058594 283.714844 146.429688 287.089844 150.613281 287.089844 L 176.675781 287.089844 C 176.640625 287.410156 176.59375 287.742188 176.554688 288.0625 C 176.320312 290.089844 176.105469 292.035156 175.355469 293.679688 C 175.0625 294.320312 174.664062 294.84375 174.226562 295.257812 L 169.351562 295.257812 C 168.289062 295.25 167.425781 296.109375 167.417969 297.167969 C 167.417969 297.394531 167.453125 297.605469 167.527344 297.820312 L 168.535156 300.691406 C 168.8125 301.460938 169.535156 301.96875 170.359375 301.96875 L 203.859375 301.96875 C 204.675781 301.96875 205.402344 301.46875 205.683594 300.691406 L 206.6875 297.820312 C 207.050781 296.828125 206.519531 295.71875 205.519531 295.367188 C 205.308594 295.296875 205.089844 295.257812 204.867188 295.257812 L 199.886719 295.257812 C 199.453125 294.835938 199.066406 294.3125 198.773438 293.679688 C 198.03125 292.035156 197.792969 290.089844 197.5625 288.0625 C 197.519531 287.734375 197.480469 287.414062 197.441406 287.089844 L 223.5 287.089844 C 227.683594 287.089844 231.058594 283.714844 231.058594 279.535156 L 231.058594 227.457031 C 231.058594 223.273438 227.683594 219.902344 223.5 219.902344 L 190.597656 219.902344 L 190.597656 189.351562 C 190.605469 187.398438 189.011719 185.8125 187.0625 185.8125 Z M 45.101562 226.503906 L 117.777344 226.503906 C 118.371094 226.503906 118.851562 226.980469 118.851562 227.578125 C 118.851562 227.578125 118.851562 227.585938 118.851562 227.59375 L 118.851562 273.726562 L 44.027344 273.726562 L 44.027344 227.601562 C 44.019531 227 44.496094 226.519531 45.085938 226.511719 C 45.085938 226.503906 45.09375 226.503906 45.101562 226.503906 Z M 150.714844 226.503906 L 223.394531 226.503906 C 223.992188 226.503906 224.46875 226.980469 224.46875 227.578125 C 224.46875 227.578125 224.46875 227.585938 224.46875 227.59375 L 224.46875 273.726562 L 149.640625 273.726562 L 149.640625 227.601562 C 149.632812 227 150.109375 226.519531 150.703125 226.511719 C 150.710938 226.503906 150.710938 226.503906 150.714844 226.503906 Z M 256.335938 226.503906 L 329.015625 226.503906 C 329.613281 226.503906 330.089844 226.980469 330.089844 227.578125 C 330.089844 227.578125 330.089844 227.585938 330.089844 227.59375 L 330.089844 273.726562 L 255.257812 273.726562 L 255.257812 227.59375 C 255.25 226.996094 255.71875 226.511719 256.316406 226.503906 C 256.324219 226.503906 256.332031 226.503906 256.335938 226.503906 Z M 81.378906 277.960938 C 81.398438 277.960938 81.417969 277.960938 81.445312 277.960938 C 82.792969 277.960938 83.875 279.050781 83.875 280.390625 C 83.875 280.398438 83.875 280.402344 83.875 280.402344 C 83.875 281.742188 82.785156 282.832031 81.445312 282.832031 C 80.105469 282.832031 79.019531 281.742188 79.019531 280.402344 C 79.003906 279.085938 80.058594 278.003906 81.378906 277.960938 Z M 186.992188 277.960938 C 187.011719 277.960938 187.035156 277.960938 187.0625 277.960938 C 188.40625 277.960938 189.488281 279.050781 189.488281 280.390625 C 189.488281 280.398438 189.488281 280.402344 189.488281 280.402344 C 189.488281 281.742188 188.402344 282.832031 187.0625 282.832031 C 185.722656 282.832031 184.632812 281.742188 184.632812 280.402344 C 184.625 279.085938 185.671875 278.003906 186.992188 277.960938 Z M 292.613281 277.960938 C 292.640625 277.960938 292.65625 277.960938 292.683594 277.960938 C 294.023438 277.960938 295.109375 279.050781 295.109375 280.390625 C 295.109375 280.398438 295.109375 280.402344 295.109375 280.402344 C 295.109375 281.742188 294.023438 282.832031 292.683594 282.832031 C 291.34375 282.832031 290.253906 281.742188 290.253906 280.402344 C 290.242188 279.085938 291.289062 278.003906 292.613281 277.960938 Z M 292.613281 277.960938 " fill-opacity="1" fill-rule="nonzero"/></g></svg>