<svg xmlns="http://www.w3.org/2000/svg" xmlns:xlink="http://www.w3.org/1999/xlink" width="500" zoomAndPan="magnify" viewBox="0 0 375 374.999991" height="500" preserveAspectRatio="xMidYMid meet" version="1.0"><defs><clipPath id="b0df3213a7"><path d="M 37.5 68.0625 L 337.5 68.0625 L 337.5 307 L 37.5 307 Z M 37.5 68.0625 " clip-rule="nonzero"/></clipPath></defs><g clip-path="url(#b0df3213a7)"><path fill="#7cebff" d="M 246.0625 220.972656 C 245.785156 220.4375 245.644531 219.871094 245.644531 219.269531 C 245.644531 218.667969 245.785156 218.101562 246.0625 217.566406 C 247.726562 214.367188 249.109375 211.050781 250.207031 207.613281 C 250.390625 207.058594 250.691406 206.570312 251.105469 206.15625 C 251.519531 205.742188 252.007812 205.441406 252.5625 205.257812 L 268.503906 200.078125 L 268.503906 174.9375 L 252.5625 169.757812 C 252 169.566406 251.511719 169.261719 251.097656 168.839844 C 250.683594 168.414062 250.386719 167.921875 250.207031 167.355469 C 249.097656 163.925781 247.714844 160.609375 246.0625 157.402344 C 245.785156 156.878906 245.648438 156.316406 245.648438 155.722656 C 245.648438 155.128906 245.785156 154.566406 246.0625 154.042969 L 253.671875 139.089844 L 235.886719 121.320312 L 220.949219 128.929688 C 220.425781 129.207031 219.863281 129.347656 219.269531 129.347656 C 218.675781 129.347656 218.113281 129.207031 217.589844 128.929688 C 214.378906 127.289062 211.0625 125.90625 207.636719 124.785156 C 207.070312 124.601562 206.578125 124.300781 206.15625 123.882812 C 205.734375 123.464844 205.425781 122.976562 205.234375 122.414062 L 200.054688 106.488281 L 174.914062 106.488281 L 169.734375 122.414062 C 169.546875 122.972656 169.242188 123.460938 168.824219 123.875 C 168.410156 124.292969 167.921875 124.597656 167.363281 124.785156 C 163.9375 125.898438 160.625 127.28125 157.425781 128.929688 C 156.898438 129.207031 156.335938 129.347656 155.738281 129.347656 C 155.140625 129.347656 154.578125 129.207031 154.050781 128.929688 L 139.085938 121.320312 L 121.296875 139.089844 L 128.953125 154.042969 C 129.210938 154.574219 129.335938 155.136719 129.328125 155.726562 C 129.320312 156.320312 129.179688 156.878906 128.90625 157.402344 C 127.28125 160.613281 125.917969 163.933594 124.808594 167.355469 C 124.625 167.925781 124.320312 168.421875 123.894531 168.84375 C 123.472656 169.265625 122.976562 169.570312 122.40625 169.757812 L 106.464844 174.9375 L 106.464844 200.078125 L 122.40625 205.257812 C 122.972656 205.4375 123.464844 205.738281 123.886719 206.152344 C 124.308594 206.566406 124.617188 207.054688 124.808594 207.613281 C 125.902344 211.042969 127.269531 214.359375 128.90625 217.566406 C 129.179688 218.097656 129.320312 218.664062 129.328125 219.265625 C 129.335938 219.863281 129.210938 220.433594 128.953125 220.972656 L 121.296875 235.910156 L 139.085938 253.695312 L 154.050781 246.085938 C 154.578125 245.808594 155.140625 245.667969 155.738281 245.667969 C 156.335938 245.667969 156.898438 245.808594 157.425781 246.085938 C 160.628906 247.722656 163.941406 249.085938 167.363281 250.183594 C 167.925781 250.375 168.414062 250.683594 168.832031 251.105469 C 169.25 251.527344 169.550781 252.019531 169.734375 252.585938 L 174.914062 268.527344 L 200.054688 268.527344 L 205.234375 252.585938 C 205.421875 252.015625 205.726562 251.519531 206.148438 251.097656 C 206.570312 250.671875 207.066406 250.371094 207.636719 250.183594 C 211.0625 249.078125 214.378906 247.714844 217.589844 246.085938 C 218.113281 245.808594 218.675781 245.667969 219.269531 245.667969 C 219.863281 245.667969 220.425781 245.808594 220.949219 246.085938 L 235.886719 253.695312 L 253.671875 235.910156 Z M 187.476562 232.574219 C 127.660156 230.097656 127.722656 144.855469 187.476562 142.394531 C 194.230469 142.410156 200.6875 143.804688 206.722656 146.71875 C 209.121094 147.933594 219.027344 153.367188 224.792969 162.132812 C 245.238281 191.3125 223.1875 233.042969 187.476562 232.574219 Z M 321.820312 68.0625 C 342.683594 68.722656 342.683594 98.984375 321.820312 99.644531 C 300.941406 98.984375 300.941406 68.722656 321.820312 68.0625 Z M 53.179688 99.644531 C 32.300781 98.984375 32.300781 68.722656 53.179688 68.0625 C 74.042969 68.722656 74.042969 98.984375 53.179688 99.644531 Z M 321.820312 306.9375 C 300.941406 306.277344 300.925781 276.015625 321.820312 275.339844 C 342.683594 276.015625 342.683594 306.277344 321.820312 306.9375 Z M 53.179688 306.9375 C 32.300781 306.277344 32.300781 276.015625 53.179688 275.339844 C 74.042969 276 74.042969 306.277344 53.179688 306.9375 Z M 53.179688 203.289062 C 32.300781 202.628906 32.300781 172.371094 53.179688 171.710938 C 74.042969 172.371094 74.042969 202.628906 53.179688 203.289062 Z M 321.820312 203.289062 C 300.941406 202.628906 300.925781 172.371094 321.820312 171.710938 C 342.683594 172.371094 342.683594 202.628906 321.820312 203.289062 Z M 76.039062 87.546875 C 76.464844 85.085938 76.464844 82.621094 76.039062 80.160156 L 95.222656 80.160156 C 95.714844 80.160156 96.183594 80.253906 96.632812 80.445312 C 97.089844 80.628906 97.488281 80.894531 97.835938 81.242188 L 129.355469 112.761719 C 132.765625 116.199219 127.542969 121.378906 124.117188 117.988281 L 93.691406 87.546875 Z M 279.777344 80.160156 L 298.945312 80.160156 C 298.519531 82.621094 298.519531 85.085938 298.945312 87.546875 L 281.308594 87.546875 L 250.867188 117.988281 C 250.519531 118.332031 250.121094 118.597656 249.667969 118.785156 C 249.214844 118.972656 248.746094 119.066406 248.253906 119.066406 C 247.765625 119.066406 247.292969 118.972656 246.84375 118.785156 C 246.390625 118.597656 245.992188 118.332031 245.644531 117.984375 C 245.296875 117.640625 245.03125 117.238281 244.84375 116.789062 C 244.65625 116.335938 244.5625 115.863281 244.5625 115.375 C 244.5625 114.886719 244.65625 114.414062 244.84375 113.960938 C 245.03125 113.507812 245.296875 113.109375 245.644531 112.761719 L 277.148438 81.242188 C 277.878906 80.523438 278.753906 80.160156 279.777344 80.160156 Z M 129.355469 262.238281 L 97.835938 293.757812 C 97.113281 294.476562 96.242188 294.835938 95.222656 294.839844 L 76.039062 294.839844 C 76.464844 292.378906 76.464844 289.914062 76.039062 287.453125 L 93.691406 287.453125 L 124.117188 257.011719 C 127.570312 253.605469 132.75 258.8125 129.355469 262.238281 Z M 298.945312 287.453125 C 298.519531 289.914062 298.519531 292.378906 298.945312 294.839844 L 279.777344 294.839844 C 278.753906 294.839844 277.878906 294.476562 277.148438 293.757812 L 245.644531 262.238281 C 242.21875 258.800781 247.445312 253.621094 250.867188 257.011719 L 281.308594 287.453125 Z M 76.039062 191.191406 C 76.464844 188.730469 76.464844 186.269531 76.039062 183.808594 L 93.527344 183.808594 C 98.390625 183.882812 98.390625 191.117188 93.527344 191.191406 Z M 281.457031 183.808594 L 298.945312 183.808594 C 298.519531 186.269531 298.519531 188.730469 298.945312 191.191406 L 281.457031 191.191406 C 280.96875 191.191406 280.496094 191.097656 280.042969 190.910156 C 279.59375 190.722656 279.191406 190.457031 278.847656 190.109375 C 278.5 189.765625 278.234375 189.367188 278.046875 188.914062 C 277.859375 188.460938 277.765625 187.988281 277.765625 187.5 C 277.765625 187.011719 277.859375 186.539062 278.046875 186.085938 C 278.234375 185.632812 278.5 185.234375 278.847656 184.890625 C 279.191406 184.542969 279.59375 184.277344 280.042969 184.089844 C 280.496094 183.902344 280.96875 183.808594 281.457031 183.808594 Z M 281.457031 183.808594 " fill-opacity="1" fill-rule="nonzero"/></g></svg>