<svg xmlns="http://www.w3.org/2000/svg" xmlns:xlink="http://www.w3.org/1999/xlink" width="500" zoomAndPan="magnify" viewBox="0 0 375.12 383.03998" height="500" preserveAspectRatio="xMidYMid meet" version="1.0"><defs><clipPath id="4191ee53ea"><path d="M 44 70 L 336.6875 70 L 336.6875 314.585938 L 44 314.585938 Z M 44 70 " clip-rule="nonzero"/></clipPath></defs><path fill="#7cebff" d="M 180.675781 295.472656 L 206.605469 295.472656 C 207.171875 295.472656 207.734375 295.417969 208.289062 295.308594 C 208.84375 295.199219 209.386719 295.035156 209.910156 294.820312 C 210.433594 294.605469 210.929688 294.339844 211.402344 294.023438 C 211.871094 293.707031 212.308594 293.351562 212.710938 292.949219 C 213.109375 292.550781 213.46875 292.113281 213.78125 291.640625 C 214.097656 291.171875 214.363281 290.671875 214.578125 290.148438 C 214.796875 289.625 214.957031 289.085938 215.070312 288.53125 C 215.179688 287.972656 215.234375 287.414062 215.230469 286.847656 L 215.230469 273.101562 C 215.230469 272.535156 215.175781 271.976562 215.0625 271.421875 C 214.953125 270.863281 214.789062 270.324219 214.570312 269.804688 C 214.355469 269.28125 214.089844 268.785156 213.773438 268.3125 C 213.457031 267.84375 213.101562 267.40625 212.699219 267.007812 C 212.300781 266.605469 211.863281 266.25 211.394531 265.933594 C 210.921875 265.621094 210.425781 265.351562 209.902344 265.136719 C 209.382812 264.917969 208.84375 264.753906 208.285156 264.644531 C 207.730469 264.53125 207.171875 264.476562 206.605469 264.476562 L 180.675781 264.476562 C 180.113281 264.480469 179.554688 264.539062 179 264.652344 C 178.449219 264.761719 177.910156 264.929688 177.390625 265.148438 C 176.871094 265.367188 176.375 265.632812 175.910156 265.949219 C 175.441406 266.261719 175.007812 266.621094 174.609375 267.019531 C 174.210938 267.421875 173.855469 267.855469 173.542969 268.324219 C 173.230469 268.796875 172.96875 269.292969 172.753906 269.8125 C 172.535156 270.335938 172.375 270.871094 172.265625 271.425781 C 172.152344 271.980469 172.097656 272.539062 172.097656 273.101562 L 172.097656 286.847656 C 172.097656 287.410156 172.152344 287.96875 172.257812 288.523438 C 172.367188 289.078125 172.53125 289.617188 172.746094 290.140625 C 172.957031 290.664062 173.222656 291.160156 173.535156 291.628906 C 173.847656 292.101562 174.203125 292.535156 174.601562 292.9375 C 175 293.335938 175.433594 293.695312 175.902344 294.007812 C 176.371094 294.324219 176.867188 294.589844 177.386719 294.808594 C 177.90625 295.027344 178.445312 295.191406 179 295.304688 C 179.550781 295.414062 180.113281 295.472656 180.675781 295.472656 Z M 181.847656 274.222656 L 205.484375 274.222656 L 205.484375 285.726562 L 181.847656 285.726562 Z M 181.847656 274.222656 " fill-opacity="1" fill-rule="nonzero"/><path fill="#7cebff" d="M 288.683594 273.054688 L 310.367188 273.054688 C 310.6875 273.054688 311.003906 273.023438 311.320312 272.960938 C 311.632812 272.898438 311.9375 272.804688 312.234375 272.683594 C 312.527344 272.558594 312.808594 272.410156 313.074219 272.230469 C 313.339844 272.054688 313.585938 271.851562 313.8125 271.625 C 314.039062 271.398438 314.242188 271.152344 314.421875 270.886719 C 314.597656 270.621094 314.75 270.339844 314.871094 270.042969 C 314.992188 269.75 315.085938 269.445312 315.148438 269.128906 C 315.210938 268.816406 315.242188 268.5 315.242188 268.179688 C 315.242188 267.859375 315.210938 267.542969 315.148438 267.230469 C 315.085938 266.914062 314.992188 266.609375 314.871094 266.316406 C 314.75 266.019531 314.597656 265.738281 314.421875 265.472656 C 314.242188 265.207031 314.039062 264.960938 313.8125 264.734375 C 313.585938 264.507812 313.339844 264.304688 313.074219 264.128906 C 312.808594 263.949219 312.527344 263.800781 312.234375 263.675781 C 311.9375 263.554688 311.632812 263.460938 311.320312 263.398438 C 311.003906 263.335938 310.6875 263.304688 310.367188 263.304688 L 288.683594 263.304688 C 288.363281 263.304688 288.046875 263.335938 287.734375 263.398438 C 287.417969 263.460938 287.113281 263.554688 286.820312 263.675781 C 286.523438 263.800781 286.242188 263.949219 285.976562 264.128906 C 285.710938 264.304688 285.464844 264.507812 285.238281 264.734375 C 285.011719 264.960938 284.808594 265.207031 284.632812 265.472656 C 284.453125 265.738281 284.304688 266.019531 284.179688 266.316406 C 284.058594 266.609375 283.964844 266.914062 283.902344 267.230469 C 283.84375 267.542969 283.8125 267.859375 283.8125 268.179688 C 283.8125 268.5 283.84375 268.816406 283.902344 269.128906 C 283.964844 269.445312 284.058594 269.75 284.179688 270.042969 C 284.304688 270.339844 284.453125 270.621094 284.632812 270.886719 C 284.808594 271.152344 285.011719 271.398438 285.238281 271.625 C 285.464844 271.851562 285.710938 272.054688 285.976562 272.230469 C 286.242188 272.410156 286.523438 272.558594 286.820312 272.683594 C 287.113281 272.804688 287.417969 272.898438 287.734375 272.960938 C 288.046875 273.023438 288.363281 273.054688 288.683594 273.054688 Z M 288.683594 273.054688 " fill-opacity="1" fill-rule="nonzero"/><path fill="#7cebff" d="M 275.464844 294.308594 L 310.367188 294.308594 C 310.6875 294.308594 311.003906 294.277344 311.320312 294.214844 C 311.632812 294.152344 311.9375 294.058594 312.234375 293.9375 C 312.527344 293.816406 312.808594 293.664062 313.074219 293.488281 C 313.339844 293.308594 313.585938 293.105469 313.8125 292.878906 C 314.039062 292.652344 314.242188 292.40625 314.421875 292.140625 C 314.597656 291.875 314.75 291.59375 314.871094 291.300781 C 314.992188 291.003906 315.085938 290.699219 315.148438 290.386719 C 315.210938 290.070312 315.242188 289.753906 315.242188 289.433594 C 315.242188 289.113281 315.210938 288.796875 315.148438 288.484375 C 315.085938 288.167969 314.992188 287.863281 314.871094 287.570312 C 314.75 287.273438 314.597656 286.992188 314.421875 286.726562 C 314.242188 286.460938 314.039062 286.214844 313.8125 285.988281 C 313.585938 285.761719 313.339844 285.558594 313.074219 285.382812 C 312.808594 285.203125 312.527344 285.054688 312.234375 284.929688 C 311.9375 284.808594 311.632812 284.714844 311.320312 284.652344 C 311.003906 284.589844 310.6875 284.558594 310.367188 284.558594 L 275.464844 284.558594 C 275.148438 284.558594 274.828125 284.589844 274.515625 284.652344 C 274.203125 284.714844 273.898438 284.808594 273.601562 284.929688 C 273.304688 285.054688 273.023438 285.203125 272.757812 285.382812 C 272.492188 285.558594 272.246094 285.761719 272.019531 285.988281 C 271.792969 286.214844 271.59375 286.460938 271.414062 286.726562 C 271.238281 286.992188 271.085938 287.273438 270.964844 287.570312 C 270.839844 287.863281 270.75 288.167969 270.6875 288.484375 C 270.625 288.796875 270.59375 289.113281 270.59375 289.433594 C 270.59375 289.753906 270.625 290.070312 270.6875 290.386719 C 270.75 290.699219 270.839844 291.003906 270.964844 291.300781 C 271.085938 291.59375 271.238281 291.875 271.414062 292.140625 C 271.59375 292.40625 271.792969 292.652344 272.019531 292.878906 C 272.246094 293.105469 272.492188 293.308594 272.757812 293.488281 C 273.023438 293.664062 273.304688 293.816406 273.601562 293.9375 C 273.898438 294.058594 274.203125 294.152344 274.515625 294.214844 C 274.828125 294.277344 275.148438 294.308594 275.464844 294.308594 Z M 275.464844 294.308594 " fill-opacity="1" fill-rule="nonzero"/><g clip-path="url(#4191ee53ea)"><path fill="#7cebff" d="M 322.746094 192.734375 L 248.179688 192.734375 C 249.394531 186.375 249.996094 179.957031 249.980469 173.480469 C 249.980469 173.382812 250.03125 173.382812 250.03125 173.289062 C 250.03125 173.191406 249.980469 173.191406 249.980469 173.140625 C 249.960938 164.667969 248.910156 156.324219 246.832031 148.113281 C 244.753906 139.898438 241.710938 132.0625 237.699219 124.597656 C 237.589844 124.359375 237.457031 124.132812 237.308594 123.914062 C 235.863281 121.277344 234.304688 118.707031 232.632812 116.203125 C 230.960938 113.703125 229.183594 111.277344 227.296875 108.929688 C 225.414062 106.585938 223.429688 104.328125 221.347656 102.152344 C 219.261719 99.980469 217.089844 97.90625 214.824219 95.925781 C 212.558594 93.945312 210.210938 92.066406 207.78125 90.289062 C 205.351562 88.515625 202.847656 86.851562 200.269531 85.296875 C 197.695312 83.742188 195.054688 82.300781 192.351562 80.976562 C 189.648438 79.652344 186.894531 78.453125 184.085938 77.371094 C 181.277344 76.289062 178.425781 75.332031 175.535156 74.5 C 172.640625 73.667969 169.71875 72.964844 166.765625 72.390625 C 163.8125 71.816406 160.835938 71.371094 157.84375 71.058594 C 154.851562 70.746094 151.851562 70.5625 148.839844 70.511719 C 145.832031 70.464844 142.828125 70.546875 139.824219 70.757812 C 136.824219 70.972656 133.835938 71.316406 130.867188 71.792969 C 127.894531 72.269531 124.949219 72.875 122.03125 73.609375 C 119.113281 74.34375 116.230469 75.203125 113.386719 76.191406 C 110.546875 77.179688 107.75 78.289062 105.007812 79.519531 C 102.261719 80.753906 99.574219 82.105469 96.949219 83.570312 C 94.320312 85.039062 91.765625 86.621094 89.277344 88.3125 C 86.789062 90.007812 84.378906 91.804688 82.046875 93.710938 C 79.71875 95.613281 77.476562 97.617188 75.320312 99.71875 C 73.167969 101.820312 71.109375 104.011719 69.148438 106.292969 C 67.1875 108.574219 65.328125 110.9375 63.574219 113.382812 C 61.820312 115.828125 60.175781 118.347656 58.640625 120.9375 C 57.109375 123.523438 55.691406 126.175781 54.390625 128.890625 C 53.089844 131.605469 51.910156 134.371094 50.851562 137.1875 C 49.792969 140.003906 48.863281 142.863281 48.054688 145.761719 C 47.25 148.660156 46.570312 151.589844 46.019531 154.550781 C 45.46875 157.507812 45.050781 160.484375 44.761719 163.480469 C 44.476562 166.476562 44.316406 169.476562 44.292969 172.488281 C 44.269531 175.496094 44.375 178.5 44.613281 181.5 C 44.851562 184.5 45.222656 187.484375 45.722656 190.453125 C 46.226562 193.417969 46.855469 196.359375 47.613281 199.273438 C 48.371094 202.183594 49.257812 205.058594 50.269531 207.890625 C 51.28125 210.726562 52.414062 213.511719 53.667969 216.246094 C 54.925781 218.980469 56.296875 221.65625 57.789062 224.269531 C 59.28125 226.882812 60.882812 229.425781 62.59375 231.902344 C 64.308594 234.375 66.128906 236.769531 68.050781 239.082031 C 69.976562 241.398438 71.996094 243.621094 74.117188 245.757812 C 76.238281 247.894531 78.445312 249.933594 80.742188 251.878906 C 83.042969 253.820312 85.421875 255.65625 87.882812 257.390625 C 90.339844 259.125 92.871094 260.746094 95.472656 262.257812 C 98.078125 263.769531 100.738281 265.164062 103.464844 266.445312 C 106.1875 267.722656 108.964844 268.878906 111.789062 269.910156 C 114.617188 270.945312 117.484375 271.851562 120.390625 272.636719 C 123.292969 273.417969 126.230469 274.070312 129.191406 274.597656 C 132.15625 275.121094 135.136719 275.515625 138.132812 275.777344 C 141.132812 276.042969 144.136719 276.171875 147.144531 276.171875 C 148.21875 276.171875 149.242188 276.074219 150.3125 276.027344 L 150.3125 300.832031 C 150.3125 301.75 150.402344 302.65625 150.578125 303.554688 C 150.757812 304.453125 151.023438 305.324219 151.371094 306.167969 C 151.722656 307.015625 152.152344 307.816406 152.660156 308.578125 C 153.167969 309.339844 153.746094 310.042969 154.394531 310.691406 C 155.042969 311.339844 155.746094 311.917969 156.507812 312.425781 C 157.269531 312.933594 158.070312 313.363281 158.917969 313.714844 C 159.761719 314.0625 160.632812 314.328125 161.53125 314.507812 C 162.429688 314.683594 163.335938 314.773438 164.25 314.773438 L 322.746094 314.773438 C 323.660156 314.769531 324.566406 314.679688 325.464844 314.5 C 326.363281 314.320312 327.230469 314.054688 328.078125 313.703125 C 328.921875 313.351562 329.722656 312.921875 330.484375 312.414062 C 331.246094 311.90625 331.949219 311.328125 332.59375 310.683594 C 333.242188 310.035156 333.820312 309.332031 334.328125 308.570312 C 334.835938 307.8125 335.265625 307.007812 335.617188 306.164062 C 335.96875 305.320312 336.234375 304.449219 336.414062 303.550781 C 336.59375 302.65625 336.683594 301.75 336.6875 300.832031 L 336.6875 206.671875 C 336.683594 205.757812 336.59375 204.851562 336.414062 203.957031 C 336.234375 203.058594 335.96875 202.1875 335.617188 201.34375 C 335.265625 200.5 334.835938 199.695312 334.328125 198.933594 C 333.820312 198.175781 333.242188 197.472656 332.59375 196.824219 C 331.949219 196.179688 331.246094 195.601562 330.484375 195.089844 C 329.722656 194.582031 328.921875 194.152344 328.078125 193.800781 C 327.230469 193.453125 326.363281 193.1875 325.464844 193.007812 C 324.566406 192.828125 323.660156 192.734375 322.746094 192.734375 Z M 240.089844 168.414062 L 196.078125 168.414062 C 195.84375 155.859375 194.464844 143.429688 191.933594 131.128906 L 230.046875 131.128906 C 233.011719 136.921875 235.339844 142.960938 237.03125 149.242188 C 238.722656 155.523438 239.742188 161.914062 240.089844 168.414062 Z M 239.992188 178.160156 C 239.800781 183.066406 239.214844 187.921875 238.234375 192.734375 L 195.296875 192.734375 C 195.738281 187.910156 195.980469 183.035156 196.125 178.160156 Z M 224.34375 121.382812 L 189.644531 121.382812 C 188.015625 114.484375 185.671875 107.839844 182.617188 101.449219 C 179.558594 95.054688 175.859375 89.0625 171.515625 83.464844 C 176.867188 84.929688 182.046875 86.855469 187.058594 89.242188 C 192.066406 91.632812 196.824219 94.445312 201.332031 97.679688 C 205.84375 100.914062 210.03125 104.523438 213.894531 108.503906 C 217.761719 112.488281 221.246094 116.777344 224.34375 121.382812 Z M 186.378906 168.414062 L 107.910156 168.414062 C 108.164062 155.84375 109.625 143.414062 112.296875 131.128906 L 181.992188 131.128906 C 184.636719 143.417969 186.097656 155.847656 186.378906 168.414062 Z M 147.144531 80.246094 C 159.769531 80.246094 172.148438 96.183594 179.554688 121.382812 L 114.734375 121.382812 C 122.09375 96.183594 134.523438 80.246094 147.144531 80.246094 Z M 122.777344 83.511719 C 118.417969 89.09375 114.707031 95.078125 111.640625 101.464844 C 108.574219 107.851562 106.226562 114.488281 104.597656 121.382812 L 69.945312 121.382812 C 73.039062 116.773438 76.515625 112.480469 80.378906 108.496094 C 84.242188 104.511719 88.429688 100.90625 92.9375 97.671875 C 97.449219 94.441406 102.210938 91.632812 107.222656 89.253906 C 112.234375 86.875 117.417969 84.960938 122.777344 83.511719 Z M 64.191406 131.128906 L 102.304688 131.128906 C 99.800781 143.433594 98.421875 155.859375 98.164062 168.414062 L 54.152344 168.414062 C 54.511719 161.917969 55.535156 155.527344 57.226562 149.246094 C 58.917969 142.964844 61.238281 136.925781 64.191406 131.128906 Z M 54.152344 178.160156 L 98.164062 178.160156 C 98.421875 190.746094 99.800781 203.207031 102.304688 215.542969 L 64.191406 215.542969 C 61.234375 209.730469 58.90625 203.675781 57.214844 197.378906 C 55.523438 191.078125 54.503906 184.671875 54.152344 178.160156 Z M 69.945312 225.289062 L 104.597656 225.289062 C 106.226562 232.183594 108.574219 238.820312 111.640625 245.207031 C 114.707031 251.59375 118.417969 257.578125 122.777344 263.160156 C 117.417969 261.710938 112.234375 259.796875 107.222656 257.417969 C 102.210938 255.039062 97.449219 252.230469 92.9375 249 C 88.429688 245.765625 84.242188 242.160156 80.378906 238.175781 C 76.515625 234.191406 73.039062 229.898438 69.945312 225.289062 Z M 150.3125 266.082031 C 149.269531 266.320312 148.214844 266.433594 147.144531 266.425781 C 134.523438 266.425781 122.09375 250.488281 114.734375 225.289062 L 150.3125 225.289062 Z M 150.3125 206.671875 L 150.3125 215.542969 L 112.296875 215.542969 C 109.625 203.222656 108.160156 190.765625 107.910156 178.160156 L 186.378906 178.160156 C 186.28125 183.035156 186.039062 187.910156 185.597656 192.734375 L 164.253906 192.734375 C 163.335938 192.734375 162.429688 192.820312 161.53125 193 C 160.632812 193.179688 159.761719 193.441406 158.917969 193.792969 C 158.070312 194.144531 157.269531 194.574219 156.507812 195.082031 C 155.746094 195.589844 155.042969 196.167969 154.394531 196.816406 C 153.746094 197.460938 153.167969 198.167969 152.660156 198.925781 C 152.152344 199.6875 151.722656 200.492188 151.371094 201.335938 C 151.023438 202.183594 150.757812 203.054688 150.578125 203.953125 C 150.402344 204.851562 150.3125 205.757812 150.3125 206.671875 Z M 326.9375 300.832031 C 326.9375 301.109375 326.910156 301.382812 326.859375 301.652344 C 326.804688 301.921875 326.726562 302.183594 326.621094 302.4375 C 326.515625 302.691406 326.386719 302.933594 326.230469 303.164062 C 326.078125 303.390625 325.90625 303.601562 325.710938 303.796875 C 325.515625 303.992188 325.304688 304.167969 325.074219 304.320312 C 324.847656 304.472656 324.605469 304.601562 324.351562 304.707031 C 324.097656 304.8125 323.835938 304.890625 323.566406 304.945312 C 323.296875 305 323.023438 305.027344 322.746094 305.027344 L 164.253906 305.027344 C 163.976562 305.027344 163.703125 305.003906 163.433594 304.949219 C 163.160156 304.898438 162.898438 304.820312 162.644531 304.714844 C 162.386719 304.609375 162.144531 304.480469 161.917969 304.328125 C 161.6875 304.175781 161.472656 304 161.28125 303.804688 C 161.085938 303.613281 160.910156 303.398438 160.757812 303.167969 C 160.605469 302.941406 160.476562 302.699219 160.371094 302.441406 C 160.265625 302.1875 160.1875 301.925781 160.136719 301.652344 C 160.082031 301.382812 160.058594 301.109375 160.058594 300.832031 L 160.058594 253.703125 L 326.9375 253.703125 Z M 326.9375 215.882812 L 160.058594 215.882812 L 160.058594 206.671875 C 160.058594 206.398438 160.085938 206.125 160.140625 205.855469 C 160.195312 205.585938 160.273438 205.324219 160.378906 205.070312 C 160.484375 204.8125 160.613281 204.574219 160.765625 204.34375 C 160.917969 204.113281 161.09375 203.902344 161.289062 203.707031 C 161.484375 203.515625 161.695312 203.339844 161.921875 203.1875 C 162.152344 203.035156 162.394531 202.90625 162.648438 202.800781 C 162.902344 202.695312 163.164062 202.617188 163.433594 202.5625 C 163.703125 202.507812 163.976562 202.480469 164.253906 202.480469 L 322.746094 202.480469 C 323.023438 202.484375 323.292969 202.511719 323.5625 202.566406 C 323.832031 202.621094 324.09375 202.703125 324.347656 202.808594 C 324.601562 202.914062 324.839844 203.042969 325.070312 203.195312 C 325.296875 203.347656 325.507812 203.523438 325.703125 203.71875 C 325.898438 203.910156 326.070312 204.121094 326.222656 204.351562 C 326.375 204.578125 326.507812 204.820312 326.613281 205.074219 C 326.71875 205.328125 326.796875 205.585938 326.851562 205.855469 C 326.910156 206.125 326.9375 206.398438 326.9375 206.671875 Z M 326.9375 215.882812 " fill-opacity="1" fill-rule="nonzero"/></g></svg>