<svg xmlns="http://www.w3.org/2000/svg" xmlns:xlink="http://www.w3.org/1999/xlink" width="500" zoomAndPan="magnify" viewBox="0 0 375.12 383.03998" height="500" preserveAspectRatio="xMidYMid meet" version="1.0"><defs><clipPath id="f70ba6ed30"><path d="M 37.4375 39 L 310 39 L 310 336 L 37.4375 336 Z M 37.4375 39 " clip-rule="nonzero"/></clipPath><clipPath id="f10f0eea8b"><path d="M 148 54 L 336.6875 54 L 336.6875 181 L 148 181 Z M 148 54 " clip-rule="nonzero"/></clipPath></defs><g clip-path="url(#f70ba6ed30)"><path fill="#7cebff" d="M 93.019531 217.675781 C 94.449219 222.226562 96.300781 226.757812 98.527344 231.136719 C 99.058594 232.183594 98.859375 233.457031 98.023438 234.28125 L 60.492188 271.75 L 100.761719 312.015625 L 138.269531 274.441406 C 139.105469 273.640625 140.351562 273.449219 141.375 273.980469 C 145.734375 276.195312 150.261719 278.046875 154.84375 279.488281 C 155.96875 279.84375 156.742188 280.886719 156.742188 282.074219 L 156.742188 335.164062 L 213.679688 335.164062 L 213.679688 282.074219 C 213.679688 280.886719 214.449219 279.847656 215.578125 279.488281 C 220.15625 278.046875 224.683594 276.199219 229.042969 273.980469 C 230.074219 273.449219 231.3125 273.644531 232.148438 274.441406 L 233.722656 275.949219 L 269.660156 312.011719 L 309.925781 271.742188 L 308.121094 269.941406 L 185.207031 269.941406 C 167.957031 269.941406 151.449219 264.683594 137.480469 254.738281 C 115.621094 239.3125 102.5625 214.097656 102.5625 187.296875 C 102.5625 142.632812 138.171875 106.128906 182.496094 104.699219 L 182.496094 39.445312 L 156.742188 39.445312 L 156.742188 92.527344 C 156.742188 93.710938 155.972656 94.761719 154.84375 95.113281 C 150.289062 96.546875 145.757812 98.394531 141.375 100.621094 C 140.335938 101.152344 139.0625 100.957031 138.234375 100.117188 L 100.761719 62.585938 L 60.492188 102.855469 L 98.023438 140.328125 C 98.851562 141.15625 99.058594 142.425781 98.527344 143.472656 C 96.304688 147.851562 94.457031 152.382812 93.019531 156.9375 C 92.667969 158.066406 91.617188 158.835938 90.433594 158.835938 L 37.347656 158.835938 L 37.347656 215.773438 L 90.433594 215.773438 C 91.617188 215.773438 92.667969 216.542969 93.019531 217.675781 Z M 93.019531 217.675781 " fill-opacity="1" fill-rule="nonzero"/></g><path fill="#7cebff" d="M 161.355469 212.261719 L 193.457031 212.261719 L 193.457031 244.371094 L 161.355469 244.371094 Z M 161.355469 212.261719 " fill-opacity="1" fill-rule="nonzero"/><path fill="#7cebff" d="M 220.152344 159.097656 L 252.257812 159.097656 L 252.257812 244.367188 L 220.152344 244.367188 Z M 220.152344 159.097656 " fill-opacity="1" fill-rule="nonzero"/><path fill="#7cebff" d="M 278.945312 109.480469 L 311.050781 109.480469 L 311.050781 244.371094 L 278.945312 244.371094 Z M 278.945312 109.480469 " fill-opacity="1" fill-rule="nonzero"/><g clip-path="url(#f10f0eea8b)"><path fill="#7cebff" d="M 330.722656 55.335938 L 303.59375 76.332031 C 303.019531 76.773438 302.292969 76.960938 301.574219 76.871094 C 300.851562 76.773438 300.203125 76.394531 299.769531 75.808594 L 284.941406 56.042969 C 284.214844 55.074219 283.011719 54.445312 281.976562 54.539062 C 280.621094 54.574219 279.492188 55.203125 278.816406 56.210938 L 233.820312 123.710938 C 233.351562 124.40625 232.59375 124.851562 231.757812 124.910156 C 230.941406 124.980469 230.105469 124.640625 229.546875 124.015625 L 213.21875 105.828125 C 212.453125 104.980469 211.078125 104.671875 210.058594 104.5625 C 209.300781 104.597656 208.273438 105.078125 207.570312 105.902344 L 149.40625 174.078125 C 148.753906 174.839844 148.441406 175.808594 148.515625 176.808594 C 148.59375 177.804688 149.058594 178.714844 149.824219 179.367188 C 151.347656 180.671875 153.808594 180.476562 155.113281 178.941406 L 208.492188 116.386719 C 209 115.796875 209.738281 115.449219 210.519531 115.4375 C 211.308594 115.480469 212.054688 115.757812 212.566406 116.339844 L 229.523438 135.230469 C 230.289062 136.089844 231.457031 136.558594 232.597656 136.46875 C 233.738281 136.386719 234.804688 135.769531 235.441406 134.8125 L 279.992188 67.980469 C 280.480469 67.25 281.292969 66.800781 282.171875 66.773438 C 283 66.742188 283.882812 67.152344 284.414062 67.855469 L 297.703125 85.566406 C 298.296875 86.363281 299.210938 86.902344 300.207031 87.039062 C 301.210938 87.160156 302.203125 86.894531 303.007812 86.277344 L 335.316406 61.265625 C 336.953125 60 337.25 57.636719 335.988281 56 C 334.722656 54.375 332.367188 54.070312 330.722656 55.335938 Z M 330.722656 55.335938 " fill-opacity="1" fill-rule="nonzero"/></g></svg>