<svg xmlns="http://www.w3.org/2000/svg" xmlns:xlink="http://www.w3.org/1999/xlink" width="500" zoomAndPan="magnify" viewBox="0 0 375.12 383.03998" height="500" preserveAspectRatio="xMidYMid meet" version="1.0"><path fill="#7cebff" d="M 111.429688 112.488281 C 109.796875 113.441406 107.703125 112.878906 106.75 111.242188 C 105.804688 109.609375 106.359375 107.523438 107.996094 106.570312 L 156.027344 78.847656 C 157.660156 77.894531 159.757812 78.460938 160.699219 80.09375 C 161.640625 81.71875 161.085938 83.8125 159.453125 84.765625 Z M 108.015625 145.742188 C 106.382812 144.800781 105.828125 142.71875 106.757812 141.082031 C 107.703125 139.449219 109.785156 138.882812 111.417969 139.824219 L 159.441406 167.550781 C 161.074219 168.492188 161.640625 170.578125 160.699219 172.210938 C 159.757812 173.84375 157.671875 174.410156 156.039062 173.46875 Z M 217.046875 173.46875 C 215.414062 174.410156 213.328125 173.84375 212.386719 172.210938 C 211.453125 170.578125 212.019531 168.492188 213.644531 167.550781 L 261.664062 139.824219 C 263.300781 138.882812 265.394531 139.449219 266.328125 141.082031 C 267.269531 142.71875 266.703125 144.800781 265.070312 145.742188 Z M 111.417969 234.457031 C 109.785156 235.386719 107.703125 234.824219 106.757812 233.199219 C 105.828125 231.566406 106.382812 229.472656 108.015625 228.539062 L 156.039062 200.816406 C 157.671875 199.871094 159.757812 200.4375 160.699219 202.070312 C 161.640625 203.707031 161.074219 205.789062 159.441406 206.730469 Z M 213.644531 206.730469 C 212.019531 205.789062 211.453125 203.707031 212.386719 202.070312 C 213.328125 200.4375 215.414062 199.871094 217.046875 200.816406 L 265.070312 228.539062 C 266.703125 229.472656 267.269531 231.566406 266.328125 233.199219 C 265.394531 234.824219 263.300781 235.386719 261.664062 234.457031 Z M 213.632812 84.765625 C 212 83.8125 211.445312 81.71875 212.386719 80.09375 C 213.339844 78.460938 215.425781 77.894531 217.058594 78.847656 L 265.089844 106.570312 C 266.722656 107.523438 267.28125 109.609375 266.335938 111.242188 C 265.382812 112.878906 263.300781 113.441406 261.664062 112.488281 Z M 288.742188 159.402344 C 288.742188 157.515625 290.28125 155.976562 292.175781 155.976562 C 294.0625 155.976562 295.601562 157.515625 295.601562 159.402344 L 295.601562 214.871094 C 295.601562 216.765625 294.0625 218.304688 292.175781 218.304688 C 290.28125 218.304688 288.742188 216.765625 288.742188 214.871094 Z M 261.664062 261.792969 C 263.300781 260.839844 265.382812 261.394531 266.335938 263.027344 C 267.28125 264.664062 266.722656 266.757812 265.089844 267.699219 L 217.058594 295.433594 C 215.425781 296.378906 213.339844 295.820312 212.386719 294.1875 C 211.445312 292.554688 212 290.460938 213.632812 289.515625 Z M 159.453125 289.515625 C 161.085938 290.460938 161.640625 292.554688 160.699219 294.1875 C 159.757812 295.820312 157.660156 296.378906 156.027344 295.433594 L 107.996094 267.699219 C 106.359375 266.757812 105.804688 264.664062 106.75 263.027344 C 107.703125 261.394531 109.796875 260.839844 111.429688 261.792969 Z M 84.34375 214.871094 C 84.34375 216.765625 82.804688 218.304688 80.921875 218.304688 C 79.023438 218.304688 77.496094 216.765625 77.496094 214.871094 L 77.496094 159.402344 C 77.496094 157.515625 79.023438 155.976562 80.921875 155.976562 C 82.804688 155.976562 84.34375 157.515625 84.34375 159.402344 Z M 84.34375 214.871094 " fill-opacity="1" fill-rule="nonzero"/><path fill="#7cebff" d="M 186.546875 162.890625 C 199.933594 162.890625 210.792969 173.75 210.792969 187.136719 C 210.792969 200.53125 199.933594 211.394531 186.546875 211.394531 C 173.152344 211.394531 162.289062 200.53125 162.289062 187.136719 C 162.289062 173.75 173.152344 162.890625 186.546875 162.890625 Z M 313.175781 114.027344 C 319.867188 125.632812 315.898438 140.464844 304.292969 147.15625 C 292.699219 153.859375 277.867188 149.878906 271.164062 138.285156 C 264.472656 126.679688 268.441406 111.851562 280.046875 105.15625 C 291.640625 98.453125 306.472656 102.433594 313.175781 114.027344 Z M 186.546875 40.921875 C 199.933594 40.921875 210.792969 51.785156 210.792969 65.167969 C 210.792969 78.566406 199.933594 89.425781 186.546875 89.425781 C 173.152344 89.425781 162.289062 78.566406 162.289062 65.167969 C 162.289062 51.785156 173.152344 40.921875 186.546875 40.921875 Z M 59.921875 114.027344 C 66.613281 102.433594 81.445312 98.453125 93.050781 105.15625 C 104.644531 111.851562 108.613281 126.679688 101.921875 138.285156 C 95.226562 149.878906 80.398438 153.859375 68.792969 147.15625 C 57.195312 140.464844 53.21875 125.632812 59.921875 114.027344 Z M 59.921875 260.253906 C 53.21875 248.648438 57.195312 233.816406 68.792969 227.125 C 80.398438 220.421875 95.226562 224.402344 101.921875 235.996094 C 108.613281 247.601562 104.644531 262.433594 93.050781 269.125 C 81.445312 275.816406 66.613281 271.847656 59.921875 260.253906 Z M 186.546875 333.359375 C 173.152344 333.359375 162.289062 322.5 162.289062 309.101562 C 162.289062 295.71875 173.152344 284.855469 186.546875 284.855469 C 199.933594 284.855469 210.792969 295.71875 210.792969 309.101562 C 210.792969 322.5 199.933594 333.359375 186.546875 333.359375 Z M 313.175781 260.253906 C 306.472656 271.847656 291.640625 275.816406 280.046875 269.125 C 268.441406 262.433594 264.472656 247.601562 271.164062 235.996094 C 277.867188 224.402344 292.699219 220.421875 304.292969 227.125 C 315.898438 233.816406 319.867188 248.648438 313.175781 260.253906 Z M 313.175781 260.253906 " fill-opacity="1" fill-rule="evenodd"/></svg>