<svg xmlns="http://www.w3.org/2000/svg" xmlns:xlink="http://www.w3.org/1999/xlink" width="500" zoomAndPan="magnify" viewBox="0 0 375.12 383.03998" height="500" preserveAspectRatio="xMidYMid meet" version="1.0"><defs><clipPath id="23235f3eac"><path d="M 37.4375 37.40625 L 336.6875 37.40625 L 336.6875 336.65625 L 37.4375 336.65625 Z M 37.4375 37.40625 " clip-rule="nonzero"/></clipPath></defs><g clip-path="url(#23235f3eac)"><path fill="#7cebff" d="M 304.085938 70.082031 C 347.613281 113.605469 347.609375 184.1875 304.085938 227.710938 C 262.789062 269.007812 197.128906 271.113281 153.339844 234.039062 L 153.34375 234.042969 L 129.445312 257.9375 C 132.554688 266.132812 130.824219 275.785156 124.253906 282.359375 L 76.601562 330.007812 C 67.679688 338.929688 53.082031 338.929688 44.160156 330.007812 C 35.238281 321.085938 35.238281 306.488281 44.160156 297.566406 L 91.8125 249.914062 C 98.382812 243.34375 108.035156 241.613281 116.230469 244.722656 L 140.125 220.824219 L 140.128906 220.828125 C 103.054688 177.039062 105.160156 111.378906 146.453125 70.082031 C 189.976562 26.5625 260.5625 26.558594 304.085938 70.082031 Z M 238.507812 209.992188 L 238.507812 206.921875 L 212.039062 206.921875 L 212.039062 209.992188 C 212.039062 213.921875 215.257812 217.136719 219.1875 217.136719 L 231.359375 217.136719 C 235.289062 217.136719 238.507812 213.921875 238.507812 209.992188 Z M 202.039062 198.609375 L 248.507812 198.609375 C 250.296875 196.71875 251.402344 194.203125 251.496094 191.464844 L 251.496094 189.027344 L 199.050781 189.027344 L 199.050781 191.464844 C 199.144531 194.203125 200.25 196.71875 202.039062 198.609375 Z M 199.050781 180.710938 L 251.496094 180.710938 L 251.496094 172.628906 L 199.050781 172.628906 Z M 197.242188 164.730469 C 197.789062 164.464844 198.402344 164.316406 199.050781 164.316406 L 251.496094 164.316406 C 252.144531 164.316406 252.757812 164.464844 253.304688 164.730469 C 254.152344 163.265625 255.300781 161.8125 256.75 160.367188 L 256.746094 160.367188 C 265.34375 152.101562 270.695312 140.484375 270.695312 127.617188 C 270.695312 102.53125 250.359375 82.195312 225.273438 82.195312 C 200.1875 82.195312 179.851562 102.53125 179.851562 127.617188 C 179.851562 140.484375 185.203125 152.101562 193.800781 160.367188 C 195.246094 161.8125 196.394531 163.265625 197.242188 164.730469 Z M 199.746094 124.921875 L 215.957031 141.132812 C 217.582031 142.753906 220.214844 142.753906 221.835938 141.132812 L 250.800781 112.167969 C 252.421875 110.546875 252.421875 107.914062 250.800781 106.292969 C 249.175781 104.667969 246.546875 104.667969 244.921875 106.292969 L 218.898438 132.316406 L 205.625 119.042969 C 204 117.421875 201.367188 117.421875 199.746094 119.042969 C 198.125 120.664062 198.125 123.296875 199.746094 124.921875 Z M 291.976562 82.1875 C 255.136719 45.351562 195.402344 45.355469 158.566406 82.195312 C 121.726562 119.03125 121.730469 178.765625 158.566406 215.601562 C 195.402344 252.441406 255.140625 252.445312 291.976562 215.605469 C 328.816406 178.761719 328.816406 119.027344 291.976562 82.1875 Z M 291.976562 82.1875 " fill-opacity="1" fill-rule="evenodd"/></g></svg>