<svg xmlns="http://www.w3.org/2000/svg" xmlns:xlink="http://www.w3.org/1999/xlink" width="500" zoomAndPan="magnify" viewBox="0 0 375.12 383.03998" height="500" preserveAspectRatio="xMidYMid meet" version="1.0"><defs><clipPath id="ae1f97de64"><path d="M 38.371094 37.40625 L 336 37.40625 L 336 336.65625 L 38.371094 336.65625 Z M 38.371094 37.40625 " clip-rule="nonzero"/></clipPath></defs><path fill="#7cebff" d="M 98.351562 180.148438 C 98.980469 186.769531 99.566406 193.394531 100.234375 200.011719 C 100.414062 202.0625 102.046875 203.757812 104.171875 203.949219 C 104.230469 203.957031 124.050781 205.742188 124.105469 205.75 C 125.3125 205.851562 126.558594 205.4375 127.480469 204.503906 C 127.480469 204.503906 132.75 199.179688 134.601562 197.3125 C 136.953125 197.398438 141.605469 197.570312 141.605469 197.570312 C 141.765625 197.574219 141.921875 197.582031 142.085938 197.570312 C 144.339844 197.4375 146.0625 195.503906 145.929688 193.246094 L 145.429688 184.675781 C 149.257812 184.816406 153.925781 184.988281 153.925781 184.988281 C 154.078125 184.996094 154.230469 185 154.382812 184.988281 C 156.484375 184.863281 158.085938 183.054688 157.957031 180.957031 C 157.785156 177.914062 157.601562 174.871094 157.378906 171.832031 C 160.347656 171.832031 163.3125 171.792969 166.28125 171.6875 C 167.992188 171.820312 169.488281 170.445312 169.273438 168.695312 C 169.027344 166.753906 168.761719 164.808594 168.460938 162.871094 C 174.828125 164.847656 181.855469 164.734375 188.261719 162.917969 C 216.132812 154.859375 223.542969 118.71875 201.34375 100.105469 C 174.515625 78.21875 136.039062 101.445312 141.753906 134.582031 L 99.617188 176.640625 C 98.734375 177.53125 98.226562 178.804688 98.351562 180.148438 Z M 172.429688 115.5625 C 178.6875 109.085938 190.140625 111.132812 193.214844 119.773438 C 194.230469 122.738281 194.332031 126.566406 192.359375 129.125 C 191.289062 130.359375 189.757812 131.144531 188.222656 131.355469 L 188.160156 131.292969 C 189.351562 136.929688 180.355469 137.886719 176.660156 136.300781 C 168.089844 133.210938 166.007812 121.828125 172.429688 115.5625 Z M 172.429688 115.5625 " fill-opacity="1" fill-rule="nonzero"/><g clip-path="url(#ae1f97de64)"><path fill="#7cebff" d="M 333.492188 298.714844 C 331.695312 296.355469 329.730469 294.164062 327.691406 292.042969 C 315.878906 279.695312 302.804688 266.121094 290.832031 254.066406 C 283.226562 246.347656 275.046875 238.234375 267.382812 230.546875 C 263.285156 226.34375 256.171875 226.265625 251.996094 230.390625 L 251.816406 230.5625 L 251.71875 230.660156 L 250.160156 232.222656 C 248.667969 233.714844 246.261719 236.125 243.617188 238.773438 C 240.96875 235.449219 238.179688 232.164062 235.378906 228.976562 C 255 209.441406 265.867188 181.734375 266.652344 154.171875 C 268.316406 110.1875 241.730469 67.078125 201.792969 48.621094 C 112.40625 7.058594 16.261719 88.699219 42.914062 183.640625 C 59.152344 241.609375 121.582031 277.773438 179.824219 261.882812 C 193.6875 258.09375 206.75 251.390625 217.597656 241.964844 C 219.648438 240.203125 217.460938 236.988281 215.070312 238.246094 C 212.058594 239.917969 209.066406 241.585938 205.988281 243.105469 C 185.101562 253.34375 161.238281 257.941406 138.15625 254.460938 C 67.890625 243.886719 28.5 166.984375 61.445312 103.898438 C 90.382812 48.269531 163.585938 31.390625 213.925781 68.777344 C 265.238281 106.910156 270.238281 179.558594 226.730469 225.824219 C 225.054688 227.40625 224.976562 230.109375 226.730469 231.671875 C 230.675781 235.246094 235.0625 238.976562 239.234375 242.367188 C 239.382812 242.484375 239.53125 242.601562 239.679688 242.71875 C 236.429688 245.96875 233.308594 249.097656 231.464844 250.941406 C 227.34375 254.882812 227.1875 261.984375 231.117188 266.113281 C 249.566406 284.6875 269.152344 304.425781 287.902344 322.710938 C 289.929688 324.6875 295.460938 330.03125 297.402344 331.921875 C 298.855469 333.332031 300.5 335.03125 302.433594 335.75 C 306.320312 337.417969 311.046875 336.429688 313.960938 333.402344 L 314.054688 333.300781 C 314.054688 333.300781 315.582031 331.710938 315.582031 331.710938 C 321.789062 325.355469 327.132812 318.289062 332.394531 311.101562 C 336.457031 308.191406 336.945312 302.671875 333.492188 298.714844 Z M 333.492188 298.714844 " fill-opacity="1" fill-rule="nonzero"/></g><path fill="#7cebff" d="M 91.898438 90.992188 C 92.417969 90.253906 92.445312 89.238281 91.898438 88.460938 C 91.199219 87.464844 89.824219 87.226562 88.832031 87.925781 C 69.582031 101.773438 60.492188 126.152344 59.46875 149.25 C 57.089844 221.066406 132.910156 268 196.425781 234.9375 C 234.074219 215.488281 254.375 170.839844 244.03125 129.703125 C 235.933594 94.925781 206.175781 66.511719 171.003906 60.28125 C 148.125 55.871094 122.945312 60.394531 104.621094 75.203125 C 102.582031 76.886719 104.582031 80.117188 107 79.027344 C 111.976562 76.734375 116.996094 74.742188 122.105469 73.15625 C 137.234375 68.480469 153.480469 67.042969 169.011719 70.332031 C 223.992188 81.820312 252.5 143.957031 224.574219 192.878906 C 203.136719 230.835938 154.761719 245.476562 115.851562 225.867188 C 76.792969 206.734375 59.109375 158.878906 76.0625 118.824219 C 80.1875 108.898438 85.726562 99.914062 91.898438 90.992188 Z M 91.898438 90.992188 " fill-opacity="1" fill-rule="nonzero"/></svg>