<svg xmlns="http://www.w3.org/2000/svg" xmlns:xlink="http://www.w3.org/1999/xlink" width="500" zoomAndPan="magnify" viewBox="0 0 375.12 383.03998" height="500" preserveAspectRatio="xMidYMid meet" version="1.0"><defs><clipPath id="d278549ea1"><path d="M 52.585938 37.40625 L 321.910156 37.40625 L 321.910156 336.65625 L 52.585938 336.65625 Z M 52.585938 37.40625 " clip-rule="nonzero"/></clipPath></defs><g clip-path="url(#d278549ea1)"><path fill="#7cebff" d="M 57.210938 133.777344 C 60.378906 126.164062 64.414062 119.046875 69.316406 112.417969 C 70.800781 110.363281 73.863281 109.761719 76.425781 111.023438 C 100.425781 123.472656 131.085938 105.1875 131.398438 78.128906 C 131.503906 75.1875 133.453125 72.789062 136.019531 72.414062 C 144.324219 71.214844 152.648438 71.042969 160.992188 71.90625 C 163.648438 72.203125 165.6875 74.53125 165.851562 77.453125 C 166.992188 104.917969 198.566406 122.40625 222.429688 108.5625 C 224.996094 107.121094 228.054688 107.574219 229.6875 109.628906 C 234.429688 115.566406 239.09375 123.230469 242.273438 130.207031 C 244.222656 134.226562 240.757812 137.210938 237.488281 139.144531 C 228.128906 138.890625 212.035156 136.328125 211.058594 149.554688 C 210.835938 158.765625 203.5 166.746094 194.367188 167.601562 C 188.457031 118.550781 120.253906 113.933594 107.59375 161.480469 C 97.726562 200.28125 141.792969 231.078125 174.957031 208.894531 C 177.25 217.351562 172.40625 225.542969 165.296875 229.90625 C 157.199219 237.4375 165.925781 247.832031 170.230469 254.878906 C 169.015625 258.808594 168.457031 262.828125 168.550781 266.941406 C 168.628906 269.65625 166.4375 272.070312 163.585938 272.445312 C 155.699219 273.480469 147.507812 273.523438 139.214844 272.609375 C 136.347656 272.292969 134.25 269.863281 134.1875 266.804688 C 133.917969 251.519531 124.304688 237.75 110.054688 232.125 C 107.425781 231.078125 104.710938 230.335938 101.910156 229.894531 C 99.113281 229.457031 96.300781 229.332031 93.476562 229.527344 C 90.652344 229.71875 87.882812 230.21875 85.167969 231.035156 C 82.457031 231.847656 79.867188 232.953125 77.402344 234.347656 C 74.746094 235.816406 71.65625 235.320312 70.023438 233.160156 C 64.652344 225.945312 61.367188 220.15625 57.78125 212.117188 C 56.746094 209.703125 57.8125 206.792969 60.316406 205.203125 C 83.746094 190.804688 83.460938 154.789062 59.835938 140.707031 C 57.316406 139.117188 56.238281 136.234375 57.210938 133.777344 Z M 87.167969 65.484375 C 86.175781 64.988281 82.351562 62.5 81.273438 62.410156 C 78.992188 61.960938 76.308594 63.355469 76.441406 65.980469 C 76.429688 66.671875 76.597656 67.316406 76.9375 67.917969 C 77.277344 68.519531 77.746094 68.992188 78.347656 69.339844 L 88.980469 75.460938 C 89.433594 75.722656 89.914062 75.921875 90.421875 76.050781 C 90.929688 76.179688 91.449219 76.234375 91.972656 76.214844 C 92.496094 76.199219 93.007812 76.109375 93.507812 75.949219 C 94.003906 75.785156 94.472656 75.558594 94.90625 75.265625 C 96.960938 73.882812 115.394531 61.449219 116.910156 60.460938 C 121.46875 57.339844 117.328125 50.90625 112.800781 53.859375 C 111.179688 54.746094 95.355469 66.113281 93.871094 66.234375 C 92.746094 66.558594 91.605469 66.652344 90.445312 66.523438 C 89.28125 66.394531 88.191406 66.046875 87.167969 65.484375 Z M 88.292969 91.660156 C 99.464844 91.660156 108.871094 83.949219 111.449219 73.554688 L 99.269531 81.757812 C 97.945312 82.644531 96.507812 83.273438 94.957031 83.652344 C 93.410156 84.03125 91.839844 84.136719 90.257812 83.964844 C 86.328125 83.8125 77.867188 77.84375 74.417969 76.121094 C 68.71875 73 66.855469 64.929688 70.472656 59.621094 C 74.085938 54.308594 80.988281 52.902344 86.609375 56.140625 L 91.082031 58.71875 C 91.273438 58.828125 91.464844 58.824219 91.652344 58.707031 L 104.308594 50.125 C 89.460938 36.28125 64.203125 47.410156 64.457031 67.792969 C 64.457031 80.949219 75.152344 91.660156 88.292969 91.660156 Z M 133.679688 301.617188 C 111.570312 296.261719 92.429688 283.019531 79.667969 264.074219 C 77.835938 261.433594 75.8125 257.113281 71.957031 259.363281 C 71.515625 259.636719 71.140625 259.980469 70.835938 260.402344 C 70.53125 260.824219 70.316406 261.285156 70.195312 261.789062 C 70.074219 262.296875 70.054688 262.804688 70.136719 263.316406 C 70.21875 263.828125 70.394531 264.308594 70.667969 264.75 C 97.816406 310.753906 161.351562 326.023438 206.546875 297.417969 C 206.765625 297.285156 206.96875 297.128906 207.160156 296.957031 C 207.347656 296.78125 207.519531 296.589844 207.671875 296.382812 C 207.824219 296.175781 207.953125 295.953125 208.058594 295.71875 C 208.167969 295.488281 208.25 295.246094 208.3125 294.996094 C 208.371094 294.746094 208.40625 294.492188 208.417969 294.234375 C 208.425781 293.976562 208.410156 293.71875 208.371094 293.464844 C 208.328125 293.210938 208.261719 292.964844 208.171875 292.722656 C 208.082031 292.480469 207.96875 292.253906 207.835938 292.035156 C 205.421875 288.3125 201.761719 291.148438 198.984375 292.753906 C 178.960938 303.867188 155.816406 306.925781 133.679688 301.617188 Z M 186.371094 166.746094 C 181 131.4375 132.929688 124.507812 117.601562 156.605469 C 101.777344 190.367188 141.285156 223.292969 171.671875 201.632812 C 170.230469 199.789062 168.539062 198.136719 166.574219 196.894531 C 155.488281 189.484375 165.925781 176.734375 171.027344 168.753906 C 174.792969 163.566406 181.03125 164.136719 186.371094 166.746094 Z M 280.988281 64.78125 C 257.453125 44.832031 227.527344 35.277344 196.824219 37.796875 C 196.308594 37.839844 195.820312 37.980469 195.355469 38.21875 C 194.894531 38.457031 194.496094 38.773438 194.160156 39.171875 C 193.824219 39.566406 193.578125 40.011719 193.417969 40.507812 C 193.257812 41 193.199219 41.507812 193.242188 42.027344 C 193.765625 46.4375 198.265625 45.566406 201.476562 45.371094 C 256.164062 41.742188 307.773438 85.523438 313.203125 140.03125 C 313.519531 143.0625 313.414062 147.621094 317.523438 147.621094 C 317.796875 147.621094 318.0625 147.589844 318.328125 147.535156 C 318.59375 147.476562 318.851562 147.394531 319.097656 147.285156 C 319.34375 147.175781 319.578125 147.042969 319.800781 146.886719 C 320.019531 146.726562 320.222656 146.550781 320.40625 146.351562 C 320.589844 146.152344 320.75 145.933594 320.890625 145.703125 C 321.03125 145.472656 321.144531 145.226562 321.230469 144.972656 C 321.320312 144.714844 321.382812 144.453125 321.417969 144.183594 C 321.453125 143.914062 321.460938 143.644531 321.441406 143.375 C 318.890625 112.640625 304.535156 84.730469 280.988281 64.78125 Z M 265.582031 84.820312 C 263.117188 82.722656 260.554688 80.75 257.894531 78.90625 C 255.234375 77.058594 252.492188 75.351562 249.664062 73.777344 C 246.832031 72.203125 243.933594 70.773438 240.964844 69.484375 C 237.996094 68.199219 234.96875 67.0625 231.886719 66.074219 C 228.804688 65.085938 225.679688 64.25 222.515625 63.570312 C 219.351562 62.890625 216.160156 62.371094 212.941406 62.007812 C 209.726562 61.640625 206.5 61.4375 203.265625 61.390625 C 200.027344 61.347656 196.796875 61.460938 193.570312 61.734375 C 193.3125 61.753906 193.0625 61.800781 192.8125 61.871094 C 192.566406 61.941406 192.328125 62.035156 192.097656 62.15625 C 191.871094 62.273438 191.65625 62.410156 191.453125 62.570312 C 191.25 62.730469 191.066406 62.910156 190.902344 63.105469 C 190.734375 63.300781 190.589844 63.511719 190.464844 63.738281 C 190.339844 63.964844 190.238281 64.199219 190.160156 64.445312 C 190.078125 64.691406 190.027344 64.941406 189.996094 65.195312 C 189.96875 65.453125 189.964844 65.707031 189.984375 65.964844 C 190.167969 68.109375 192.085938 69.683594 194.199219 69.550781 C 241.402344 64.78125 286.746094 101.4375 291.847656 148.625 C 292.296875 151.65625 292.132812 156.304688 296.285156 156.304688 C 296.554688 156.304688 296.824219 156.277344 297.089844 156.222656 C 297.355469 156.167969 297.613281 156.089844 297.859375 155.980469 C 298.109375 155.871094 298.34375 155.738281 298.5625 155.582031 C 298.785156 155.425781 298.988281 155.25 299.171875 155.050781 C 299.355469 154.851562 299.515625 154.636719 299.65625 154.402344 C 299.796875 154.171875 299.910156 153.925781 300 153.671875 C 300.085938 153.414062 300.148438 153.152344 300.183594 152.882812 C 300.214844 152.613281 300.222656 152.34375 300.199219 152.074219 C 298.027344 125.886719 285.769531 101.917969 265.582031 84.820312 Z M 291.335938 236.804688 C 289.351562 241.785156 286.800781 246.453125 283.6875 250.816406 C 283.519531 251.035156 283.316406 251.21875 283.082031 251.367188 C 282.847656 251.515625 282.59375 251.617188 282.324219 251.671875 C 282.050781 251.730469 281.78125 251.734375 281.503906 251.695312 C 281.230469 251.652344 280.972656 251.566406 280.730469 251.429688 C 263.363281 241.035156 240.023438 255.164062 240.96875 275.28125 C 240.984375 276.417969 240.023438 277.46875 238.824219 277.621094 C 233.527344 278.296875 228.226562 278.324219 222.925781 277.710938 C 221.664062 277.558594 220.765625 276.523438 220.75 275.128906 C 220.570312 264.523438 213.714844 254.714844 203.859375 250.921875 C 202.023438 250.1875 200.128906 249.667969 198.175781 249.359375 C 196.222656 249.054688 194.257812 248.964844 192.285156 249.101562 C 190.3125 249.234375 188.378906 249.585938 186.484375 250.152344 C 184.589844 250.71875 182.78125 251.492188 181.0625 252.464844 C 177.476562 254.296875 175.84375 248.582031 173.921875 246.210938 C 172.40625 243.40625 170.53125 240.644531 169.722656 237.527344 C 169.78125 237.136719 169.828125 236.714844 170.082031 236.386719 C 177.882812 230.597656 183.671875 222.75 183.339844 212.371094 C 183.085938 203.417969 178.273438 194.914062 170.710938 190.25 C 169.765625 189.648438 169.046875 188.464844 169.527344 187.308594 C 171.574219 182.347656 174.183594 177.703125 177.355469 173.375 C 178.0625 172.414062 179.488281 172.382812 180.429688 172.835938 C 197.035156 181.59375 218.800781 168.664062 218.890625 149.855469 C 218.933594 148.730469 219.625 147.5 220.855469 147.320312 C 226.234375 146.542969 231.628906 146.425781 237.039062 146.976562 C 238.222656 147.109375 239.078125 148.128906 239.167969 149.449219 C 239.796875 168.542969 262.328125 180.933594 278.738281 171.183594 C 279.652344 170.660156 281.03125 170.539062 281.871094 171.605469 C 284.8125 175.25 288.109375 180.5 290.046875 184.984375 C 290.554688 186.09375 290.121094 187.414062 288.964844 188.148438 C 272.015625 198.257812 272.886719 224.640625 290.0625 233.867188 C 291.050781 234.421875 291.816406 235.605469 291.335938 236.804688 Z M 256.539062 196.519531 C 242.875 173.179688 206.726562 178.667969 200.46875 204.871094 C 193.570312 230.820312 223.300781 252.824219 246.023438 238.589844 C 260.484375 229.875 265.191406 210.992188 256.539062 196.519531 Z M 208 313.015625 C 157.738281 343.992188 90.644531 327.867188 59.957031 277.425781 C 57.257812 273.121094 50.628906 277.050781 53.28125 281.519531 C 84.902344 335.203125 159.359375 353.230469 212.09375 319.691406 C 216.398438 316.945312 212.46875 310.40625 208 313.015625 Z M 210.65625 223.996094 C 227.09375 249.554688 264.457031 226.742188 249.816406 200.554688 C 233.515625 175.160156 195.894531 197.703125 210.65625 223.996094 Z M 210.65625 223.996094 " fill-opacity="1" fill-rule="nonzero"/></g></svg>