<svg xmlns="http://www.w3.org/2000/svg" xmlns:xlink="http://www.w3.org/1999/xlink" width="500" zoomAndPan="magnify" viewBox="0 0 375.12 383.03998" height="500" preserveAspectRatio="xMidYMid meet" version="1.0"><defs><clipPath id="53bea7a881"><path d="M 37.4375 69 L 336.6875 69 L 336.6875 305.609375 L 37.4375 305.609375 Z M 37.4375 69 " clip-rule="nonzero"/></clipPath></defs><g clip-path="url(#53bea7a881)"><path fill="#7cebff" d="M 332.699219 277.839844 L 64.722656 277.839844 L 64.722656 72.921875 C 64.722656 70.800781 62.960938 69.039062 60.835938 69.039062 L 41.421875 69.039062 C 39.300781 69.039062 37.539062 70.800781 37.539062 72.921875 L 37.539062 301.140625 C 37.539062 303.261719 39.300781 305.023438 41.421875 305.023438 L 332.699219 305.023438 C 334.824219 305.023438 336.582031 303.261719 336.582031 301.140625 L 336.582031 281.726562 C 336.582031 279.550781 334.824219 277.839844 332.699219 277.839844 Z M 332.699219 277.839844 " fill-opacity="1" fill-rule="nonzero"/></g><path fill="#7cebff" d="M 227.753906 212.605469 L 149.886719 125.835938 C 149.007812 124.851562 147.660156 124.386719 146.417969 124.59375 C 145.125 124.746094 144.039062 125.628906 143.46875 126.820312 L 135.753906 143.800781 C 126.382812 164.457031 115.097656 189.464844 106.292969 208.671875 C 106.035156 208.671875 105.777344 208.621094 105.570312 208.621094 C 89.519531 208.621094 76.472656 221.667969 76.472656 237.664062 C 76.472656 253.664062 89.519531 266.710938 105.570312 266.710938 C 121.621094 266.710938 134.613281 253.664062 134.613281 237.664062 C 134.613281 230.625 132.128906 223.996094 127.625 218.769531 C 133.425781 206.03125 141.449219 188.429688 152.527344 163.941406 L 232.414062 252.992188 C 233.140625 253.820312 234.226562 254.285156 235.3125 254.285156 C 235.574219 254.285156 235.832031 254.234375 236.039062 254.179688 C 237.386719 253.921875 238.523438 252.992188 238.988281 251.695312 L 258.25 196.816406 C 260.890625 197.230469 263.582031 197.4375 266.273438 197.4375 C 267.570312 197.4375 268.863281 197.28125 270.15625 197.179688 L 279.734375 226.484375 C 280.046875 227.464844 280.71875 228.242188 281.652344 228.707031 C 282.21875 229.019531 282.789062 229.121094 283.410156 229.121094 C 283.824219 229.121094 284.238281 229.070312 284.601562 228.96875 L 304.378906 222.445312 C 306.449219 221.824219 307.539062 219.597656 306.863281 217.578125 L 297.339844 188.378906 C 319.445312 174.347656 329.488281 146.804688 321.257812 121.640625 C 311.316406 91.355469 278.648438 74.839844 248.359375 84.726562 C 233.65625 89.542969 221.75 99.742188 214.761719 113.511719 C 207.769531 127.285156 206.578125 142.921875 211.394531 157.570312 C 215.796875 171.035156 224.753906 181.90625 236.140625 188.894531 C 234.433594 193.660156 232.777344 198.421875 231.121094 203.082031 C 229.980469 206.289062 228.894531 209.449219 227.753906 212.605469 Z M 105.570312 258.945312 C 93.816406 258.945312 84.238281 249.417969 84.238281 237.664062 C 84.238281 225.914062 93.816406 216.386719 105.570312 216.386719 C 106.398438 216.386719 107.277344 216.386719 108.261719 216.542969 C 109.347656 216.699219 110.488281 216.90625 111.574219 217.265625 C 114.835938 218.199219 117.789062 219.90625 120.324219 222.339844 C 124.519531 226.378906 126.847656 231.816406 126.847656 237.664062 C 126.847656 249.417969 117.269531 258.945312 105.570312 258.945312 Z M 218.746094 155.191406 C 214.605469 142.507812 215.640625 128.941406 221.699219 117.035156 C 227.753906 105.125 238.058594 96.273438 250.742188 92.128906 C 255.917969 90.421875 261.148438 89.59375 266.328125 89.59375 C 287.347656 89.59375 306.96875 103.003906 313.855469 124.023438 C 321.308594 146.75 311.574219 171.65625 290.816406 183.25 C 287.8125 184.910156 284.914062 186.203125 281.910156 187.1875 C 278.90625 188.171875 275.800781 188.84375 272.433594 189.308594 C 248.828125 192.261719 226.203125 177.867188 218.746094 155.191406 Z M 218.746094 155.191406 " fill-opacity="1" fill-rule="nonzero"/><path fill="#7cebff" d="M 301.464844 139.636719 C 301.464844 137.496094 299.726562 135.753906 297.582031 135.753906 L 235.066406 135.753906 C 232.921875 135.753906 231.183594 137.496094 231.183594 139.636719 C 231.183594 141.78125 232.921875 143.519531 235.066406 143.519531 L 297.582031 143.519531 C 299.726562 143.519531 301.464844 141.78125 301.464844 139.636719 Z M 301.464844 139.636719 " fill-opacity="1" fill-rule="nonzero"/><path fill="#7cebff" d="M 250.929688 120.6875 L 281.714844 120.6875 C 283.855469 120.6875 285.597656 118.949219 285.597656 116.804688 C 285.597656 114.664062 283.855469 112.921875 281.714844 112.921875 L 250.929688 112.921875 C 248.785156 112.921875 247.046875 114.664062 247.046875 116.804688 C 247.046875 118.949219 248.785156 120.6875 250.929688 120.6875 Z M 250.929688 120.6875 " fill-opacity="1" fill-rule="nonzero"/><path fill="#7cebff" d="M 285.597656 162.476562 C 285.597656 160.332031 283.855469 158.59375 281.714844 158.59375 L 250.929688 158.59375 C 248.785156 158.59375 247.046875 160.332031 247.046875 162.476562 C 247.046875 164.617188 248.785156 166.359375 250.929688 166.359375 L 281.714844 166.359375 C 283.855469 166.359375 285.597656 164.617188 285.597656 162.476562 Z M 285.597656 162.476562 " fill-opacity="1" fill-rule="nonzero"/></svg>