<svg xmlns="http://www.w3.org/2000/svg" xmlns:xlink="http://www.w3.org/1999/xlink" width="500" zoomAndPan="magnify" viewBox="0 0 375.12 383.03998" height="500" preserveAspectRatio="xMidYMid meet" version="1.0"><defs><clipPath id="3aa2197554"><path d="M 37.4375 168 L 89 168 L 89 188 L 37.4375 188 Z M 37.4375 168 " clip-rule="nonzero"/></clipPath><clipPath id="669bf3aa66"><path d="M 211 255 L 249 255 L 249 292.890625 L 211 292.890625 Z M 211 255 " clip-rule="nonzero"/></clipPath></defs><path fill="#7cebff" d="M 146.894531 226.976562 C 120.003906 200.085938 120.003906 156.269531 146.894531 129.375 C 173.316406 102.953125 215.976562 102.515625 242.960938 128.027344 L 232.085938 138.96875 C 230.550781 140.503906 229.984375 142.855469 230.550781 145.015625 C 231.175781 147.179688 232.898438 148.714844 235.125 149.152344 L 280.195312 158.554688 C 282.203125 158.996094 284.238281 158.398438 285.679688 156.925781 C 287.058594 155.546875 287.65625 153.511719 287.214844 151.503906 L 277.8125 106.527344 C 277.375 104.363281 275.527344 102.484375 273.832031 101.921875 C 271.515625 101.355469 269.164062 101.890625 267.628906 103.425781 L 256.78125 114.207031 C 222.179688 81.171875 167.175781 81.609375 133.105469 115.617188 C 98.597656 150.125 98.597656 206.261719 133.105469 240.769531 C 150.34375 258.007812 173.035156 266.625 195.695312 266.625 C 196.792969 266.625 197.890625 266.625 199.019531 266.53125 C 201.179688 259.511719 204.597656 252.175781 209.957031 245.6875 C 187.921875 250.328125 164.007812 244.058594 146.894531 226.976562 Z M 146.894531 226.976562 " fill-opacity="1" fill-rule="nonzero"/><path fill="#7cebff" d="M 89.820312 122.917969 L 58.414062 122.917969 C 53.054688 122.917969 48.667969 127.277344 48.667969 132.667969 C 48.667969 138.058594 53.054688 142.414062 58.414062 142.414062 L 89.820312 142.414062 C 95.179688 142.414062 99.566406 138.058594 99.566406 132.667969 C 99.566406 127.277344 95.179688 122.917969 89.820312 122.917969 Z M 89.820312 122.917969 " fill-opacity="1" fill-rule="nonzero"/><path fill="#7cebff" d="M 89.820312 213.53125 L 58.414062 213.53125 C 53.054688 213.53125 48.667969 217.886719 48.667969 223.277344 C 48.667969 228.667969 53.023438 233.027344 58.414062 233.027344 L 89.820312 233.027344 C 95.179688 233.027344 99.566406 228.667969 99.566406 223.277344 C 99.566406 217.886719 95.179688 213.53125 89.820312 213.53125 Z M 89.820312 213.53125 " fill-opacity="1" fill-rule="nonzero"/><g clip-path="url(#3aa2197554)"><path fill="#7cebff" d="M 88.316406 178.175781 C 88.316406 172.816406 83.960938 168.429688 78.570312 168.429688 L 47.195312 168.429688 C 41.804688 168.429688 37.449219 172.785156 37.449219 178.175781 C 37.449219 183.566406 41.804688 187.925781 47.195312 187.925781 L 78.601562 187.925781 C 83.960938 187.894531 88.316406 183.535156 88.316406 178.175781 Z M 88.316406 178.175781 " fill-opacity="1" fill-rule="nonzero"/></g><g clip-path="url(#669bf3aa66)"><path fill="#7cebff" d="M 230.894531 275.464844 C 229.546875 275.496094 228.480469 274.429688 228.480469 273.082031 C 228.511719 270.730469 228.699219 266.84375 229.484375 262.269531 L 222.527344 255.34375 C 212.433594 267.253906 211.242188 284.273438 211.179688 290.476562 C 211.148438 291.824219 212.246094 292.890625 213.59375 292.859375 C 219.796875 292.765625 236.816406 291.511719 248.695312 281.386719 L 241.738281 274.460938 C 237.132812 275.246094 233.246094 275.433594 230.894531 275.464844 Z M 230.894531 275.464844 " fill-opacity="1" fill-rule="nonzero"/></g><path fill="#7cebff" d="M 334.730469 173.035156 C 334.449219 170.8125 332.757812 169.117188 330.53125 168.835938 C 320.691406 167.675781 292.261719 167.050781 263.585938 191.027344 C 260.480469 193.628906 256.4375 195.039062 252.457031 194.285156 C 246.28125 193.097656 236.191406 192.84375 228.074219 200.996094 L 217.667969 211.460938 C 214.816406 214.316406 215.691406 219.171875 219.359375 220.835938 L 236.503906 228.636719 L 230.328125 238.449219 C 228.855469 240.800781 229.203125 243.839844 231.175781 245.8125 L 258.160156 272.675781 C 260.136719 274.648438 263.207031 274.964844 265.558594 273.488281 L 275.335938 267.285156 L 283.234375 284.429688 C 284.929688 288.09375 289.753906 288.972656 292.609375 286.089844 L 303.011719 275.621094 C 311.066406 267.597656 310.785156 257.472656 309.59375 251.269531 C 308.8125 247.257812 310.222656 243.210938 312.855469 240.046875 C 336.675781 211.304688 335.921875 182.910156 334.730469 173.035156 Z M 302.011719 221.085938 C 296.683594 226.445312 288.03125 226.445312 282.671875 221.117188 C 277.3125 215.757812 277.28125 207.105469 282.609375 201.777344 C 287.9375 196.417969 296.621094 196.386719 301.980469 201.746094 C 307.339844 207.042969 307.339844 215.726562 302.011719 221.085938 Z M 302.011719 221.085938 " fill-opacity="1" fill-rule="nonzero"/><path fill="#7cebff" d="M 185.320312 139.75 L 185.320312 171.75 L 168.019531 179.242188 C 163.101562 181.375 160.8125 187.109375 162.941406 192.0625 C 164.542969 195.730469 168.113281 197.921875 171.875 197.921875 C 173.160156 197.921875 174.476562 197.671875 175.730469 197.109375 L 198.894531 187.078125 C 202.464844 185.542969 204.753906 182.03125 204.753906 178.144531 L 204.753906 139.75 C 204.753906 134.390625 200.398438 130.003906 195.007812 130.003906 C 189.617188 130.003906 185.320312 134.390625 185.320312 139.75 Z M 185.320312 139.75 " fill-opacity="1" fill-rule="nonzero"/></svg>