<svg xmlns="http://www.w3.org/2000/svg" xmlns:xlink="http://www.w3.org/1999/xlink" width="500" zoomAndPan="magnify" viewBox="0 0 375.12 383.03998" height="500" preserveAspectRatio="xMidYMid meet" version="1.0"><defs><clipPath id="68fb460599"><path d="M 75.25 37.40625 L 298.941406 37.40625 L 298.941406 336.65625 L 75.25 336.65625 Z M 75.25 37.40625 " clip-rule="nonzero"/></clipPath></defs><g clip-path="url(#68fb460599)"><path fill="#7cebff" d="M 177.476562 336.984375 C 191.597656 336.984375 203.03125 325.546875 203.03125 311.425781 L 203.03125 234.757812 C 203.03125 232.484375 202.636719 230.3125 202.074219 228.214844 L 221.191406 209.097656 C 221.535156 209.113281 221.855469 209.203125 222.199219 209.203125 L 279.703125 209.203125 C 290.28125 209.203125 298.871094 200.613281 298.871094 190.035156 L 298.871094 132.53125 C 298.871094 121.953125 290.28125 113.363281 279.703125 113.363281 L 222.199219 113.363281 C 221.855469 113.363281 221.535156 113.441406 221.203125 113.46875 L 191.085938 83.347656 L 191.085938 50.304688 C 191.085938 43.25 185.359375 37.527344 178.308594 37.527344 L 139.972656 37.527344 C 132.917969 37.527344 127.195312 43.25 127.195312 50.304688 L 127.195312 88.640625 C 127.195312 95.691406 132.917969 101.417969 139.972656 101.417969 L 173.015625 101.417969 L 203.136719 131.535156 C 203.121094 131.867188 203.03125 132.1875 203.03125 132.53125 L 203.03125 190.035156 C 203.03125 190.367188 203.109375 190.6875 203.136719 191.019531 L 184.007812 210.148438 C 181.910156 209.585938 179.75 209.203125 177.476562 209.203125 L 100.808594 209.203125 C 86.6875 209.203125 75.25 220.636719 75.25 234.757812 L 75.25 311.425781 C 75.25 325.546875 86.6875 336.984375 100.808594 336.984375 Z M 177.476562 336.984375 " fill-opacity="1" fill-rule="nonzero"/></g></svg>