<svg xmlns="http://www.w3.org/2000/svg" xmlns:xlink="http://www.w3.org/1999/xlink" width="500" zoomAndPan="magnify" viewBox="0 0 375.12 383.03998" height="500" preserveAspectRatio="xMidYMid meet" version="1.0"><defs><clipPath id="2026bd915f"><path d="M 37.4375 67 L 336.6875 67 L 336.6875 307 L 37.4375 307 Z M 37.4375 67 " clip-rule="nonzero"/></clipPath></defs><g clip-path="url(#2026bd915f)"><path fill="#7cebff" d="M 100.226562 300.335938 L 100.226562 216.558594 L 68.40625 216.558594 L 68.40625 300.332031 L 44.089844 300.332031 L 44.089844 206.410156 L 321.539062 206.410156 L 310.617188 212.71875 C 309.070312 213.605469 308.53125 215.585938 309.425781 217.136719 C 310.3125 218.691406 312.296875 219.222656 313.84375 218.332031 L 335.007812 206.113281 C 336.136719 205.601562 336.914062 204.472656 336.914062 203.15625 C 336.914062 201.863281 336.164062 200.753906 335.082031 200.226562 L 315.054688 188.664062 C 313.5 187.761719 311.515625 188.292969 310.621094 189.84375 C 309.722656 191.394531 310.25 193.378906 311.804688 194.277344 L 321.535156 199.898438 L 44.089844 199.898438 L 44.089844 70.472656 C 44.089844 68.675781 42.628906 67.214844 40.839844 67.214844 C 39.042969 67.214844 37.582031 68.675781 37.582031 70.472656 L 37.582031 303.585938 C 37.582031 305.382812 39.042969 306.84375 40.839844 306.84375 L 326.648438 306.84375 C 328.4375 306.84375 329.898438 305.382812 329.898438 303.585938 C 329.898438 301.792969 328.4375 300.332031 326.648438 300.332031 L 289.386719 300.332031 L 289.386719 216.558594 L 257.5625 216.558594 L 257.5625 300.332031 L 226.332031 300.332031 L 226.332031 216.558594 L 194.515625 216.558594 L 194.515625 300.332031 L 163.285156 300.332031 L 163.285156 216.558594 L 131.457031 216.558594 L 131.457031 300.332031 L 100.226562 300.332031 Z M 289.386719 190.441406 L 257.5625 190.441406 L 257.5625 74.292969 L 289.390625 74.292969 L 289.390625 190.441406 Z M 226.328125 190.441406 L 194.511719 190.441406 L 194.511719 156.1875 L 226.328125 156.1875 Z M 163.28125 190.441406 L 131.453125 190.441406 L 131.453125 117.910156 L 163.28125 117.910156 Z M 163.28125 190.441406 " fill-opacity="1" fill-rule="evenodd"/></g></svg>