<svg xmlns="http://www.w3.org/2000/svg" xmlns:xlink="http://www.w3.org/1999/xlink" width="500" zoomAndPan="magnify" viewBox="0 0 375.12 383.03998" height="500" preserveAspectRatio="xMidYMid meet" version="1.0"><defs><clipPath id="0cabdf07f8"><path d="M 37.4375 68.964844 L 336.6875 68.964844 L 336.6875 152 L 37.4375 152 Z M 37.4375 68.964844 " clip-rule="nonzero"/></clipPath></defs><path fill="#7cebff" d="M 251.765625 214.28125 C 235.140625 197.792969 212.273438 187.585938 187.0625 187.585938 C 161.847656 187.585938 138.980469 197.792969 122.355469 214.28125 L 121.832031 214.808594 L 142.796875 235.777344 L 143.320312 235.25 C 154.574219 224.125 170.027344 217.242188 187.0625 217.242188 C 204.097656 217.242188 219.546875 224.125 230.804688 235.25 L 231.328125 235.777344 L 252.292969 214.808594 Z M 251.765625 214.28125 " fill-opacity="1" fill-rule="nonzero"/><path fill="#7cebff" d="M 293.6875 172.367188 C 266.324219 145.132812 228.625 128.277344 187.0625 128.277344 C 145.496094 128.277344 107.800781 145.136719 80.433594 172.367188 L 79.910156 172.890625 L 100.867188 193.851562 L 101.394531 193.328125 C 123.390625 171.460938 153.671875 157.929688 187.0625 157.929688 C 220.449219 157.929688 250.730469 171.460938 272.726562 193.328125 L 273.25 193.851562 L 294.210938 172.890625 Z M 293.6875 172.367188 " fill-opacity="1" fill-rule="nonzero"/><g clip-path="url(#0cabdf07f8)"><path fill="#7cebff" d="M 335.605469 130.445312 C 297.5 92.476562 244.976562 68.964844 187.0625 68.964844 C 129.144531 68.964844 76.621094 92.476562 38.515625 130.445312 L 37.992188 130.96875 L 58.949219 151.929688 L 59.476562 151.40625 C 92.210938 118.804688 137.320312 98.621094 187.0625 98.621094 C 236.804688 98.621094 281.910156 118.804688 314.648438 151.40625 L 315.171875 151.933594 L 336.132812 130.972656 Z M 335.605469 130.445312 " fill-opacity="1" fill-rule="nonzero"/></g><path fill="#7cebff" d="M 211.089844 280.164062 C 211.089844 279.386719 211.050781 278.605469 210.972656 277.828125 C 210.898438 277.050781 210.78125 276.277344 210.628906 275.511719 C 210.476562 274.746094 210.289062 273.988281 210.0625 273.242188 C 209.835938 272.496094 209.570312 271.761719 209.273438 271.039062 C 208.972656 270.316406 208.640625 269.613281 208.273438 268.921875 C 207.902344 268.234375 207.503906 267.5625 207.070312 266.914062 C 206.632812 266.265625 206.171875 265.640625 205.675781 265.035156 C 205.179688 264.429688 204.65625 263.851562 204.101562 263.300781 C 203.550781 262.75 202.972656 262.222656 202.367188 261.730469 C 201.765625 261.234375 201.136719 260.769531 200.488281 260.335938 C 199.839844 259.898438 199.167969 259.5 198.480469 259.132812 C 197.792969 258.761719 197.085938 258.429688 196.363281 258.128906 C 195.644531 257.832031 194.910156 257.570312 194.160156 257.339844 C 193.414062 257.113281 192.65625 256.925781 191.890625 256.773438 C 191.125 256.621094 190.351562 256.507812 189.574219 256.429688 C 188.796875 256.351562 188.019531 256.316406 187.238281 256.316406 C 186.457031 256.316406 185.675781 256.351562 184.898438 256.429688 C 184.121094 256.507812 183.351562 256.621094 182.585938 256.773438 C 181.816406 256.925781 181.0625 257.113281 180.3125 257.339844 C 179.566406 257.570312 178.832031 257.832031 178.109375 258.128906 C 177.386719 258.429688 176.683594 258.761719 175.992188 259.132812 C 175.304688 259.5 174.636719 259.902344 173.984375 260.335938 C 173.335938 260.769531 172.710938 261.234375 172.105469 261.730469 C 171.503906 262.222656 170.925781 262.75 170.371094 263.300781 C 169.820312 263.851562 169.296875 264.429688 168.800781 265.035156 C 168.304688 265.640625 167.839844 266.265625 167.40625 266.914062 C 166.972656 267.5625 166.570312 268.234375 166.203125 268.921875 C 165.835938 269.613281 165.5 270.316406 165.203125 271.039062 C 164.902344 271.761719 164.640625 272.496094 164.414062 273.242188 C 164.1875 273.988281 163.996094 274.746094 163.84375 275.511719 C 163.691406 276.277344 163.578125 277.050781 163.5 277.828125 C 163.425781 278.605469 163.386719 279.386719 163.386719 280.164062 C 163.386719 280.945312 163.425781 281.726562 163.5 282.503906 C 163.578125 283.28125 163.691406 284.054688 163.84375 284.820312 C 163.996094 285.585938 164.1875 286.34375 164.414062 287.089844 C 164.640625 287.835938 164.902344 288.570312 165.203125 289.292969 C 165.5 290.015625 165.835938 290.71875 166.203125 291.410156 C 166.570312 292.097656 166.972656 292.765625 167.40625 293.417969 C 167.839844 294.066406 168.304688 294.691406 168.800781 295.296875 C 169.296875 295.902344 169.820312 296.480469 170.371094 297.03125 C 170.925781 297.582031 171.503906 298.109375 172.105469 298.601562 C 172.710938 299.097656 173.335938 299.5625 173.984375 299.996094 C 174.636719 300.429688 175.304688 300.832031 175.992188 301.199219 C 176.683594 301.570312 177.386719 301.902344 178.109375 302.203125 C 178.832031 302.5 179.566406 302.761719 180.3125 302.988281 C 181.0625 303.21875 181.816406 303.40625 182.585938 303.558594 C 183.351562 303.710938 184.121094 303.824219 184.898438 303.902344 C 185.675781 303.980469 186.457031 304.015625 187.238281 304.015625 C 188.019531 304.015625 188.796875 303.980469 189.574219 303.902344 C 190.351562 303.824219 191.125 303.710938 191.890625 303.558594 C 192.65625 303.40625 193.414062 303.21875 194.160156 302.988281 C 194.910156 302.761719 195.644531 302.5 196.363281 302.203125 C 197.085938 301.902344 197.792969 301.570312 198.480469 301.199219 C 199.167969 300.832031 199.839844 300.429688 200.488281 299.996094 C 201.136719 299.5625 201.765625 299.097656 202.367188 298.601562 C 202.972656 298.109375 203.550781 297.582031 204.101562 297.03125 C 204.65625 296.480469 205.179688 295.902344 205.675781 295.296875 C 206.171875 294.691406 206.632812 294.066406 207.070312 293.417969 C 207.503906 292.765625 207.902344 292.097656 208.273438 291.410156 C 208.640625 290.71875 208.972656 290.015625 209.273438 289.292969 C 209.570312 288.570312 209.835938 287.835938 210.0625 287.089844 C 210.289062 286.34375 210.476562 285.585938 210.628906 284.820312 C 210.78125 284.054688 210.898438 283.28125 210.972656 282.503906 C 211.050781 281.726562 211.089844 280.945312 211.089844 280.164062 " fill-opacity="1" fill-rule="nonzero"/></svg>