<svg xmlns="http://www.w3.org/2000/svg" xmlns:xlink="http://www.w3.org/1999/xlink" width="500" zoomAndPan="magnify" viewBox="0 0 375.12 383.03998" height="500" preserveAspectRatio="xMidYMid meet" version="1.0"><defs><clipPath id="1fbd45f3ef"><path d="M 309 167 L 329.953125 167 L 329.953125 336.65625 L 309 336.65625 Z M 309 167 " clip-rule="nonzero"/></clipPath><clipPath id="f6953113b3"><path d="M 78 321 L 100 321 L 100 336.65625 L 78 336.65625 Z M 78 321 " clip-rule="nonzero"/></clipPath><clipPath id="8045d0608a"><path d="M 124 311 L 146 311 L 146 336.65625 L 124 336.65625 Z M 124 311 " clip-rule="nonzero"/></clipPath><clipPath id="e98fb9caa4"><path d="M 263 249 L 284 249 L 284 336.65625 L 263 336.65625 Z M 263 249 " clip-rule="nonzero"/></clipPath><clipPath id="9272ab70fc"><path d="M 170 300 L 192 300 L 192 336.65625 L 170 336.65625 Z M 170 300 " clip-rule="nonzero"/></clipPath><clipPath id="2fbf0c5b7b"><path d="M 216 285 L 238 285 L 238 336.65625 L 216 336.65625 Z M 216 285 " clip-rule="nonzero"/></clipPath><clipPath id="4487db052b"><path d="M 37.4375 95 L 299 95 L 299 301 L 37.4375 301 Z M 37.4375 95 " clip-rule="nonzero"/></clipPath></defs><g clip-path="url(#1fbd45f3ef)"><path fill="#7cebff" d="M 309.117188 167.742188 L 329.59375 167.742188 L 329.59375 336.65625 L 309.117188 336.65625 Z M 309.117188 167.742188 " fill-opacity="1" fill-rule="nonzero"/></g><path fill="#7cebff" d="M 176.1875 181.394531 C 206.589844 181.960938 233.101562 155.445312 232.53125 125.097656 C 233.476562 94.8125 205.773438 67.832031 176.1875 68.75 C 146.59375 67.832031 118.902344 94.808594 119.84375 125.097656 C 119.277344 155.445312 145.777344 181.960938 176.1875 181.394531 Z M 199.378906 101.882812 C 199.132812 101.644531 198.945312 101.367188 198.808594 101.050781 C 198.675781 100.738281 198.609375 100.410156 198.605469 100.066406 C 198.605469 99.726562 198.667969 99.394531 198.800781 99.078125 C 198.929688 98.761719 199.117188 98.484375 199.355469 98.242188 C 199.597656 98 199.878906 97.816406 200.195312 97.683594 C 200.511719 97.554688 200.839844 97.492188 201.179688 97.492188 C 201.523438 97.496094 201.851562 97.5625 202.164062 97.695312 C 202.480469 97.828125 202.757812 98.019531 202.996094 98.261719 C 203.875 99.140625 204.707031 100.0625 205.492188 101.019531 C 206.277344 101.980469 207.015625 102.976562 207.707031 104.011719 C 208.394531 105.042969 209.03125 106.105469 209.617188 107.203125 C 210.199219 108.296875 210.730469 109.417969 211.203125 110.566406 C 211.679688 111.710938 212.097656 112.878906 212.457031 114.066406 C 212.816406 115.253906 213.117188 116.457031 213.359375 117.675781 C 213.601562 118.894531 213.785156 120.121094 213.90625 121.355469 C 214.027344 122.589844 214.085938 123.828125 214.085938 125.070312 C 214.085938 126.3125 214.027344 127.550781 213.90625 128.785156 C 213.785156 130.019531 213.601562 131.246094 213.359375 132.464844 C 213.117188 133.683594 212.816406 134.882812 212.457031 136.074219 C 212.097656 137.261719 211.679688 138.429688 211.203125 139.574219 C 210.730469 140.722656 210.199219 141.84375 209.617188 142.9375 C 209.03125 144.035156 208.394531 145.097656 207.707031 146.128906 C 207.015625 147.164062 206.277344 148.160156 205.492188 149.117188 C 204.707031 150.078125 203.875 151 202.996094 151.875 C 202.753906 152.113281 202.480469 152.292969 202.167969 152.417969 C 201.855469 152.546875 201.53125 152.609375 201.191406 152.605469 C 200.855469 152.605469 200.53125 152.539062 200.222656 152.410156 C 199.910156 152.28125 199.636719 152.09375 199.398438 151.855469 C 199.160156 151.617188 198.976562 151.34375 198.84375 151.035156 C 198.714844 150.722656 198.648438 150.398438 198.648438 150.0625 C 198.644531 149.726562 198.707031 149.398438 198.835938 149.085938 C 198.960938 148.777344 199.140625 148.5 199.378906 148.257812 C 200.136719 147.496094 200.855469 146.703125 201.535156 145.871094 C 202.214844 145.042969 202.855469 144.179688 203.449219 143.285156 C 204.046875 142.394531 204.597656 141.472656 205.101562 140.527344 C 205.605469 139.578125 206.066406 138.609375 206.476562 137.617188 C 206.886719 136.625 207.246094 135.613281 207.558594 134.585938 C 207.867188 133.558594 208.128906 132.519531 208.339844 131.464844 C 208.546875 130.414062 208.703125 129.351562 208.808594 128.285156 C 208.914062 127.214844 208.96875 126.144531 208.96875 125.070312 C 208.96875 123.996094 208.914062 122.925781 208.808594 121.855469 C 208.703125 120.789062 208.546875 119.726562 208.339844 118.675781 C 208.128906 117.621094 207.867188 116.582031 207.558594 115.554688 C 207.246094 114.527344 206.886719 113.515625 206.476562 112.523438 C 206.066406 111.53125 205.605469 110.5625 205.101562 109.613281 C 204.597656 108.667969 204.046875 107.746094 203.449219 106.855469 C 202.855469 105.960938 202.214844 105.097656 201.535156 104.269531 C 200.855469 103.4375 200.136719 102.640625 199.378906 101.882812 Z M 199.378906 101.882812 " fill-opacity="1" fill-rule="nonzero"/><g clip-path="url(#f6953113b3)"><path fill="#7cebff" d="M 78.777344 321.300781 L 99.253906 321.300781 L 99.253906 336.65625 L 78.777344 336.65625 Z M 78.777344 321.300781 " fill-opacity="1" fill-rule="nonzero"/></g><g clip-path="url(#8045d0608a)"><path fill="#7cebff" d="M 124.847656 311.0625 L 145.320312 311.0625 L 145.320312 336.65625 L 124.847656 336.65625 Z M 124.847656 311.0625 " fill-opacity="1" fill-rule="nonzero"/></g><g clip-path="url(#e98fb9caa4)"><path fill="#7cebff" d="M 263.050781 249.640625 L 283.523438 249.640625 L 283.523438 336.65625 L 263.050781 336.65625 Z M 263.050781 249.640625 " fill-opacity="1" fill-rule="nonzero"/></g><g clip-path="url(#9272ab70fc)"><path fill="#7cebff" d="M 170.914062 300.824219 L 191.390625 300.824219 L 191.390625 336.65625 L 170.914062 336.65625 Z M 170.914062 300.824219 " fill-opacity="1" fill-rule="nonzero"/></g><g clip-path="url(#2fbf0c5b7b)"><path fill="#7cebff" d="M 216.984375 285.46875 L 237.457031 285.46875 L 237.457031 336.65625 L 216.984375 336.65625 Z M 216.984375 285.46875 " fill-opacity="1" fill-rule="nonzero"/></g><path fill="#7cebff" d="M 232.734375 181.589844 C 263.71875 151.863281 263.71875 98.285156 232.734375 68.5625 C 201.5625 37.433594 150.851562 37.40625 119.699219 68.5625 C 88.546875 99.261719 88.570312 150.949219 119.699219 181.597656 C 150.429688 212.628906 201.96875 212.671875 232.734375 181.589844 Z M 132.710938 81.574219 C 134.136719 80.15625 135.632812 78.808594 137.1875 77.539062 C 138.746094 76.265625 140.363281 75.070312 142.039062 73.957031 C 143.714844 72.839844 145.441406 71.8125 147.214844 70.867188 C 148.992188 69.917969 150.8125 69.0625 152.671875 68.296875 C 154.53125 67.527344 156.421875 66.851562 158.351562 66.269531 C 160.277344 65.6875 162.226562 65.203125 164.199219 64.8125 C 166.171875 64.417969 168.160156 64.125 170.164062 63.929688 C 172.167969 63.734375 174.171875 63.632812 176.1875 63.632812 C 178.199219 63.632812 180.207031 63.734375 182.207031 63.929688 C 184.210938 64.125 186.199219 64.417969 188.171875 64.8125 C 190.144531 65.203125 192.097656 65.6875 194.023438 66.269531 C 195.949219 66.851562 197.839844 67.527344 199.699219 68.296875 C 201.5625 69.0625 203.378906 69.917969 205.15625 70.867188 C 206.929688 71.8125 208.65625 72.839844 210.332031 73.957031 C 212.007812 75.070312 213.625 76.265625 215.183594 77.539062 C 216.742188 78.808594 218.234375 80.15625 219.660156 81.574219 C 243.476562 104.40625 243.496094 145.71875 219.660156 168.527344 C 196.957031 192.3125 155.445312 192.34375 132.710938 168.527344 C 108.875 145.71875 108.898438 104.402344 132.710938 81.574219 Z M 132.710938 81.574219 " fill-opacity="1" fill-rule="nonzero"/><path fill="#7cebff" d="M 121.871094 190.488281 C 117.851562 187.113281 114.152344 183.417969 110.769531 179.402344 L 88.183594 202.027344 L 99.269531 213.085938 Z M 121.871094 190.488281 " fill-opacity="1" fill-rule="nonzero"/><path fill="#7cebff" d="M 62.796875 256.78125 L 99.050781 220.527344 C 96.289062 216.625 82.882812 204.375 79.578125 200.671875 L 42.964844 236.914062 C 42.308594 237.574219 41.726562 238.292969 41.21875 239.070312 C 40.710938 239.84375 40.285156 240.664062 39.941406 241.527344 C 39.597656 242.390625 39.34375 243.28125 39.183594 244.195312 C 39.019531 245.109375 38.949219 246.03125 38.972656 246.960938 C 38.996094 247.890625 39.113281 248.804688 39.324219 249.710938 C 39.535156 250.617188 39.832031 251.492188 40.21875 252.335938 C 40.605469 253.179688 41.074219 253.976562 41.621094 254.726562 C 42.171875 255.476562 42.789062 256.164062 43.476562 256.785156 C 44.113281 257.417969 44.804688 257.980469 45.550781 258.476562 C 46.296875 258.972656 47.085938 259.390625 47.914062 259.730469 C 48.742188 260.070312 49.597656 260.328125 50.476562 260.5 C 51.355469 260.675781 52.242188 260.761719 53.140625 260.761719 C 54.035156 260.761719 54.921875 260.671875 55.800781 260.5 C 56.679688 260.324219 57.535156 260.066406 58.363281 259.726562 C 59.191406 259.382812 59.976562 258.964844 60.722656 258.46875 C 61.46875 257.972656 62.160156 257.410156 62.796875 256.78125 Z M 62.796875 256.78125 " fill-opacity="1" fill-rule="nonzero"/><g clip-path="url(#4487db052b)"><path fill="#7cebff" d="M 45.507812 300.824219 C 46.28125 300.824219 47.035156 300.707031 47.769531 300.480469 C 48.507812 300.25 49.195312 299.917969 49.832031 299.480469 C 50.46875 299.042969 51.027344 298.523438 51.503906 297.917969 C 51.984375 297.3125 52.363281 296.648438 52.644531 295.929688 C 56.316406 296.277344 64.152344 296.871094 74.953125 296.871094 C 109.289062 296.871094 172.898438 290.824219 222.695312 251.441406 C 262.921875 219.628906 286.722656 172.386719 293.511719 111.039062 C 293.800781 110.953125 294.078125 110.847656 294.351562 110.722656 C 294.628906 110.601562 294.894531 110.464844 295.152344 110.3125 C 295.410156 110.160156 295.65625 109.992188 295.894531 109.808594 C 296.136719 109.628906 296.363281 109.433594 296.578125 109.222656 C 296.792969 109.015625 296.996094 108.796875 297.1875 108.5625 C 297.375 108.332031 297.550781 108.089844 297.714844 107.835938 C 297.875 107.582031 298.019531 107.320312 298.152344 107.050781 C 298.285156 106.78125 298.398438 106.503906 298.496094 106.222656 C 298.59375 105.9375 298.675781 105.652344 298.742188 105.359375 C 298.808594 105.066406 298.855469 104.769531 298.886719 104.472656 C 298.917969 104.171875 298.929688 103.875 298.925781 103.574219 C 298.921875 103.273438 298.898438 102.972656 298.859375 102.675781 C 298.820312 102.378906 298.761719 102.085938 298.691406 101.792969 C 298.617188 101.503906 298.523438 101.21875 298.417969 100.9375 C 298.3125 100.65625 298.1875 100.386719 298.050781 100.121094 C 297.910156 99.851562 297.757812 99.597656 297.585938 99.347656 C 297.417969 99.101562 297.234375 98.863281 297.039062 98.636719 C 296.839844 98.410156 296.632812 98.195312 296.410156 97.996094 C 296.1875 97.792969 295.957031 97.605469 295.710938 97.429688 C 295.46875 97.253906 295.214844 97.09375 294.953125 96.949219 C 294.691406 96.804688 294.421875 96.675781 294.140625 96.5625 C 293.863281 96.449219 293.582031 96.351562 293.292969 96.269531 C 293.003906 96.191406 292.710938 96.125 292.414062 96.078125 C 292.117188 96.035156 291.820312 96.003906 291.519531 95.992188 C 291.21875 95.980469 290.921875 95.988281 290.621094 96.011719 C 290.324219 96.035156 290.027344 96.074219 289.730469 96.132812 C 289.4375 96.191406 289.148438 96.265625 288.863281 96.359375 C 288.578125 96.449219 288.296875 96.558594 288.023438 96.683594 C 287.75 96.808594 287.488281 96.949219 287.230469 97.105469 C 286.972656 97.261719 286.726562 97.429688 286.492188 97.613281 C 286.253906 97.800781 286.03125 97.996094 285.816406 98.207031 C 285.601562 98.417969 285.402344 98.640625 285.214844 98.875 C 285.027344 99.109375 284.855469 99.351562 284.695312 99.609375 C 284.535156 99.863281 284.390625 100.125 284.265625 100.394531 C 284.136719 100.667969 284.023438 100.945312 283.929688 101.230469 C 283.832031 101.515625 283.753906 101.804688 283.691406 102.097656 C 283.628906 102.390625 283.585938 102.6875 283.558594 102.984375 C 283.53125 103.285156 283.519531 103.582031 283.527344 103.882812 C 283.535156 104.183594 283.558594 104.480469 283.601562 104.777344 C 283.644531 105.074219 283.703125 105.367188 283.78125 105.660156 C 283.859375 105.949219 283.953125 106.234375 284.0625 106.511719 C 284.171875 106.792969 284.296875 107.0625 284.4375 107.328125 C 284.582031 107.589844 284.738281 107.847656 284.910156 108.09375 C 285.082031 108.339844 285.265625 108.574219 285.464844 108.796875 C 285.664062 109.023438 285.875 109.234375 286.101562 109.433594 C 286.324219 109.632812 286.558594 109.820312 286.804688 109.992188 C 287.050781 110.164062 287.304688 110.320312 287.570312 110.464844 C 287.832031 110.605469 288.105469 110.734375 288.382812 110.84375 C 281.695312 170.582031 258.566406 216.535156 219.550781 247.40625 C 154.964844 298.5 66.359375 292.132812 52.78125 290.800781 C 52.636719 290.355469 52.453125 289.925781 52.226562 289.511719 C 52.003906 289.101562 51.746094 288.710938 51.449219 288.34375 C 51.152344 287.980469 50.828125 287.644531 50.46875 287.339844 C 50.113281 287.035156 49.730469 286.765625 49.324219 286.53125 C 48.917969 286.292969 48.492188 286.097656 48.050781 285.941406 C 47.609375 285.785156 47.15625 285.667969 46.691406 285.597656 C 46.226562 285.523438 45.761719 285.492188 45.289062 285.503906 C 44.820312 285.515625 44.355469 285.570312 43.898438 285.667969 C 43.4375 285.765625 42.992188 285.90625 42.558594 286.085938 C 42.125 286.265625 41.710938 286.484375 41.316406 286.738281 C 40.921875 286.996094 40.554688 287.285156 40.214844 287.609375 C 39.875 287.933594 39.566406 288.285156 39.289062 288.664062 C 39.015625 289.042969 38.773438 289.445312 38.574219 289.871094 C 38.371094 290.292969 38.210938 290.734375 38.089844 291.1875 C 37.96875 291.640625 37.886719 292.101562 37.851562 292.570312 C 37.816406 293.039062 37.824219 293.503906 37.871094 293.972656 C 37.921875 294.441406 38.011719 294.898438 38.148438 295.347656 C 38.28125 295.800781 38.457031 296.234375 38.667969 296.652344 C 38.882812 297.070312 39.132812 297.464844 39.417969 297.835938 C 39.707031 298.210938 40.023438 298.550781 40.375 298.867188 C 40.722656 299.179688 41.097656 299.457031 41.5 299.703125 C 41.898438 299.949219 42.320312 300.152344 42.757812 300.320312 C 43.199219 300.488281 43.648438 300.617188 44.109375 300.699219 C 44.570312 300.785156 45.039062 300.828125 45.507812 300.824219 Z M 45.507812 300.824219 " fill-opacity="1" fill-rule="nonzero"/></g></svg>