<svg xmlns="http://www.w3.org/2000/svg" xmlns:xlink="http://www.w3.org/1999/xlink" width="500" zoomAndPan="magnify" viewBox="0 0 375.12 383.03998" height="500" preserveAspectRatio="xMidYMid meet" version="1.0"><defs><clipPath id="f9f3c602c9"><path d="M 276 38 L 292.921875 38 L 292.921875 106 L 276 106 Z M 276 38 " clip-rule="nonzero"/></clipPath><clipPath id="14bafc6687"><path d="M 81.203125 38 L 98 38 L 98 106 L 81.203125 106 Z M 81.203125 38 " clip-rule="nonzero"/></clipPath><clipPath id="140932edf1"><path d="M 202 304 L 277 304 L 277 336.65625 L 202 336.65625 Z M 202 304 " clip-rule="nonzero"/></clipPath><clipPath id="e27eb716f9"><path d="M 97 304 L 172 304 L 172 336.65625 L 97 336.65625 Z M 97 304 " clip-rule="nonzero"/></clipPath></defs><path fill="#7cebff" d="M 167.34375 95.257812 L 151.683594 95.257812 C 149.085938 95.257812 146.980469 93.152344 146.980469 90.558594 C 146.980469 87.960938 149.085938 85.855469 151.683594 85.855469 L 167.34375 85.855469 C 169.9375 85.855469 172.042969 83.746094 172.042969 81.15625 C 172.042969 78.5625 169.9375 76.453125 167.34375 76.453125 L 151.683594 76.453125 C 146.496094 76.453125 142.277344 72.234375 142.277344 67.050781 L 142.277344 57.652344 C 142.277344 52.464844 146.496094 48.246094 151.683594 48.246094 L 172.042969 48.246094 C 174.640625 48.246094 176.746094 50.351562 176.746094 52.949219 C 176.746094 55.546875 174.640625 57.652344 172.042969 57.652344 L 151.683594 57.652344 L 151.683594 67.050781 L 167.34375 67.050781 C 175.121094 67.050781 181.449219 73.378906 181.449219 81.15625 C 181.449219 88.933594 175.121094 95.257812 167.34375 95.257812 Z M 167.34375 95.257812 " fill-opacity="1" fill-rule="nonzero"/><path fill="#7cebff" d="M 222.441406 95.257812 L 202.078125 95.257812 C 196.890625 95.257812 192.671875 91.039062 192.671875 85.855469 L 192.671875 57.652344 C 192.671875 52.464844 196.890625 48.246094 202.078125 48.246094 L 217.652344 48.246094 C 220.246094 48.246094 222.351562 50.351562 222.351562 52.949219 C 222.351562 55.546875 220.246094 57.652344 217.652344 57.652344 L 202.078125 57.652344 L 202.078125 85.855469 L 222.441406 85.855469 L 222.441406 76.453125 L 217.652344 76.453125 C 215.054688 76.453125 212.949219 74.351562 212.949219 71.753906 C 212.949219 69.15625 215.054688 67.050781 217.652344 67.050781 L 222.441406 67.050781 C 227.625 67.050781 231.84375 71.269531 231.84375 76.453125 L 231.84375 85.855469 C 231.84375 91.039062 227.625 95.257812 222.441406 95.257812 Z M 222.441406 95.257812 " fill-opacity="1" fill-rule="nonzero"/><g clip-path="url(#f9f3c602c9)"><path fill="#7cebff" d="M 280.988281 105.414062 C 280.257812 105.414062 279.515625 105.246094 278.824219 104.886719 C 276.519531 103.6875 275.621094 100.847656 276.816406 98.542969 C 281.144531 90.21875 283.335938 81.207031 283.335938 71.753906 C 283.335938 62.300781 281.144531 53.285156 276.816406 44.960938 C 275.621094 42.65625 276.519531 39.816406 278.824219 38.621094 C 281.128906 37.421875 283.964844 38.320312 285.164062 40.625 C 290.121094 50.167969 292.742188 60.929688 292.742188 71.753906 C 292.742188 82.574219 290.121094 93.339844 285.164062 102.878906 C 284.324219 104.492188 282.6875 105.414062 280.988281 105.414062 Z M 280.988281 105.414062 " fill-opacity="1" fill-rule="nonzero"/></g><path fill="#7cebff" d="M 247.277344 76.9375 C 244.683594 76.9375 242.578125 74.832031 242.578125 72.234375 C 242.578125 71.933594 242.574219 71.636719 242.570312 71.335938 C 242.53125 68.742188 244.609375 66.605469 247.203125 66.570312 C 247.226562 66.566406 247.25 66.566406 247.273438 66.566406 C 249.839844 66.566406 251.9375 68.628906 251.972656 71.203125 C 251.980469 71.546875 251.980469 71.890625 251.980469 72.234375 C 251.980469 74.832031 249.875 76.9375 247.277344 76.9375 Z M 247.277344 76.9375 " fill-opacity="1" fill-rule="nonzero"/><path fill="#7cebff" d="M 264.132812 92.917969 C 263.519531 92.917969 262.898438 92.796875 262.300781 92.542969 C 259.910156 91.53125 258.792969 88.769531 259.804688 86.378906 C 261.769531 81.746094 262.765625 76.824219 262.765625 71.753906 C 262.765625 66.679688 261.769531 61.761719 259.804688 57.125 C 258.792969 54.734375 259.910156 51.976562 262.300781 50.960938 C 264.695312 49.949219 267.453125 51.066406 268.464844 53.457031 C 270.921875 59.257812 272.167969 65.414062 272.167969 71.753906 C 272.167969 78.089844 270.921875 84.246094 268.464844 90.046875 C 267.707031 91.839844 265.964844 92.917969 264.132812 92.917969 Z M 264.132812 92.917969 " fill-opacity="1" fill-rule="nonzero"/><g clip-path="url(#14bafc6687)"><path fill="#7cebff" d="M 93.136719 105.414062 C 91.4375 105.414062 89.796875 104.492188 88.960938 102.878906 C 84 93.339844 81.382812 82.574219 81.382812 71.753906 C 81.382812 60.929688 84 50.167969 88.960938 40.625 C 90.15625 38.320312 92.996094 37.421875 95.300781 38.621094 C 97.605469 39.816406 98.5 42.65625 97.304688 44.960938 C 92.980469 53.285156 90.785156 62.300781 90.785156 71.753906 C 90.785156 81.207031 92.980469 90.21875 97.304688 98.542969 C 98.5 100.847656 97.605469 103.6875 95.300781 104.886719 C 94.605469 105.246094 93.867188 105.414062 93.136719 105.414062 Z M 93.136719 105.414062 " fill-opacity="1" fill-rule="nonzero"/></g><path fill="#7cebff" d="M 126.84375 76.9375 C 124.246094 76.9375 122.140625 74.832031 122.140625 72.234375 C 122.140625 71.890625 122.144531 71.546875 122.148438 71.203125 C 122.183594 68.628906 124.285156 66.566406 126.847656 66.566406 C 126.871094 66.566406 126.894531 66.566406 126.917969 66.570312 C 129.515625 66.605469 131.589844 68.742188 131.550781 71.335938 C 131.546875 71.636719 131.546875 71.933594 131.546875 72.234375 C 131.546875 74.832031 129.441406 76.9375 126.84375 76.9375 Z M 126.84375 76.9375 " fill-opacity="1" fill-rule="nonzero"/><path fill="#7cebff" d="M 109.988281 92.917969 C 108.15625 92.917969 106.417969 91.839844 105.65625 90.046875 C 103.199219 84.246094 101.953125 78.089844 101.953125 71.753906 C 101.953125 65.414062 103.199219 59.257812 105.65625 53.457031 C 106.671875 51.066406 109.429688 49.949219 111.820312 50.960938 C 114.214844 51.976562 115.332031 54.734375 114.316406 57.125 C 112.355469 61.761719 111.359375 66.679688 111.359375 71.753906 C 111.359375 76.824219 112.355469 81.746094 114.316406 86.378906 C 115.332031 88.769531 114.210938 91.53125 111.820312 92.542969 C 111.222656 92.796875 110.601562 92.917969 109.988281 92.917969 Z M 109.988281 92.917969 " fill-opacity="1" fill-rule="nonzero"/><path fill="#7cebff" d="M 166.394531 127.109375 C 166.003906 115.488281 175.433594 105.757812 187.0625 105.78125 C 198.464844 105.78125 207.738281 115.054688 207.738281 126.457031 C 207.886719 137.578125 198.328125 147.292969 187.0625 147.144531 C 176.035156 147.277344 166.601562 137.988281 166.394531 127.109375 Z M 166.394531 127.109375 " fill-opacity="1" fill-rule="nonzero"/><path fill="#7cebff" d="M 212.675781 186.949219 L 161.445312 186.949219 L 166.601562 171.132812 L 167.382812 168.585938 L 170.28125 159.179688 L 172.285156 152.664062 C 176.652344 155.132812 181.695312 156.546875 187.0625 156.546875 C 192.429688 156.546875 197.472656 155.136719 201.839844 152.664062 L 203.84375 159.179688 L 206.742188 168.585938 L 207.523438 171.132812 Z M 212.675781 186.949219 " fill-opacity="1" fill-rule="nonzero"/><g clip-path="url(#140932edf1)"><path fill="#7cebff" d="M 254.996094 336.691406 C 255 336.691406 255.007812 336.691406 255.011719 336.691406 L 272.015625 336.691406 C 274.613281 336.691406 276.71875 334.585938 276.71875 331.988281 C 276.71875 329.398438 274.613281 327.285156 272.015625 327.285156 L 258.421875 327.285156 L 251.015625 304.574219 L 202.476562 320.125 L 253.5 336.46875 C 253.976562 336.621094 254.460938 336.695312 254.933594 336.695312 C 254.957031 336.695312 254.976562 336.691406 254.996094 336.691406 Z M 254.996094 336.691406 " fill-opacity="1" fill-rule="nonzero"/></g><path fill="#7cebff" d="M 245.953125 289.039062 L 235.367188 256.566406 L 199.796875 270.699219 Z M 245.953125 289.039062 " fill-opacity="1" fill-rule="nonzero"/><path fill="#7cebff" d="M 232.070312 246.445312 L 225.613281 226.632812 L 200.953125 235.421875 Z M 232.070312 246.445312 " fill-opacity="1" fill-rule="nonzero"/><g clip-path="url(#e27eb716f9)"><path fill="#7cebff" d="M 102.105469 336.691406 L 119.109375 336.691406 C 119.117188 336.691406 119.121094 336.691406 119.125 336.691406 C 119.148438 336.691406 119.167969 336.695312 119.1875 336.695312 C 119.664062 336.695312 120.148438 336.621094 120.625 336.46875 L 171.648438 320.125 L 123.105469 304.574219 L 115.703125 327.285156 L 102.105469 327.285156 C 99.507812 327.285156 97.402344 329.398438 97.402344 331.988281 C 97.402344 334.585938 99.507812 336.691406 102.105469 336.691406 Z M 102.105469 336.691406 " fill-opacity="1" fill-rule="nonzero"/></g><path fill="#7cebff" d="M 187.0625 275.761719 L 132.125 297.589844 L 187.0625 315.1875 L 242 297.589844 Z M 187.0625 275.761719 " fill-opacity="1" fill-rule="nonzero"/><path fill="#7cebff" d="M 187.0625 265.640625 L 220.539062 252.335938 L 186.914062 240.429688 L 153.546875 252.324219 Z M 187.0625 265.640625 " fill-opacity="1" fill-rule="nonzero"/><path fill="#7cebff" d="M 174.328125 270.699219 L 138.753906 256.566406 L 128.167969 289.042969 Z M 174.328125 270.699219 " fill-opacity="1" fill-rule="nonzero"/><path fill="#7cebff" d="M 154.386719 205.757812 L 155.3125 205.757812 L 151.371094 217.859375 L 186.902344 230.445312 L 222.695312 217.6875 L 218.808594 205.757812 L 219.738281 205.757812 C 222.335938 205.757812 224.441406 203.652344 224.441406 201.054688 C 224.441406 198.457031 222.335938 196.355469 219.738281 196.355469 L 154.386719 196.355469 C 151.789062 196.355469 149.683594 198.457031 149.683594 201.054688 C 149.683594 203.652344 151.789062 205.757812 154.386719 205.757812 Z M 154.386719 205.757812 " fill-opacity="1" fill-rule="nonzero"/><path fill="#7cebff" d="M 142.054688 246.4375 L 172.867188 235.453125 L 148.453125 226.804688 Z M 142.054688 246.4375 " fill-opacity="1" fill-rule="nonzero"/></svg>