<svg xmlns="http://www.w3.org/2000/svg" xmlns:xlink="http://www.w3.org/1999/xlink" width="500" zoomAndPan="magnify" viewBox="0 0 375.12 383.03998" height="500" preserveAspectRatio="xMidYMid meet" version="1.0"><defs><clipPath id="291dfecba1"><path d="M 37.4375 37.40625 L 334.441406 37.40625 L 334.441406 336.65625 L 37.4375 336.65625 Z M 37.4375 37.40625 " clip-rule="nonzero"/></clipPath></defs><g clip-path="url(#291dfecba1)"><path fill="#7cebff" d="M 201.238281 37.40625 L 170.578125 37.40625 L 170.578125 68.066406 L 181.039062 68.066406 L 181.039062 105.148438 C 160.332031 106.375 141.722656 115.25 127.941406 129.027344 C 123.109375 133.863281 118.851562 139.34375 115.316406 145.261719 L 85.015625 129.75 L 85.015625 104.570312 L 54.355469 104.570312 L 54.355469 135.160156 L 74.484375 135.160156 C 74.773438 135.375 74.988281 135.519531 75.277344 135.664062 L 110.914062 153.917969 C 106.441406 164.015625 103.917969 175.199219 103.917969 186.960938 C 103.917969 198.71875 106.441406 209.902344 110.914062 220 L 74.339844 238.757812 L 54.355469 238.757812 L 54.355469 269.417969 L 85.015625 269.417969 L 85.015625 244.242188 L 115.316406 228.65625 C 118.851562 234.644531 123.109375 240.054688 127.941406 244.960938 C 141.722656 258.667969 160.335938 267.542969 181.039062 268.769531 L 181.039062 305.996094 L 170.578125 305.996094 L 170.578125 336.65625 L 201.238281 336.65625 L 201.238281 305.996094 L 190.777344 305.996094 L 190.777344 268.769531 C 211.484375 267.542969 230.097656 258.667969 243.875 244.960938 C 248.710938 240.054688 252.964844 234.644531 256.5 228.65625 L 286.800781 244.242188 L 286.800781 269.417969 L 317.460938 269.417969 L 317.460938 238.757812 L 297.476562 238.757812 L 260.902344 220 C 265.375 209.902344 267.898438 198.71875 267.898438 186.960938 C 267.898438 175.199219 265.375 164.015625 260.902344 153.917969 L 297.476562 135.160156 L 317.460938 135.160156 L 317.460938 104.570312 L 286.800781 104.570312 L 286.800781 129.75 L 256.5 145.261719 C 252.964844 139.34375 248.710938 133.863281 243.875 129.027344 C 230.097656 115.25 211.484375 106.375 190.777344 105.148438 L 190.777344 68.066406 L 201.238281 68.066406 Z M 227.859375 233.347656 C 216.390625 237.890625 201.816406 240.632812 185.871094 240.632812 C 170 240.632812 155.429688 237.894531 143.957031 233.347656 C 142.296875 232.699219 141.289062 231.253906 141.289062 229.523438 L 141.289062 208.167969 C 141.289062 206.148438 143.8125 204.273438 148.070312 202.6875 C 146.628906 202.179688 145.257812 201.675781 143.957031 201.171875 C 142.296875 200.523438 141.289062 199.007812 141.289062 197.273438 L 141.289062 175.921875 C 141.289062 173.902344 143.8125 172.027344 148.070312 170.4375 C 146.628906 170.003906 145.257812 169.5 143.957031 168.921875 C 142.300781 168.347656 141.289062 166.832031 141.289062 165.101562 L 141.289062 143.746094 C 141.289062 137.972656 161.273438 133.355469 185.875 133.355469 C 210.546875 133.355469 230.53125 137.972656 230.53125 143.746094 L 230.53125 165.101562 C 230.53125 166.832031 229.519531 168.347656 227.863281 168.921875 C 226.5625 169.5 225.191406 170.003906 223.75 170.4375 C 228.007812 172.027344 230.53125 173.902344 230.53125 175.921875 L 230.53125 197.277344 C 230.53125 199.007812 229.523438 200.523438 227.863281 201.171875 C 226.5625 201.675781 225.195312 202.179688 223.75 202.6875 C 228.007812 204.273438 230.53125 206.148438 230.53125 208.167969 L 230.53125 229.523438 C 230.527344 231.253906 229.519531 232.699219 227.859375 233.347656 Z M 201.09375 207.59375 C 196.261719 208.097656 191.140625 208.386719 185.871094 208.386719 C 180.679688 208.386719 175.554688 208.097656 170.722656 207.59375 C 167.332031 207.878906 163.941406 208.3125 160.621094 208.890625 C 158.601562 209.25 153.480469 210.261719 150.449219 211.488281 C 152.542969 213.433594 182.988281 215.597656 185.871094 215.597656 C 200.375 215.597656 213.214844 214.011719 221.367188 211.558594 L 221.367188 211.488281 C 218.335938 210.261719 213.214844 209.25 211.195312 208.890625 C 207.875 208.3125 204.484375 207.878906 201.09375 207.59375 Z M 221.367188 179.3125 C 218.335938 178.085938 213.214844 177.003906 211.195312 176.644531 C 207.875 176.066406 204.484375 175.632812 201.09375 175.34375 C 196.261719 175.921875 191.140625 176.210938 185.871094 176.210938 C 180.679688 176.210938 175.554688 175.921875 170.722656 175.34375 C 167.332031 175.632812 163.941406 176.066406 160.621094 176.644531 C 158.601562 177.003906 153.480469 178.085938 150.449219 179.3125 C 152.542969 181.257812 182.988281 183.425781 185.871094 183.425781 C 200.375 183.425781 213.214844 181.835938 221.367188 179.3125 Z M 224.398438 194.171875 C 222.882812 194.605469 221.441406 195.109375 219.851562 195.542969 L 219.851562 190.855469 C 221.441406 190.421875 222.882812 189.917969 224.398438 189.410156 Z M 215.378906 196.699219 C 214.441406 196.914062 213.503906 197.132812 212.492188 197.347656 C 211.988281 197.421875 211.410156 197.5625 210.90625 197.636719 L 210.90625 193.089844 C 211.121094 193.019531 211.339844 193.019531 211.628906 192.945312 C 212.855469 192.660156 214.152344 192.371094 215.378906 192.082031 Z M 206.363281 198.429688 C 204.917969 198.644531 203.402344 198.863281 201.886719 199.007812 L 201.886719 194.535156 C 203.402344 194.390625 204.917969 194.175781 206.363281 193.886719 Z M 221.367188 147.136719 C 218.335938 145.910156 213.214844 144.828125 211.195312 144.46875 C 202.972656 143.023438 194.242188 142.519531 185.871094 142.519531 C 177.578125 142.519531 168.847656 143.023438 160.621094 144.46875 C 158.601562 144.828125 153.480469 145.910156 150.449219 147.136719 C 152.542969 149.085938 182.988281 151.175781 185.871094 151.175781 C 200.375 151.175781 213.214844 149.589844 221.367188 147.136719 Z M 224.398438 161.925781 C 222.882812 162.429688 221.441406 162.863281 219.851562 163.296875 L 219.851562 158.679688 C 221.441406 158.246094 222.882812 157.742188 224.398438 157.234375 Z M 215.378906 164.449219 C 214.441406 164.667969 213.503906 164.882812 212.492188 165.101562 C 211.988281 165.242188 211.410156 165.316406 210.90625 165.460938 L 210.90625 160.914062 C 211.121094 160.84375 211.339844 160.773438 211.628906 160.773438 C 212.855469 160.484375 214.152344 160.195312 215.378906 159.90625 Z M 206.363281 166.253906 C 204.917969 166.46875 203.402344 166.6875 201.886719 166.832031 L 201.886719 162.359375 C 203.402344 162.140625 204.917969 161.925781 206.363281 161.707031 Z M 224.398438 226.347656 C 222.882812 226.855469 221.441406 227.285156 219.851562 227.71875 L 219.851562 223.101562 C 221.441406 222.597656 222.882812 222.164062 224.398438 221.589844 Z M 215.378906 228.875 C 214.441406 229.089844 213.503906 229.304688 212.492188 229.523438 C 211.988281 229.667969 211.410156 229.738281 210.90625 229.8125 L 210.90625 225.339844 C 211.121094 225.265625 211.339844 225.195312 211.628906 225.195312 C 212.855469 224.90625 214.152344 224.617188 215.378906 224.328125 Z M 206.363281 230.605469 C 204.917969 230.894531 203.402344 231.039062 201.886719 231.253906 L 201.886719 226.710938 C 203.402344 226.566406 204.917969 226.347656 206.363281 226.132812 Z M 302.3125 211.921875 C 300.867188 209.613281 301.589844 206.582031 303.898438 205.210938 C 306.207031 203.769531 309.164062 204.488281 310.609375 206.796875 L 313.132812 210.910156 C 313.566406 208.890625 313.855469 206.871094 314.144531 204.777344 C 314.9375 199.007812 315.371094 193.089844 315.371094 186.960938 C 315.371094 180.898438 314.9375 174.910156 314.144531 169.140625 C 313.347656 163.222656 312.121094 157.453125 310.535156 151.753906 C 309.8125 149.15625 311.328125 146.488281 313.925781 145.765625 C 316.523438 145.042969 319.191406 146.558594 319.914062 149.15625 C 321.644531 155.214844 322.945312 161.421875 323.808594 167.839844 C 324.675781 174.191406 325.109375 180.539062 325.109375 186.960938 C 325.109375 193.378906 324.675781 199.800781 323.808594 206.078125 C 323.519531 208.457031 323.089844 210.839844 322.65625 213.148438 L 326.765625 210.621094 C 329.074219 209.179688 332.105469 209.902344 333.476562 212.136719 C 334.917969 214.445312 334.199219 217.476562 331.890625 218.847656 L 318.183594 227.359375 C 317.027344 228.296875 315.441406 228.585938 313.925781 228.152344 C 313.132812 227.9375 312.410156 227.574219 311.832031 227 L 311.761719 226.925781 L 311.6875 226.855469 L 311.542969 226.710938 L 311.472656 226.636719 C 311.328125 226.421875 311.183594 226.277344 311.039062 226.0625 Z M 97.0625 92.8125 C 95.117188 94.6875 92.015625 94.542969 90.136719 92.597656 C 88.335938 90.648438 88.40625 87.546875 90.355469 85.742188 C 99.230469 77.375 109.257812 70.085938 120.078125 64.316406 C 127.21875 60.421875 134.796875 57.171875 142.585938 54.648438 L 138.402344 52.269531 C 136.09375 50.96875 135.226562 47.941406 136.527344 45.632812 C 137.898438 43.25 140.855469 42.457031 143.164062 43.753906 L 157.375 51.691406 C 158.675781 52.339844 159.683594 53.496094 160.042969 55.011719 L 160.042969 55.082031 L 160.117188 55.152344 L 160.117188 55.441406 C 160.332031 56.453125 160.117188 57.535156 159.539062 58.542969 L 151.386719 73.046875 C 150.089844 75.425781 147.132812 76.21875 144.75 74.921875 C 142.441406 73.621094 141.574219 70.664062 142.875 68.285156 L 145.328125 64.027344 C 138.113281 66.410156 131.261719 69.367188 124.695312 72.902344 C 114.59375 78.3125 105.289062 85.019531 97.0625 92.8125 Z M 215.378906 60.925781 C 212.78125 60.273438 211.121094 57.679688 211.773438 55.007812 C 212.347656 52.410156 215.019531 50.753906 217.617188 51.402344 C 229.664062 54.214844 241.132812 58.542969 251.738281 64.316406 C 259.027344 68.210938 265.953125 72.757812 272.371094 77.878906 L 272.011719 73.042969 C 271.867188 70.304688 273.886719 67.996094 276.558594 67.777344 C 279.226562 67.632812 281.609375 69.652344 281.75 72.324219 L 282.976562 88.917969 C 283.195312 91.511719 281.320312 93.75 278.792969 94.109375 L 278.578125 94.109375 C 278.503906 94.109375 278.433594 94.109375 278.359375 94.109375 L 261.839844 95.335938 C 259.171875 95.554688 256.863281 93.535156 256.644531 90.792969 C 256.429688 88.125 258.523438 85.816406 261.191406 85.597656 L 265.953125 85.238281 C 260.109375 80.621094 253.761719 76.4375 247.125 72.902344 C 237.238281 67.5625 226.632812 63.523438 215.378906 60.925781 Z M 274.753906 281.105469 C 276.703125 279.300781 279.804688 279.375 281.679688 281.320312 C 283.484375 283.269531 283.410156 286.371094 281.460938 288.246094 C 272.589844 296.617188 262.5625 303.832031 251.738281 309.675781 C 244.597656 313.5 237.023438 316.746094 229.160156 319.339844 L 233.414062 321.722656 C 235.722656 323.019531 236.589844 325.976562 235.292969 328.359375 C 233.921875 330.667969 230.960938 331.535156 228.652344 330.234375 L 214.371094 322.226562 C 213.144531 321.578125 212.207031 320.496094 211.773438 319.125 L 211.773438 318.910156 C 211.484375 317.753906 211.628906 316.527344 212.277344 315.445312 L 220.429688 300.875 C 221.730469 298.566406 224.6875 297.699219 227.066406 299.070312 C 229.375 300.367188 230.242188 303.328125 228.941406 305.707031 L 226.488281 309.964844 C 233.703125 307.582031 240.558594 304.625 247.121094 301.089844 C 257.222656 295.679688 266.527344 288.898438 274.753906 281.105469 Z M 156.4375 313.066406 C 159.035156 313.640625 160.695312 316.3125 160.042969 318.910156 C 159.46875 321.578125 156.796875 323.164062 154.203125 322.585938 C 142.152344 319.773438 130.683594 315.375 120.078125 309.675781 C 112.792969 305.707031 105.867188 301.160156 99.445312 296.039062 L 99.804688 300.945312 C 99.949219 303.613281 97.929688 305.996094 95.261719 306.140625 C 92.589844 306.355469 90.210938 304.335938 90.066406 301.664062 L 88.839844 285 C 88.695312 282.621094 90.28125 280.527344 92.519531 279.949219 L 92.664062 279.949219 L 92.734375 279.878906 C 93.023438 279.878906 93.238281 279.804688 93.527344 279.804688 L 109.976562 278.578125 C 112.644531 278.433594 114.953125 280.453125 115.171875 283.125 C 115.386719 285.792969 113.296875 288.175781 110.625 288.320312 L 105.863281 288.679688 C 111.707031 293.367188 118.058594 297.480469 124.695312 301.089844 C 134.578125 306.355469 145.183594 310.46875 156.4375 313.066406 Z M 61.28125 222.164062 C 62.003906 224.761719 60.488281 227.433594 57.890625 228.152344 C 55.292969 228.945312 52.625 227.433594 51.902344 224.835938 C 50.171875 218.773438 48.871094 212.5 48.007812 206.078125 C 47.140625 199.800781 46.707031 193.382812 46.707031 186.960938 C 46.707031 180.539062 47.140625 174.191406 48.007812 167.839844 C 48.296875 165.460938 48.730469 163.152344 49.160156 160.84375 L 45.050781 163.367188 C 42.742188 164.8125 39.710938 164.089844 38.339844 161.78125 C 36.898438 159.472656 37.617188 156.515625 39.925781 155.070312 L 53.632812 146.632812 C 54.789062 145.695312 56.375 145.332031 57.890625 145.765625 C 58.613281 145.980469 59.1875 146.269531 59.695312 146.703125 L 59.839844 146.777344 L 59.910156 146.847656 C 60.199219 147.207031 60.488281 147.496094 60.777344 147.929688 L 69.503906 162.070312 C 70.949219 164.378906 70.226562 167.335938 67.917969 168.777344 C 65.609375 170.148438 62.652344 169.5 61.207031 167.191406 L 58.683594 163.007812 C 58.25 165.027344 57.960938 167.121094 57.671875 169.140625 C 56.878906 174.910156 56.445312 180.898438 56.445312 186.960938 C 56.445312 193.089844 56.878906 199.007812 57.671875 204.777344 C 58.46875 210.695312 59.695312 216.539062 61.28125 222.164062 Z M 236.949219 135.953125 C 223.890625 122.894531 205.855469 114.816406 185.871094 114.816406 C 165.960938 114.816406 147.925781 122.894531 134.867188 135.953125 C 121.808594 149.011719 113.730469 167.046875 113.730469 186.960938 C 113.730469 206.941406 121.808594 224.976562 134.867188 238.035156 C 147.925781 251.09375 165.960938 259.175781 185.871094 259.175781 C 205.855469 259.175781 223.890625 251.09375 236.949219 238.035156 C 250.007812 224.976562 258.089844 206.941406 258.089844 186.960938 C 258.089844 167.046875 250.007812 149.011719 236.949219 135.953125 Z M 236.949219 135.953125 " fill-opacity="1" fill-rule="evenodd"/></g></svg>