<svg xmlns="http://www.w3.org/2000/svg" xmlns:xlink="http://www.w3.org/1999/xlink" width="500" zoomAndPan="magnify" viewBox="0 0 375.12 383.03998" height="500" preserveAspectRatio="xMidYMid meet" version="1.0"><defs><clipPath id="cea9fccbcd"><path d="M 55.578125 37.40625 L 318.917969 37.40625 L 318.917969 336.65625 L 55.578125 336.65625 Z M 55.578125 37.40625 " clip-rule="nonzero"/></clipPath></defs><g clip-path="url(#cea9fccbcd)"><path fill="#7cebff" d="M 96.011719 109.234375 C 94.167969 110.265625 91.886719 109.601562 90.933594 107.835938 C 89.902344 106.070312 90.492188 103.789062 92.257812 102.757812 L 126.921875 82.738281 L 161.589844 62.792969 C 163.351562 61.761719 165.636719 62.351562 166.667969 64.117188 C 167.695312 65.882812 167.039062 68.164062 165.269531 69.195312 L 130.601562 89.214844 Z M 97.777344 258.054688 C 95.71875 258.054688 94.023438 256.4375 94.023438 254.378906 C 94.023438 252.316406 95.71875 250.625 97.777344 250.625 L 183.375 250.625 L 183.375 238.773438 C 183.375 236.710938 185.066406 235.019531 187.128906 235.019531 C 189.191406 235.019531 190.808594 236.710938 190.808594 238.773438 L 190.808594 250.625 L 276.40625 250.625 C 278.46875 250.625 280.160156 252.316406 280.160156 254.378906 C 280.160156 256.4375 278.46875 258.054688 276.40625 258.054688 L 190.808594 258.054688 L 190.808594 294.34375 C 190.808594 296.402344 189.191406 298.09375 187.128906 298.09375 C 185.066406 298.09375 183.375 296.402344 183.375 294.34375 L 183.375 258.054688 Z M 293.335938 228.835938 C 294.292969 230.601562 293.703125 232.886719 291.933594 233.914062 C 290.171875 234.945312 287.886719 234.285156 286.859375 232.515625 L 244.023438 158.402344 L 238.652344 161.566406 C 236.882812 162.597656 234.601562 161.933594 233.570312 160.167969 C 232.539062 158.402344 233.203125 156.117188 234.96875 155.089844 L 240.339844 151.996094 L 197.507812 77.882812 C 196.546875 76.042969 197.136719 73.757812 198.90625 72.800781 C 200.671875 71.773438 202.953125 72.363281 203.980469 74.125 L 246.746094 148.242188 L 278.246094 130.136719 C 280.015625 129.105469 282.296875 129.695312 283.324219 131.460938 C 284.355469 133.226562 283.695312 135.511719 281.925781 136.539062 L 250.5 154.71875 Z M 170.203125 74.125 C 171.230469 72.359375 173.511719 71.773438 175.277344 72.800781 C 177.046875 73.757812 177.707031 76.042969 176.675781 77.882812 L 133.839844 151.996094 L 147.753906 160.019531 C 149.515625 161.050781 150.105469 163.332031 149.078125 165.097656 C 148.046875 166.867188 145.765625 167.453125 144 166.425781 L 130.164062 158.402344 L 87.324219 232.515625 C 86.292969 234.285156 84.085938 234.945312 82.25 233.914062 C 80.480469 232.886719 79.894531 230.601562 80.921875 228.835938 L 123.683594 154.71875 L 92.257812 136.539062 C 90.492188 135.511719 89.902344 133.226562 90.933594 131.460938 C 91.964844 129.695312 94.242188 129.105469 96.011719 130.136719 L 127.4375 148.242188 Z M 145.765625 178.9375 C 149.296875 178.9375 152.679688 179.746094 155.699219 181.144531 C 155.625 180.261719 155.550781 179.375 155.550781 178.421875 C 155.550781 161.492188 169.316406 147.730469 186.316406 147.730469 C 200.160156 147.730469 211.859375 156.855469 215.761719 169.441406 C 218.113281 168.851562 220.617188 168.484375 223.195312 168.484375 C 239.164062 168.484375 252.117188 181.4375 252.117188 197.410156 C 252.117188 213.382812 239.164062 226.335938 223.195312 226.335938 L 145.765625 226.335938 C 132.664062 226.335938 122.066406 215.738281 122.066406 202.632812 C 122.066406 189.535156 132.664062 178.9375 145.765625 178.9375 Z M 116.765625 223.316406 C 118.605469 222.285156 120.8125 222.875 121.84375 224.640625 C 122.875 226.480469 122.285156 228.761719 120.519531 229.792969 L 96.011719 243.925781 C 94.167969 244.957031 91.886719 244.292969 90.933594 242.527344 C 89.902344 240.761719 90.492188 238.480469 92.257812 237.449219 Z M 183.375 79.648438 C 183.375 77.585938 185.066406 75.894531 187.128906 75.894531 C 189.191406 75.894531 190.808594 77.585938 190.808594 79.648438 L 190.808594 135.214844 C 190.808594 137.277344 189.191406 138.96875 187.128906 138.96875 C 185.066406 138.96875 183.375 137.277344 183.375 135.214844 Z M 251.824219 228.691406 C 249.984375 227.660156 249.394531 225.378906 250.425781 223.535156 C 251.453125 221.769531 253.738281 221.183594 255.503906 222.210938 L 281.925781 237.449219 C 283.695312 238.480469 284.355469 240.761719 283.324219 242.527344 C 282.296875 244.292969 280.015625 244.957031 278.246094 243.925781 Z M 70.46875 104.820312 C 78.636719 104.820312 85.339844 111.445312 85.339844 119.6875 C 85.339844 127.855469 78.636719 134.554688 70.46875 134.554688 C 62.226562 134.554688 55.601562 127.855469 55.601562 119.6875 C 55.601562 111.445312 62.226562 104.820312 70.46875 104.820312 Z M 70.46875 239.511719 C 78.636719 239.511719 85.339844 246.132812 85.339844 254.378906 C 85.339844 262.546875 78.636719 269.242188 70.46875 269.242188 C 62.226562 269.242188 55.601562 262.546875 55.601562 254.378906 C 55.601562 246.132812 62.226562 239.511719 70.46875 239.511719 Z M 303.714844 239.511719 C 311.957031 239.511719 318.582031 246.132812 318.582031 254.378906 C 318.582031 262.546875 311.957031 269.242188 303.714844 269.242188 C 295.542969 269.242188 288.847656 262.546875 288.847656 254.378906 C 288.847656 246.132812 295.542969 239.511719 303.714844 239.511719 Z M 303.714844 104.820312 C 311.957031 104.820312 318.582031 111.445312 318.582031 119.6875 C 318.582031 127.855469 311.957031 134.554688 303.714844 134.554688 C 295.542969 134.554688 288.847656 127.855469 288.847656 119.6875 C 288.847656 111.445312 295.542969 104.820312 303.714844 104.820312 Z M 187.128906 306.855469 C 195.300781 306.855469 201.992188 313.476562 201.992188 321.722656 C 201.992188 329.890625 195.300781 336.589844 187.128906 336.589844 C 178.886719 336.589844 172.261719 329.890625 172.261719 321.722656 C 172.261719 313.476562 178.886719 306.855469 187.128906 306.855469 Z M 187.128906 37.472656 C 195.300781 37.472656 201.992188 44.097656 201.992188 52.34375 C 201.992188 60.511719 195.300781 67.207031 187.128906 67.207031 C 178.886719 67.207031 172.261719 60.511719 172.261719 52.34375 C 172.261719 44.097656 178.886719 37.472656 187.128906 37.472656 Z M 208.914062 69.195312 C 207.148438 68.164062 206.488281 65.882812 207.515625 64.117188 C 208.550781 62.351562 210.828125 61.761719 212.597656 62.792969 L 247.261719 82.738281 L 281.925781 102.757812 C 283.695312 103.789062 284.355469 106.070312 283.324219 107.835938 C 282.296875 109.601562 280.015625 110.265625 278.246094 109.234375 L 243.578125 89.214844 Z M 300.03125 146.992188 C 300.03125 144.933594 301.65625 143.238281 303.714844 143.238281 C 305.773438 143.238281 307.464844 144.933594 307.464844 146.992188 L 307.464844 226.996094 C 307.464844 229.058594 305.773438 230.75 303.714844 230.75 C 301.65625 230.75 300.03125 229.058594 300.03125 226.996094 Z M 278.246094 264.828125 C 280.015625 263.796875 282.296875 264.386719 283.324219 266.152344 C 284.355469 267.917969 283.695312 270.199219 281.925781 271.230469 L 212.597656 311.269531 C 210.828125 312.300781 208.550781 311.636719 207.515625 309.871094 C 206.488281 308.105469 207.148438 305.824219 208.914062 304.792969 L 243.578125 284.773438 Z M 165.269531 304.792969 C 167.039062 305.824219 167.699219 308.105469 166.667969 309.871094 C 165.636719 311.636719 163.351562 312.300781 161.589844 311.269531 L 126.925781 291.25 L 92.257812 271.230469 C 90.492188 270.203125 89.902344 267.917969 90.933594 266.152344 C 91.886719 264.386719 94.167969 263.796875 96.011719 264.828125 L 130.601562 284.773438 Z M 74.226562 226.996094 C 74.226562 229.058594 72.53125 230.75 70.46875 230.75 C 68.410156 230.75 66.71875 229.058594 66.71875 226.996094 L 66.71875 146.992188 C 66.71875 144.933594 68.410156 143.238281 70.46875 143.238281 C 72.53125 143.238281 74.226562 144.933594 74.226562 146.992188 Z M 74.226562 226.996094 " fill-opacity="1" fill-rule="nonzero"/></g></svg>