<svg xmlns="http://www.w3.org/2000/svg" xmlns:xlink="http://www.w3.org/1999/xlink" width="500" zoomAndPan="magnify" viewBox="0 0 375.12 383.03998" height="500" preserveAspectRatio="xMidYMid meet" version="1.0"><defs><clipPath id="abc4eed9f7"><path d="M 37.4375 37.40625 L 336.6875 37.40625 L 336.6875 327.679688 L 37.4375 327.679688 Z M 37.4375 37.40625 " clip-rule="nonzero"/></clipPath></defs><g clip-path="url(#abc4eed9f7)"><path fill="#7cebff" d="M 329.832031 241.578125 C 334.128906 247.003906 336.6875 253.828125 336.6875 261.230469 L 336.6875 297.871094 C 336.6875 311.011719 328.617188 322.332031 317.078125 327.253906 C 324.160156 319.425781 324.917969 306.613281 324.917969 297.871094 L 324.917969 261.230469 C 324.917969 247.851562 313.832031 237.023438 300.222656 237.023438 L 74.625 237.023438 C 61.011719 237.023438 49.925781 247.851562 49.925781 261.230469 L 49.925781 297.871094 C 49.925781 306.613281 49.960938 319.425781 57.042969 327.253906 C 45.503906 322.332031 37.4375 311.011719 37.4375 297.871094 L 37.4375 261.230469 C 37.4375 253.828125 39.996094 247.003906 44.292969 241.578125 C 43.5 242.460938 42.761719 243.390625 42.082031 244.363281 L 72.089844 200.714844 C 76.28125 194.59375 83.394531 190.566406 91.457031 190.566406 L 163.035156 190.566406 C 162.023438 193.210938 161.46875 196.0625 161.46875 199.042969 C 161.46875 212.589844 172.933594 223.59375 187.0625 223.59375 C 201.1875 223.59375 212.65625 212.589844 212.65625 199.042969 C 212.65625 196.0625 212.101562 193.210938 211.085938 190.566406 L 282.664062 190.566406 C 290.726562 190.566406 297.839844 194.59375 302.035156 200.714844 L 332.039062 244.363281 C 331.359375 243.390625 330.621094 242.460938 329.832031 241.578125 Z M 256.429688 110.742188 C 261.589844 115.691406 261.589844 123.730469 256.429688 128.679688 C 251.269531 133.628906 242.890625 133.628906 237.730469 128.679688 C 209.765625 101.851562 164.355469 101.851562 136.390625 128.679688 C 131.230469 133.628906 122.851562 133.628906 117.691406 128.679688 C 112.53125 123.730469 112.53125 115.691406 117.691406 110.742188 C 155.976562 74.015625 218.144531 74.015625 256.429688 110.742188 Z M 290.152344 78.394531 C 295.3125 83.34375 295.3125 91.378906 290.152344 96.332031 C 284.992188 101.28125 276.613281 101.28125 271.453125 96.332031 C 224.875 51.652344 149.246094 51.652344 102.667969 96.332031 C 97.507812 101.28125 89.128906 101.28125 83.96875 96.332031 C 78.808594 91.378906 78.808594 83.34375 83.96875 78.394531 C 140.867188 23.8125 233.253906 23.8125 290.152344 78.394531 Z M 223.15625 142.660156 C 228.316406 147.609375 228.316406 155.644531 223.15625 160.597656 C 217.996094 165.546875 209.617188 165.546875 204.457031 160.597656 C 194.855469 151.386719 179.265625 151.386719 169.664062 160.597656 C 164.503906 165.546875 156.125 165.546875 150.964844 160.597656 C 145.804688 155.644531 145.804688 147.609375 150.964844 142.660156 C 170.886719 123.546875 203.234375 123.546875 223.15625 142.660156 Z M 165.21875 187.441406 C 168.492188 178.914062 177.042969 172.828125 187.0625 172.828125 C 197.082031 172.828125 205.628906 178.914062 208.902344 187.441406 C 209.824219 189.84375 210.328125 192.441406 210.328125 195.148438 C 210.328125 207.464844 199.902344 217.464844 187.0625 217.464844 C 174.21875 217.464844 163.792969 207.464844 163.792969 195.148438 C 163.792969 192.441406 164.296875 189.84375 165.21875 187.441406 Z M 90.769531 262.335938 C 100.148438 262.335938 108.4375 264.835938 113.59375 268.5 C 117.902344 271.5625 120.1875 275.503906 120.1875 279.589844 C 120.1875 283.675781 117.902344 287.617188 113.59375 290.679688 C 108.4375 294.34375 100.148438 296.84375 90.769531 296.84375 C 81.390625 296.84375 73.101562 294.34375 67.949219 290.679688 C 63.636719 287.617188 61.355469 283.675781 61.355469 279.589844 C 61.355469 275.503906 63.636719 271.5625 67.949219 268.5 C 73.101562 264.835938 81.390625 262.335938 90.769531 262.335938 Z M 90.769531 262.335938 " fill-opacity="1" fill-rule="evenodd"/></g></svg>