<svg xmlns="http://www.w3.org/2000/svg" xmlns:xlink="http://www.w3.org/1999/xlink" width="500" zoomAndPan="magnify" viewBox="0 0 375.12 383.03998" height="500" preserveAspectRatio="xMidYMid meet" version="1.0"><defs><clipPath id="0ec39d69bb"><path d="M 47.097656 37.40625 L 326.898438 37.40625 L 326.898438 336.65625 L 47.097656 336.65625 Z M 47.097656 37.40625 " clip-rule="nonzero"/></clipPath></defs><g clip-path="url(#0ec39d69bb)"><path fill="#7cebff" d="M 47.292969 245.179688 L 47.292969 168.375 C 47.292969 162.832031 51.832031 158.292969 57.375 158.292969 L 132.808594 158.292969 L 132.808594 184.78125 C 132.808594 186.804688 134.457031 188.453125 136.480469 188.453125 C 140.464844 188.453125 144.070312 190.0625 146.683594 192.679688 C 149.300781 195.292969 150.910156 198.898438 150.910156 202.878906 C 150.910156 206.863281 149.300781 210.484375 146.683594 213.101562 C 144.070312 215.699219 140.464844 217.328125 136.480469 217.328125 C 134.457031 217.328125 132.808594 218.972656 132.808594 220.980469 L 132.808594 245.179688 L 114.363281 245.179688 C 113.601562 240.640625 111.417969 236.570312 108.300781 233.453125 C 104.367188 229.519531 98.929688 227.078125 92.902344 227.078125 C 86.890625 227.078125 81.453125 229.519531 77.519531 233.453125 C 74.402344 236.570312 72.21875 240.640625 71.4375 245.179688 Z M 253.578125 93.839844 L 199.082031 93.546875 C 215.296875 76.519531 229.707031 69.640625 245.644531 63.371094 C 268.578125 54.328125 282.210938 62.574219 303.046875 37.40625 C 303.046875 37.40625 310.980469 49.582031 326.882812 73.972656 C 312.78125 86.945312 314.183594 96.785156 294.109375 112.304688 C 277.84375 124.863281 256.539062 136.917969 242.527344 134.128906 C 227.09375 131.046875 236.117188 114.367188 244.242188 111.578125 C 248.207031 110.210938 253.125 108.980469 255.34375 101.515625 C 256.105469 98.792969 254.632812 96.023438 253.578125 93.839844 Z M 171.421875 189.4375 L 171.421875 162.953125 C 181.414062 162.953125 189.519531 154.863281 189.519531 144.851562 C 189.519531 134.859375 181.414062 126.753906 171.421875 126.753906 L 171.421875 100.265625 L 248.589844 100.265625 L 248.589844 100.527344 C 247.359375 103.714844 245.417969 104.058594 242.058594 105.222656 C 232.910156 108.355469 225.101562 120.550781 228.042969 130.148438 C 229.914062 136.246094 235.234375 139.535156 241.207031 140.714844 C 247.183594 141.910156 253.835938 141.007812 260.589844 138.894531 L 260.589844 189.4375 L 234.109375 189.4375 C 234.109375 199.453125 226 207.558594 216.007812 207.558594 C 205.996094 207.558594 197.90625 199.453125 197.90625 189.4375 Z M 225.65625 252.507812 L 225.65625 326.574219 C 225.65625 332.117188 221.117188 336.65625 215.574219 336.65625 L 140.136719 336.65625 L 140.136719 310.171875 C 140.136719 308.144531 138.492188 306.5 136.480469 306.5 C 132.480469 306.5 128.878906 304.886719 126.261719 302.273438 C 123.648438 299.65625 122.035156 296.054688 122.035156 292.070312 C 122.035156 288.070312 123.648438 284.464844 126.261719 281.851562 C 128.878906 279.234375 132.480469 277.625 136.480469 277.625 C 138.492188 277.625 140.136719 275.976562 140.136719 273.953125 L 140.136719 252.507812 L 160.628906 252.507812 C 161.390625 257.0625 163.574219 261.117188 166.691406 264.234375 C 170.625 268.183594 176.078125 270.625 182.089844 270.625 C 188.101562 270.625 193.539062 268.183594 197.472656 264.234375 C 200.605469 261.117188 202.773438 257.0625 203.550781 252.507812 Z M 132.808594 336.65625 L 57.375 336.65625 C 51.832031 336.65625 47.292969 332.117188 47.292969 326.574219 L 47.292969 252.507812 L 74.800781 252.507812 C 76.824219 252.507812 78.472656 250.878906 78.472656 248.851562 C 78.472656 244.867188 80.082031 241.25 82.699219 238.632812 C 85.3125 236.035156 88.917969 234.40625 92.898438 234.40625 C 96.902344 234.40625 100.503906 236.035156 103.121094 238.632812 C 105.734375 241.25 107.347656 244.867188 107.347656 248.851562 C 107.347656 250.878906 108.992188 252.507812 111.019531 252.507812 L 132.808594 252.507812 L 132.808594 270.609375 C 128.269531 271.371094 124.199219 273.554688 121.082031 276.671875 C 117.132812 280.601562 114.707031 286.058594 114.707031 292.070312 C 114.707031 298.082031 117.132812 303.519531 121.082031 307.453125 C 124.199219 310.570312 128.269531 312.753906 132.808594 313.53125 Z M 132.808594 336.65625 " fill-opacity="1" fill-rule="evenodd"/></g></svg>