<svg xmlns="http://www.w3.org/2000/svg" xmlns:xlink="http://www.w3.org/1999/xlink" width="500" zoomAndPan="magnify" viewBox="0 0 375.12 383.03998" height="500" preserveAspectRatio="xMidYMid meet" version="1.0"><defs><clipPath id="984f73a6c7"><path d="M 37.4375 51 L 323 51 L 323 336.65625 L 37.4375 336.65625 Z M 37.4375 51 " clip-rule="nonzero"/></clipPath><clipPath id="b8bdc5a94c"><path d="M 270 37.40625 L 336.6875 37.40625 L 336.6875 104 L 270 104 Z M 270 37.40625 " clip-rule="nonzero"/></clipPath></defs><g clip-path="url(#984f73a6c7)"><path fill="#7cebff" d="M 270.460938 114.242188 L 269.9375 114.730469 C 288.648438 135.917969 300.011719 163.667969 300.011719 194.082031 C 300.011719 260.230469 246.160156 314.082031 180.011719 314.082031 C 113.859375 314.082031 60.011719 260.230469 60.011719 194.082031 C 60.011719 127.894531 113.859375 74.082031 180.011719 74.082031 C 210.386719 74.082031 238.171875 85.445312 259.324219 104.15625 L 259.847656 103.632812 L 255.535156 73.292969 C 233.597656 59.570312 207.722656 51.582031 180.011719 51.582031 C 101.449219 51.582031 37.511719 115.480469 37.511719 194.082031 C 37.511719 272.644531 101.449219 336.582031 180.011719 336.582031 C 258.574219 336.582031 322.511719 272.644531 322.511719 194.082031 C 322.511719 166.367188 314.523438 140.492188 300.796875 118.554688 Z M 270.460938 114.242188 " fill-opacity="1" fill-rule="nonzero"/></g><path fill="#7cebff" d="M 180.011719 89.082031 C 122.109375 89.082031 75.011719 136.179688 75.011719 194.082031 C 75.011719 251.980469 122.109375 299.082031 180.011719 299.082031 C 237.910156 299.082031 285.011719 251.980469 285.011719 194.082031 C 285.011719 167.832031 275.296875 143.792969 259.324219 125.382812 L 243.386719 141.320312 C 255.3125 155.644531 262.511719 174.019531 262.511719 194.082031 C 262.511719 239.570312 225.5 276.582031 180.011719 276.582031 C 134.523438 276.582031 97.511719 239.570312 97.511719 194.082031 C 97.511719 148.59375 134.523438 111.582031 180.011719 111.582031 C 200.074219 111.582031 218.449219 118.78125 232.773438 130.707031 L 248.710938 114.769531 C 230.296875 98.792969 206.261719 89.082031 180.011719 89.082031 Z M 180.011719 89.082031 " fill-opacity="1" fill-rule="nonzero"/><path fill="#7cebff" d="M 180.011719 126.582031 C 142.8125 126.582031 112.511719 156.84375 112.511719 194.082031 C 112.511719 231.28125 142.8125 261.582031 180.011719 261.582031 C 217.25 261.582031 247.511719 231.28125 247.511719 194.082031 C 247.511719 178.144531 241.960938 163.554688 232.699219 152.007812 L 216.648438 168.054688 C 221.898438 175.40625 225.011719 184.367188 225.011719 194.082031 C 225.011719 218.90625 204.835938 239.082031 180.011719 239.082031 C 155.1875 239.082031 135.011719 218.90625 135.011719 194.082031 C 135.011719 169.257812 155.1875 149.082031 180.011719 149.082031 C 189.722656 149.082031 198.6875 152.195312 206.035156 157.445312 L 222.085938 141.394531 C 210.535156 132.132812 195.910156 126.582031 180.011719 126.582031 Z M 180.011719 126.582031 " fill-opacity="1" fill-rule="nonzero"/><path fill="#7cebff" d="M 195.234375 168.242188 C 190.734375 165.617188 185.5625 164.082031 180.011719 164.082031 C 163.472656 164.082031 150.011719 177.542969 150.011719 194.082031 C 150.011719 210.617188 163.472656 224.082031 180.011719 224.082031 C 196.546875 224.082031 210.011719 210.617188 210.011719 194.082031 C 210.011719 188.53125 208.472656 183.320312 205.8125 178.855469 L 185.296875 199.367188 C 183.835938 200.832031 181.921875 201.582031 180.011719 201.582031 C 178.097656 201.582031 176.1875 200.832031 174.722656 199.367188 C 171.796875 196.445312 171.796875 191.679688 174.722656 188.757812 Z M 195.234375 168.242188 " fill-opacity="1" fill-rule="nonzero"/><g clip-path="url(#b8bdc5a94c)"><path fill="#7cebff" d="M 302.222656 103.632812 L 336.609375 69.242188 L 314.375 66.054688 C 311.074219 65.570312 308.484375 62.980469 308.035156 59.679688 L 304.847656 37.480469 L 270.460938 71.867188 L 274.4375 99.65625 Z M 302.222656 103.632812 " fill-opacity="1" fill-rule="nonzero"/></g></svg>