<svg xmlns="http://www.w3.org/2000/svg" xmlns:xlink="http://www.w3.org/1999/xlink" width="500" zoomAndPan="magnify" viewBox="0 0 375.12 383.03998" height="500" preserveAspectRatio="xMidYMid meet" version="1.0"><defs><clipPath id="7141840b84"><path d="M 170 316 L 206 316 L 206 336.65625 L 170 336.65625 Z M 170 316 " clip-rule="nonzero"/></clipPath><clipPath id="704eb304f8"><path d="M 63.433594 153 L 100 153 L 100 169 L 63.433594 169 Z M 63.433594 153 " clip-rule="nonzero"/></clipPath><clipPath id="99951a008a"><path d="M 179 37.40625 L 195 37.40625 L 195 74 L 179 74 Z M 179 37.40625 " clip-rule="nonzero"/></clipPath></defs><path fill="#7cebff" d="M 219.105469 249.429688 L 152.460938 260.621094 C 147.027344 261.535156 143.355469 266.683594 144.269531 272.117188 C 145.179688 277.554688 150.328125 281.222656 155.765625 280.3125 L 222.40625 269.113281 C 227.84375 268.199219 231.511719 263.050781 230.601562 257.617188 C 229.691406 252.179688 224.542969 248.519531 219.105469 249.429688 " fill-opacity="1" fill-rule="nonzero"/><path fill="#7cebff" d="M 219.105469 282.804688 L 152.460938 294 C 147.027344 294.910156 143.355469 300.058594 144.269531 305.496094 C 145.179688 310.929688 150.328125 314.601562 155.765625 313.6875 L 222.40625 302.496094 C 227.84375 301.578125 231.511719 296.429688 230.601562 290.992188 C 229.691406 285.554688 224.542969 281.886719 219.105469 282.804688 " fill-opacity="1" fill-rule="nonzero"/><g clip-path="url(#7141840b84)"><path fill="#7cebff" d="M 187.441406 336.582031 C 197.21875 336.582031 205.148438 328.652344 205.148438 318.875 L 205.148438 316.65625 L 170.113281 322.539062 C 171.800781 330.558594 178.921875 336.582031 187.441406 336.582031 " fill-opacity="1" fill-rule="nonzero"/></g><path fill="#7cebff" d="M 303.117188 153.539062 L 281.683594 153.539062 C 277.53125 153.539062 274.160156 156.910156 274.160156 161.0625 C 274.160156 165.222656 277.53125 168.585938 281.683594 168.585938 L 303.117188 168.585938 C 307.277344 168.585938 310.640625 165.222656 310.640625 161.0625 C 310.640625 156.910156 307.277344 153.539062 303.117188 153.539062 " fill-opacity="1" fill-rule="nonzero"/><g clip-path="url(#704eb304f8)"><path fill="#7cebff" d="M 99.964844 161.0625 C 99.964844 156.910156 96.589844 153.539062 92.441406 153.539062 L 71.003906 153.539062 C 66.84375 153.539062 63.480469 156.910156 63.480469 161.0625 C 63.480469 165.222656 66.84375 168.585938 71.003906 168.585938 L 92.441406 168.585938 C 96.589844 168.585938 99.964844 165.222656 99.964844 161.0625 " fill-opacity="1" fill-rule="nonzero"/></g><g clip-path="url(#99951a008a)"><path fill="#7cebff" d="M 187.0625 73.964844 C 191.21875 73.964844 194.585938 70.59375 194.585938 66.441406 L 194.585938 45.007812 C 194.585938 40.847656 191.21875 37.480469 187.0625 37.480469 C 182.902344 37.480469 179.535156 40.847656 179.535156 45.007812 L 179.535156 66.441406 C 179.535156 70.59375 182.902344 73.964844 187.0625 73.964844 " fill-opacity="1" fill-rule="nonzero"/></g><path fill="#7cebff" d="M 259.289062 222.652344 C 256.351562 219.714844 251.585938 219.714844 248.648438 222.652344 C 245.710938 225.59375 245.710938 230.355469 248.648438 233.296875 L 263.808594 248.449219 C 266.742188 251.382812 271.511719 251.382812 274.445312 248.449219 C 277.382812 245.511719 277.382812 240.746094 274.445312 237.808594 L 259.289062 222.652344 " fill-opacity="1" fill-rule="nonzero"/><path fill="#7cebff" d="M 114.832031 99.476562 C 117.769531 102.410156 122.535156 102.410156 125.472656 99.476562 C 128.410156 96.539062 128.410156 91.769531 125.472656 88.835938 L 110.316406 73.675781 C 107.378906 70.742188 102.613281 70.742188 99.675781 73.675781 C 96.738281 76.613281 96.738281 81.378906 99.675781 84.316406 L 114.832031 99.476562 " fill-opacity="1" fill-rule="nonzero"/><path fill="#7cebff" d="M 114.832031 222.652344 L 99.675781 237.808594 C 96.738281 240.746094 96.738281 245.511719 99.675781 248.449219 C 102.613281 251.382812 107.378906 251.382812 110.316406 248.449219 L 125.472656 233.296875 C 128.410156 230.355469 128.410156 225.59375 125.472656 222.652344 C 122.535156 219.714844 117.769531 219.714844 114.832031 222.652344 " fill-opacity="1" fill-rule="nonzero"/><path fill="#7cebff" d="M 248.648438 99.476562 C 251.585938 102.410156 256.351562 102.410156 259.289062 99.476562 L 274.445312 84.316406 C 277.382812 81.378906 277.382812 76.613281 274.445312 73.675781 C 271.511719 70.742188 266.742188 70.742188 263.808594 73.675781 L 248.648438 88.835938 C 245.710938 91.769531 245.710938 96.539062 248.648438 99.476562 " fill-opacity="1" fill-rule="nonzero"/><path fill="#7cebff" d="M 180.417969 188.339844 L 153.132812 161.054688 L 168.148438 146.046875 L 180.417969 158.3125 L 210.585938 128.152344 L 225.59375 143.171875 Z M 187.441406 93.265625 C 150.539062 93.265625 120.621094 123.957031 120.621094 161.824219 C 120.621094 180.683594 128.042969 197.765625 140.054688 210.15625 C 144.820312 215.070312 148.941406 220.570312 152.136719 226.621094 C 153.574219 229.355469 154.875 232.167969 155.96875 235.113281 C 157.347656 238.828125 158.117188 242.621094 158.679688 246.382812 L 216.714844 236.632812 C 216.894531 236.007812 217.113281 235.363281 217.34375 234.714844 C 220.320312 226.359375 225.421875 218.933594 231.972656 212.929688 C 245.652344 200.382812 254.25 182.140625 254.25 161.824219 C 254.25 123.957031 224.332031 93.265625 187.441406 93.265625 " fill-opacity="1" fill-rule="nonzero"/></svg>