<svg xmlns="http://www.w3.org/2000/svg" xmlns:xlink="http://www.w3.org/1999/xlink" width="500" zoomAndPan="magnify" viewBox="0 0 375.12 383.03998" height="500" preserveAspectRatio="xMidYMid meet" version="1.0"><defs><clipPath id="f6837e742a"><path d="M 42 47.132812 L 323 47.132812 L 323 326.929688 L 42 326.929688 Z M 42 47.132812 " clip-rule="nonzero"/></clipPath></defs><g clip-path="url(#f6837e742a)"><path fill="#7cebff" d="M 320.382812 181.453125 C 327.605469 207.175781 312.804688 234.664062 288.140625 243.824219 L 294.65625 247.464844 C 297.183594 248.933594 294.894531 252.988281 292.367188 251.460938 L 281.738281 245.292969 C 281.738281 245.292969 281.738281 245.292969 281.621094 245.292969 C 281.503906 245.175781 281.382812 244.941406 281.265625 244.824219 C 280.796875 244.234375 280.5625 243.707031 280.679688 242.886719 C 280.796875 242.648438 280.679688 242.414062 280.796875 242.179688 L 286.964844 231.550781 C 288.433594 228.90625 292.484375 231.199219 290.957031 233.839844 L 287.84375 239.007812 C 309.574219 230.199219 322.378906 205.589844 315.859375 182.625 C 315.625 181.6875 315.976562 180.921875 316.566406 180.453125 C 317.738281 179.511719 319.914062 179.632812 320.382812 181.453125 Z M 322.203125 158.019531 C 322.203125 165.359375 316.152344 171.292969 308.929688 171.292969 L 252.722656 171.292969 C 245.5 171.292969 239.449219 165.359375 239.449219 158.019531 L 239.449219 101.988281 C 239.449219 94.644531 245.5 88.714844 252.722656 88.714844 C 336.535156 90.183594 320.617188 74.382812 322.203125 158.019531 Z M 261.121094 149.679688 C 261.121094 151.144531 261.003906 153.320312 262.941406 153.4375 L 298.769531 153.4375 C 299.238281 153.4375 299.589844 153.203125 299.945312 152.964844 C 305.757812 127.242188 261.355469 123.484375 261.121094 149.679688 Z M 280.796875 127.007812 C 294.1875 126.890625 294.1875 106.628906 280.796875 106.511719 C 267.523438 106.628906 267.523438 126.890625 280.796875 127.007812 Z M 162.042969 125.1875 L 203.09375 125.1875 C 206.089844 125.1875 206.089844 120.605469 203.09375 120.605469 L 162.042969 120.605469 C 159.046875 120.605469 159.046875 125.1875 162.042969 125.1875 Z M 162.042969 108.683594 L 203.09375 108.683594 C 206.089844 108.683594 206.089844 103.984375 203.09375 104.101562 L 162.042969 104.101562 C 159.046875 103.984375 159.046875 108.683594 162.042969 108.683594 Z M 162.042969 92.121094 L 203.09375 92.121094 C 206.089844 92.238281 206.089844 87.539062 203.09375 87.539062 L 162.042969 87.539062 C 159.046875 87.539062 159.046875 92.238281 162.042969 92.121094 Z M 182.65625 158.019531 C 181.421875 158.019531 180.25 158.722656 180.367188 160.191406 L 180.367188 188.675781 L 175.550781 183.859375 C 173.496094 181.804688 170.144531 185.09375 172.203125 187.148438 L 180.894531 195.839844 C 181.363281 196.3125 181.835938 196.429688 182.363281 196.429688 C 182.363281 196.429688 182.480469 196.546875 182.597656 196.546875 C 182.714844 196.546875 182.949219 196.3125 183.066406 196.3125 C 183.183594 196.195312 183.300781 196.195312 183.417969 196.195312 C 183.773438 195.957031 184.125 195.839844 184.359375 195.605469 C 186.769531 193.785156 189.9375 189.675781 192.933594 187.148438 C 195.109375 185.09375 191.820312 181.746094 189.703125 183.859375 L 184.886719 188.675781 L 184.886719 160.191406 C 184.945312 158.722656 183.773438 158.019531 182.65625 158.019531 Z M 143.71875 136.816406 L 143.71875 56.527344 C 143.71875 51.359375 147.945312 47.132812 153.113281 47.132812 L 194.167969 47.132812 C 194.285156 47.132812 194.285156 47.25 194.402344 47.25 C 194.871094 47.25 195.460938 47.367188 195.871094 47.835938 L 220.832031 72.796875 C 221.183594 73.265625 221.417969 73.738281 221.417969 74.265625 L 221.417969 136.875 C 221.417969 142.042969 217.191406 146.269531 212.023438 146.269531 L 153.054688 146.269531 C 147.945312 146.210938 143.71875 141.984375 143.71875 136.816406 Z M 148.296875 136.816406 C 148.296875 139.457031 150.472656 141.632812 153.113281 141.632812 L 212.023438 141.632812 C 213.375 141.632812 214.546875 141.042969 215.429688 140.28125 C 216.367188 139.339844 216.78125 138.226562 216.78125 136.875 L 216.78125 76.675781 L 198.925781 76.675781 C 195.046875 76.675781 191.820312 73.445312 191.820312 69.566406 L 191.820312 51.714844 L 153.054688 51.714844 C 151.820312 51.714844 150.53125 52.300781 149.648438 53.0625 C 148.828125 54.003906 148.296875 55.238281 148.296875 56.46875 Z M 268.109375 252.28125 C 269.34375 254.457031 269.933594 257.214844 269.167969 259.625 L 253.253906 317.769531 C 251.902344 322.9375 247.320312 326.34375 241.917969 326.34375 L 234.164062 326.34375 C 194.695312 326.929688 154.640625 326.34375 115.171875 326.34375 C 114.46875 326.34375 113.941406 325.992188 113.46875 325.519531 C 113.351562 325.285156 113.351562 325.167969 113.234375 325.050781 C 113.117188 324.699219 112.882812 324.347656 112.882812 323.992188 L 112.882812 216.691406 C 112.882812 211.289062 117.347656 206.824219 122.75 206.824219 L 161.101562 206.824219 C 170.96875 206.355469 170.96875 218.863281 176.195312 223.738281 C 177.019531 224.324219 178.015625 224.5625 179.074219 224.5625 L 242.5625 224.5625 C 254.898438 225.03125 252.429688 238.890625 252.429688 247.761719 L 260.183594 247.761719 C 261.652344 247.761719 263.179688 248.113281 264.410156 248.699219 C 265.9375 249.523438 267.171875 250.8125 268.109375 252.28125 Z M 117.40625 307.078125 L 131.265625 256.394531 C 132.734375 251.226562 137.199219 247.820312 142.601562 247.820312 L 235.515625 247.820312 C 235.515625 243.941406 234.457031 240.066406 229.699219 239.949219 L 123.277344 239.949219 C 120.046875 239.949219 117.464844 242.589844 117.464844 245.761719 L 117.464844 307.078125 Z M 260.125 252.398438 L 142.601562 252.398438 C 141.015625 252.398438 139.371094 252.988281 138.253906 253.867188 C 137.023438 254.808594 136.082031 256.042969 135.730469 257.628906 L 118.109375 321.703125 L 241.917969 321.703125 C 243.621094 321.703125 245.148438 321.117188 246.261719 320.351562 C 249.023438 321.9375 263.765625 259.742188 264.820312 258.449219 C 265.703125 255.511719 263.179688 252.28125 260.125 252.398438 Z M 112.414062 171.292969 L 56.207031 171.292969 C 54.386719 171.292969 52.683594 170.9375 51.039062 170.234375 C 46.339844 168.179688 43.050781 163.480469 43.050781 158.019531 L 43.050781 101.929688 C 43.050781 94.585938 48.984375 88.65625 56.207031 88.65625 C 119.695312 89.769531 125.863281 80.960938 125.863281 113.027344 C 125.863281 123.308594 125.273438 137.753906 125.628906 158.019531 C 125.6875 165.359375 119.695312 171.292969 112.414062 171.292969 Z M 64.546875 149.679688 C 64.664062 151.144531 64.429688 153.320312 66.367188 153.4375 L 102.195312 153.4375 C 102.664062 153.4375 103.015625 153.203125 103.308594 152.964844 C 109.183594 127.242188 64.898438 123.484375 64.546875 149.679688 Z M 84.339844 127.007812 C 97.613281 126.890625 97.613281 106.628906 84.339844 106.511719 C 70.949219 106.628906 71.066406 126.890625 84.339844 127.007812 Z M 84.339844 242.238281 L 78.171875 231.550781 C 76.820312 228.90625 72.652344 231.199219 74.296875 233.839844 L 77.292969 239.007812 C 55.679688 230.199219 42.875 205.589844 49.277344 182.625 C 49.746094 180.921875 48.335938 179.867188 46.984375 179.867188 C 46.046875 179.867188 45.164062 180.335938 44.8125 181.453125 C 37.589844 207.234375 52.449219 234.664062 77.054688 243.824219 L 70.65625 247.464844 C 68.011719 248.933594 70.300781 252.988281 72.945312 251.460938 L 83.574219 245.292969 C 83.8125 245.175781 83.8125 244.941406 84.046875 244.707031 C 84.398438 244.234375 84.515625 243.765625 84.515625 243.355469 C 84.515625 243.238281 84.515625 243.003906 84.515625 242.886719 C 84.398438 242.769531 84.398438 242.648438 84.398438 242.53125 C 84.398438 242.414062 84.339844 242.355469 84.339844 242.238281 Z M 84.339844 242.238281 " fill-opacity="1" fill-rule="nonzero"/></g></svg>