<svg xmlns="http://www.w3.org/2000/svg" xmlns:xlink="http://www.w3.org/1999/xlink" width="500" zoomAndPan="magnify" viewBox="0 0 375.12 383.03998" height="500" preserveAspectRatio="xMidYMid meet" version="1.0"><defs><clipPath id="1867c70e8d"><path d="M 37.4375 37.40625 L 336.6875 37.40625 L 336.6875 336.65625 L 37.4375 336.65625 Z M 37.4375 37.40625 " clip-rule="nonzero"/></clipPath></defs><path fill="#7cebff" d="M 242.625 174.621094 L 214.945312 174.824219 C 212.972656 174.824219 211.410156 176.421875 211.410156 178.394531 L 211.410156 277.757812 C 224.332031 274.289062 236.132812 268.132812 246.230469 259.972656 L 246.230469 178.222656 C 246.230469 176.25 244.632812 174.652344 242.660156 174.652344 Z M 242.625 174.621094 " fill-opacity="1" fill-rule="nonzero"/><path fill="#7cebff" d="M 200.902344 140.035156 L 173.253906 140.035156 C 171.28125 140.035156 169.683594 141.632812 169.683594 143.605469 L 169.683594 279.355469 C 175.296875 280.410156 181.109375 280.988281 187.0625 280.988281 C 193.011719 280.988281 198.792969 280.410156 204.472656 279.355469 L 204.472656 143.605469 C 204.472656 141.632812 202.875 140.035156 200.902344 140.035156 Z M 200.902344 140.035156 " fill-opacity="1" fill-rule="nonzero"/><g clip-path="url(#1867c70e8d)"><path fill="#7cebff" d="M 333.117188 176.589844 L 311.554688 176.589844 C 309.789062 176.589844 308.292969 175.230469 308.054688 173.496094 C 301.898438 117.355469 256.703125 72.160156 200.5625 66.003906 C 198.828125 65.800781 197.46875 64.304688 197.46875 62.503906 L 197.46875 40.976562 C 197.46875 39.003906 195.867188 37.40625 193.894531 37.40625 L 180.15625 37.40625 C 178.1875 37.40625 176.585938 39.003906 176.585938 40.976562 L 176.585938 62.535156 C 176.585938 64.304688 175.226562 65.800781 173.492188 66.039062 C 117.347656 72.195312 72.15625 117.386719 66 173.53125 C 65.796875 175.265625 64.300781 176.625 62.5 176.625 L 41.007812 176.625 C 39.035156 176.625 37.4375 178.222656 37.4375 180.195312 L 37.4375 193.933594 C 37.4375 195.90625 39.035156 197.503906 41.007812 197.503906 L 62.566406 197.503906 C 64.335938 197.503906 65.832031 198.863281 66.070312 200.597656 C 72.222656 256.742188 117.417969 301.9375 173.5625 308.089844 C 175.296875 308.296875 176.65625 309.792969 176.65625 311.558594 L 176.65625 333.152344 C 176.65625 335.125 178.253906 336.722656 180.226562 336.722656 L 193.964844 336.722656 C 195.9375 336.722656 197.535156 335.125 197.535156 333.152344 L 197.535156 311.558594 C 197.535156 309.824219 198.894531 308.328125 200.628906 308.089844 C 256.773438 301.9375 301.964844 256.742188 308.121094 200.597656 C 308.324219 198.863281 309.820312 197.503906 311.625 197.503906 L 333.183594 197.503906 C 335.15625 197.503906 336.753906 195.90625 336.753906 193.933594 L 336.753906 180.195312 C 336.753906 178.222656 335.15625 176.625 333.183594 176.625 Z M 187.0625 287.960938 C 131.394531 287.960938 86.132812 242.664062 86.132812 187.03125 C 86.132812 131.398438 131.394531 86.101562 187.0625 86.101562 C 242.726562 86.101562 287.988281 131.363281 287.988281 187.03125 C 287.988281 242.699219 242.726562 287.960938 187.0625 287.960938 Z M 187.0625 287.960938 " fill-opacity="1" fill-rule="nonzero"/></g><path fill="#7cebff" d="M 159.144531 209.441406 L 131.222656 209.644531 C 129.25 209.644531 127.6875 211.242188 127.6875 213.214844 L 127.925781 259.9375 C 137.992188 268.136719 149.824219 274.289062 162.746094 277.722656 L 162.746094 212.976562 C 162.746094 211.003906 161.148438 209.40625 159.175781 209.40625 Z M 159.144531 209.441406 " fill-opacity="1" fill-rule="nonzero"/></svg>